<svg width="380" height="411" viewBox="0 0 380 411" fill="none" xmlns="http://www.w3.org/2000/svg">
<path d="M271.8 130.649C265.18 125.499 259.06 119.769 254.52 112.719C249.98 105.669 240.2 96.209 234.22 91.069C228.24 85.929 224.57 81.619 221.23 87.059C217.89 92.499 217.28 108.409 218.39 112.499C219.41 116.269 236.89 128.999 242.39 134.999C247.89 140.999 263.39 151.499 268.39 152.499C273.39 153.499 277.19 151.479 279.89 145.999C282.81 140.059 278.42 135.789 271.79 130.639L271.8 130.649Z" fill="#F8AA9F"/>
<path d="M220.4 82.9988C220.4 82.9988 226.4 81.9988 232.73 86.3288C239.06 90.6588 243.4 98.6588 243.4 98.6588C243.4 98.6588 236.07 105.329 234.07 109.329C232.07 113.329 228.4 124.329 228.4 124.329C228.4 124.329 218.4 120.659 216.4 113.999C214.4 107.339 212.4 86.6688 220.4 82.9988Z" fill="#F5F5F5"/>
<path d="M107.44 130.649C114.06 125.499 120.18 119.769 124.72 112.719C129.26 105.669 139.04 96.209 145.02 91.069C151 85.929 154.67 81.619 158.01 87.059C161.35 92.499 161.96 108.409 160.85 112.499C159.83 116.269 142.35 128.999 136.85 134.999C131.35 140.999 115.85 151.499 110.85 152.499C105.85 153.499 102.05 151.479 99.35 145.999C96.43 140.059 100.82 135.789 107.45 130.639L107.44 130.649Z" fill="#F8AA9F"/>
<path d="M158.84 82.9988C158.84 82.9988 152.84 81.9988 146.51 86.3288C140.18 90.6588 135.84 98.6588 135.84 98.6588C135.84 98.6588 143.17 105.329 145.17 109.329C147.17 113.329 150.84 124.329 150.84 124.329C150.84 124.329 160.84 120.659 162.84 113.999C164.84 107.339 166.84 86.6688 158.84 82.9988Z" fill="#F5F5F5"/>
<path d="M257.55 377.989C257.55 390.549 227.01 400.739 189.34 400.739C151.67 400.739 121.13 390.559 121.13 377.989C121.13 365.419 151.67 355.239 189.34 355.239C227.01 355.239 257.55 365.429 257.55 377.989Z" fill="#212121"/>
<path d="M219.9 89.3287C216.62 84.7687 216.81 45.8887 216.38 37.7387C215.95 29.5887 212.82 23.4087 209.94 19.9187C206.16 15.3587 202.54 12.2987 197.38 11.8187C192.23 11.3387 189.55 13.2387 189.33 13.0987C189.1 13.2287 186.43 11.3287 181.28 11.8187C176.13 12.2987 172.5 15.3587 168.72 19.9187C165.84 23.3987 162.7 29.5787 162.28 37.7387C161.85 45.8887 162.04 84.7687 158.76 89.3287C155.48 93.8887 152.92 100.909 159.45 104.769C165.97 108.629 179.39 107.099 189.33 107.099C199.27 107.099 212.68 108.629 219.21 104.769C225.74 100.909 223.18 93.8887 219.9 89.3287Z" fill="#792B0F"/>
<path d="M175.1 358.078C175.1 356.728 174.82 352.168 174.4 351.418C173.47 349.738 171.89 349.358 171.89 349.358C171.89 349.358 168.27 348.208 164.4 349.468C160.53 350.718 158.11 357.778 155.95 362.088C153.79 366.398 150.15 373.228 150.62 379.098C151.1 384.968 157.25 386.198 161.7 386.278C169.96 386.438 171.69 380.748 172.64 377.108C173.59 373.478 172.95 367.588 173.17 365.988C173.26 365.278 173.39 363.678 173.78 362.648C174.26 361.358 175.11 362.608 175.09 358.078H175.1Z" fill="white"/>
<path d="M173.45 340.609C173.6 339.149 174.13 336.429 174.86 333.089L159.41 332.639C159.99 336.189 160.38 338.989 160.39 340.469C160.41 344.759 159.37 351.009 158.58 354.759C157.79 358.499 156.55 360.019 155.04 365.119C153.64 369.829 154.57 371.119 156.39 373.059C158.21 374.989 162.52 375.239 164.95 374.609C167.39 373.979 170.92 371.309 171.34 368.649C171.76 365.989 172.69 360.509 173.48 356.769C174.27 353.029 172.95 345.639 173.45 340.609Z" fill="#FFCFC8"/>
<path d="M203.57 358.078C203.57 356.728 203.85 352.168 204.27 351.418C205.2 349.738 206.78 349.358 206.78 349.358C206.78 349.358 210.4 348.208 214.27 349.468C218.14 350.718 220.56 357.778 222.72 362.088C224.88 366.398 228.52 373.228 228.05 379.098C227.57 384.968 221.42 386.198 216.97 386.278C208.71 386.438 206.98 380.748 206.03 377.108C205.08 373.478 205.72 367.588 205.5 365.988C205.41 365.278 205.28 363.678 204.89 362.648C204.41 361.358 203.56 362.608 203.58 358.078H203.57Z" fill="white"/>
<path d="M205.22 340.609C205.07 339.149 204.54 336.429 203.81 333.089L219.26 332.639C218.68 336.189 218.29 338.989 218.28 340.469C218.26 344.759 219.3 351.009 220.09 354.759C220.88 358.499 222.12 360.019 223.63 365.119C225.03 369.829 224.1 371.119 222.28 373.059C220.46 374.989 216.15 375.239 213.72 374.609C211.28 373.979 207.75 371.309 207.33 368.649C206.91 365.989 205.98 360.509 205.19 356.769C204.4 353.029 205.72 345.639 205.22 340.609Z" fill="#FFCFC8"/>
<path d="M229.8 184.139C227.52 171.589 221.95 163.039 219.06 161.229C209.52 155.259 200.45 155.499 189.33 155.499C178.21 155.499 169.14 155.249 159.6 161.229C156.71 163.039 151.14 171.589 148.86 184.139C146.47 197.309 148.16 213.979 148.43 224.049C149.01 245.819 149.49 264.909 149.58 266.599C149.8 270.689 149.27 289.909 150.28 303.259C151.28 316.569 152.32 327.019 152.53 334.469C159.56 337.429 174.15 336.539 178.39 334.509C179.72 326.949 180.11 315.139 182.13 295.319C183.45 282.409 182.34 267.369 182.69 263.569C183.41 255.849 186.08 227.719 189.32 214.489C192.57 227.719 195.23 255.839 195.95 263.569C196.3 267.369 195.2 282.409 196.51 295.319C198.53 315.139 198.92 326.949 200.25 334.509C204.48 336.539 219.08 337.429 226.11 334.469C226.32 327.019 227.36 316.569 228.36 303.259C229.37 289.909 228.84 270.689 229.06 266.599C229.15 264.909 229.62 245.819 230.21 224.049C230.48 213.979 232.17 197.309 229.78 184.139H229.8Z" fill="#3652AE"/>
<path d="M227.52 112.009C228.88 106.589 230.24 89.5487 226.84 85.1287C224.29 81.8087 201.59 77.9688 189.34 77.9688C177.09 77.9688 154.39 81.8187 151.84 85.1287C148.44 89.5487 149.8 106.579 151.16 112.009C152.52 117.429 153.79 132.199 153.88 133.989C154.22 140.789 155.17 151.749 153.47 161.949C152.92 165.239 172.26 169.789 189.35 169.789C206.44 169.789 225.78 165.239 225.23 161.949C223.53 151.749 224.48 140.789 224.82 133.989C224.91 132.199 226.18 117.439 227.54 112.009H227.52Z" fill="white"/>
<path d="M198.86 73.6285L195.88 54.2485L189.33 55.2485L182.79 54.2485L179.81 73.6285L172.31 80.6385C172.31 80.6385 178.45 91.8585 189.33 91.8585C200.21 91.8585 206.36 80.6385 206.36 80.6385L198.86 73.6285Z" fill="#FFCFC8"/>
<path d="M214.89 40.6686C214.06 38.1986 211.34 36.7286 209.4 37.4086C208.63 31.5986 206.36 16.0186 189.34 16.0186C172.32 16.0186 170.04 31.5986 169.27 37.4086C167.33 36.7286 164.61 38.1986 163.78 40.6686C163.02 42.9086 163.81 45.3186 165.38 46.9886C166.57 48.2386 168.32 48.9086 170.12 49.2186C171.21 53.0386 173.05 57.0186 175.92 60.0986C177.73 62.0386 182.61 65.1686 189.33 65.1686C196.05 65.1686 200.93 62.0486 202.74 60.0986C205.61 57.0286 207.45 53.0386 208.54 49.2186C210.35 48.9086 212.1 48.2386 213.28 46.9886C214.86 45.3186 215.64 42.9186 214.88 40.6686H214.89Z" fill="#FFCFC8"/>
<path d="M189.85 41.5786C189.85 41.5786 190.06 42.4386 190.23 43.6486C190.33 44.2486 190.42 44.9686 190.56 45.6286C190.59 45.7886 190.65 45.9386 190.69 46.0386C190.77 46.1886 190.63 45.9386 190.85 46.1886C191.14 46.4986 191.38 46.7186 191.68 47.0586C191.97 47.3886 192.29 47.7886 192.51 48.3286C192.6 48.5986 192.68 48.8786 192.68 49.1386V49.3386L192.7 49.3886V49.4886V49.5086V49.5786C192.69 49.6386 192.67 49.8186 192.64 49.9086C192.61 49.9886 192.59 50.0786 192.56 50.1386C192.31 50.6886 191.98 50.9686 191.69 51.2386C191.39 51.4886 191.09 51.6886 190.82 51.8686C190.26 52.1986 189.77 52.4186 189.42 52.5586C189.07 52.6886 188.86 52.7486 188.86 52.7486C188.86 52.7486 188.99 52.5786 189.22 52.2886C189.45 51.9986 189.79 51.6086 190.15 51.1186C190.34 50.8886 190.53 50.6286 190.7 50.3586C190.87 50.0986 191.03 49.7886 191.04 49.6186C191.04 49.5986 191.04 49.5886 191.04 49.5786C191.03 49.5786 191.03 49.6586 191.02 49.6186V49.5486L191.01 49.5286C191.01 49.5086 191.01 49.6686 191.01 49.5986V49.5786L190.96 49.4886C190.92 49.3586 190.84 49.2586 190.79 49.1486C190.65 48.9486 190.45 48.7186 190.19 48.4386C189.94 48.1686 189.61 47.7986 189.38 47.4886L189.29 47.3686L189.25 47.3086C189.19 47.2286 189.17 47.1986 189.13 47.1386C189.01 46.9286 188.96 46.7686 188.93 46.6286C188.86 46.3486 188.85 46.1086 188.84 45.8886C188.83 45.0086 188.97 44.2886 189.12 43.6586C189.42 42.4186 189.84 41.6386 189.84 41.6386L189.85 41.5786Z" fill="#C77D79"/>
<path d="M183.36 45.6186C183.36 46.8886 182.33 47.9186 181.06 47.9186C179.79 47.9186 178.77 46.8886 178.77 45.6286C178.77 44.3586 179.79 43.3386 181.06 43.3286C182.33 43.3286 183.36 44.3586 183.36 45.6186Z" fill="#522C31"/>
<path d="M195.31 45.6186C195.31 46.8886 196.34 47.9186 197.6 47.9186C198.87 47.9186 199.89 46.8886 199.9 45.6286C199.9 44.3586 198.88 43.3386 197.61 43.3286C196.34 43.3286 195.31 44.3586 195.31 45.6186Z" fill="#522C31"/>
<path d="M182.75 64.6886C184.23 65.1886 185.96 65.5486 187.95 65.6686C191.23 65.8686 193.84 65.3486 195.92 64.5586" stroke="#FFCFC8" stroke-miterlimit="10"/>
<path d="M177 40.1488C177.36 40.1788 177.72 40.2088 178.07 40.2388C178.42 40.2688 178.77 40.2888 179.12 40.2988C179.47 40.3088 179.84 40.3188 180.2 40.3288C180.39 40.3288 180.57 40.3288 180.76 40.3388C180.91 40.3388 181.07 40.3388 181.22 40.3588L180.98 40.3288C181.13 40.3488 181.27 40.3988 181.41 40.4588L181.19 40.3688C181.63 40.5588 182.03 40.8388 182.41 41.1188C182.82 41.4188 183.26 41.6788 183.7 41.9188C183.86 42.0088 184.03 42.0788 184.21 42.1388C184.26 42.1588 184.31 42.1688 184.36 42.1888C184.52 42.2288 184.68 42.2188 184.84 42.1888H184.5C184.69 42.2488 184.89 42.2788 185.09 42.2488C185.2 42.2288 185.32 42.1888 185.42 42.1288C185.65 41.9988 185.79 41.7588 185.8 41.4988C185.8 41.2788 185.52 41.0788 185.32 41.2288C185.3 41.2488 185.26 41.2588 185.24 41.2788C185.24 41.2788 185.34 41.2488 185.3 41.2588C185.3 41.2588 185.29 41.2588 185.28 41.2588C185.2 41.2788 185.34 41.2488 185.34 41.2588H185.3C185.22 41.2588 185.4 41.2788 185.37 41.2688C185.36 41.2688 185.34 41.2688 185.33 41.2588C185.26 41.2388 185.44 41.3188 185.4 41.2888C185.37 41.2688 185.35 41.2588 185.32 41.2388C185.3 41.2288 185.26 41.1988 185.35 41.2688C185.46 41.3588 185.39 41.3088 185.38 41.2888C185.35 41.2388 185.25 41.1788 185.23 41.1688C185.15 41.1188 185.07 41.0788 185 41.0188L185.23 41.2488C185.11 40.9888 184.84 40.7988 184.63 40.6188C184.41 40.4288 184.19 40.2288 183.98 40.0288C183.7 39.7788 183.4 39.5588 183.09 39.3488C182.86 39.1888 182.61 39.0288 182.36 38.8988C182.09 38.7588 181.8 38.6288 181.5 38.5788C181.15 38.5188 180.8 38.5288 180.45 38.5188C179.74 38.5088 179.03 38.4688 178.32 38.4988C177.88 38.5188 177.45 38.5388 177.01 38.5488C176.8 38.5488 176.6 38.6288 176.45 38.7788C176.31 38.9188 176.21 39.1388 176.22 39.3388C176.23 39.5388 176.3 39.7588 176.45 39.8988C176.6 40.0388 176.79 40.1088 177.01 40.1288L177 40.1488Z" fill="#8C1846"/>
<path d="M201.67 38.5585C201.31 38.5485 200.95 38.5285 200.6 38.5185C200.25 38.5085 199.92 38.4985 199.58 38.4985C199.22 38.4985 198.85 38.5085 198.49 38.5185C198.18 38.5185 197.86 38.5185 197.55 38.5385C197.16 38.5485 196.84 38.6685 196.5 38.8185C196.25 38.9285 196.02 39.0685 195.79 39.2185C195.48 39.4185 195.15 39.6385 194.87 39.8785C194.62 40.0985 194.38 40.3285 194.13 40.5485C194.02 40.6485 193.9 40.7385 193.79 40.8385C193.66 40.9685 193.52 41.0785 193.44 41.2485L193.67 41.0185C193.6 41.0685 193.52 41.1185 193.44 41.1585C193.39 41.1885 193.34 41.2385 193.29 41.2785C193.22 41.3385 193.4 41.1985 193.35 41.2285C193.32 41.2485 193.29 41.2585 193.26 41.2785C193.21 41.3085 193.4 41.2385 193.33 41.2485C193.32 41.2485 193.3 41.2485 193.29 41.2585C193.25 41.2785 193.42 41.2585 193.36 41.2585C193.36 41.2585 193.33 41.2585 193.32 41.2585C193.32 41.2585 193.45 41.2785 193.38 41.2585C193.36 41.2585 193.31 41.2285 193.38 41.2585C193.46 41.2885 193.36 41.2385 193.34 41.2285C193.14 41.0785 192.86 41.2785 192.86 41.4985C192.86 41.7685 193.01 41.9985 193.24 42.1285C193.34 42.1785 193.45 42.2185 193.56 42.2485C193.76 42.2885 193.96 42.2485 194.16 42.1885H193.82C193.97 42.2185 194.11 42.2385 194.27 42.1985C194.32 42.1885 194.37 42.1685 194.42 42.1585C194.58 42.1085 194.73 42.0485 194.88 41.9685C195.09 41.8585 195.3 41.7285 195.51 41.6085C195.74 41.4785 195.96 41.3385 196.17 41.1885C196.38 41.0385 196.59 40.8885 196.8 40.7485C197.01 40.6085 197.24 40.4785 197.48 40.3785L197.26 40.4685C197.4 40.4085 197.54 40.3585 197.69 40.3385L197.45 40.3685C197.74 40.3285 198.04 40.3485 198.33 40.3385C198.69 40.3385 199.04 40.3185 199.4 40.3085C199.76 40.2985 200.11 40.2785 200.47 40.2485C200.74 40.2285 201.01 40.1985 201.28 40.1785C201.41 40.1685 201.54 40.1585 201.67 40.1485C201.88 40.1285 202.08 40.0685 202.23 39.9185C202.37 39.7785 202.47 39.5585 202.46 39.3585C202.44 38.9085 202.11 38.5785 201.66 38.5585H201.67Z" fill="#8C1846"/>
<path d="M185.95 58.0684C185.93 57.2484 187.1 56.2084 187.69 55.6284C188.49 54.8484 189.36 54.3584 190.23 54.3584C191.1 54.3584 194.11 56.0984 193.65 57.1884C193.36 57.8684 192.01 57.5084 190.02 57.7784C188 58.0484 185.96 58.4884 185.95 58.0684Z" fill="white"/>
<path d="M207.74 18.9786C200.3 7.89863 190.22 11.4686 189.25 11.8386C188.29 11.4686 178.2 7.89863 170.76 18.9786C164 29.0386 170.05 40.2686 170.31 39.7886C170.91 38.6686 173.99 37.1886 175.26 35.9786C175.62 33.2486 176.52 27.0586 178.45 23.7086C178.45 23.7086 176.82 30.7886 178.02 34.9986C179.09 34.4186 180.3 33.9786 181.64 33.7686C181.8 33.7486 181.97 33.7186 182.14 33.6986C182.18 31.4386 182.42 24.4586 183.85 22.3686C183.85 22.3686 183.35 30.2386 183.75 33.5086C185.74 33.3086 187.63 33.2386 189.25 33.2386C190.87 33.2386 192.76 33.3186 194.75 33.5086C195.15 30.2386 194.65 22.3686 194.65 22.3686C196.08 24.4486 196.33 31.4286 196.36 33.6986C196.53 33.7186 196.69 33.7386 196.86 33.7686C198.2 33.9686 199.41 34.4186 200.48 34.9986C201.68 30.7886 200.05 23.7086 200.05 23.7086C201.98 27.0586 202.88 33.2486 203.24 35.9786C204.51 37.1886 207.59 38.6686 208.19 39.7886C208.45 40.2686 214.5 29.0386 207.74 18.9786Z" fill="#8C1C18"/>
<path d="M85.76 65.3884L95.52 59.8984L108.84 92.7884L85.76 65.3884Z" fill="#3441D5"/>
<path d="M116.87 59.2586L119.62 80.3186L122.95 59.0386L116.87 59.2586Z" fill="#3441D5"/>
<path d="M70.83 113.319L89.44 108.519L70 107.139L70.83 113.319Z" fill="#3441D5"/>
<path d="M73.38 91.9386L76.76 81.8086L99.56 97.8486L73.38 91.9386Z" fill="#3441D5"/>
<path d="M293.48 65.3884L283.72 59.8984L270.4 92.7884L293.48 65.3884Z" fill="#3441D5"/>
<path d="M262.37 59.2586L259.62 80.3186L256.29 59.0386L262.37 59.2586Z" fill="#3441D5"/>
<path d="M308.42 113.319L289.8 108.519L309.24 107.139L308.42 113.319Z" fill="#3441D5"/>
<path d="M305.86 91.9386L302.49 81.8086L279.69 97.8486L305.86 91.9386Z" fill="#3441D5"/>
<path d="M273.28 106.719H105.95V156.339H273.28V106.719Z" fill="#FFF0F0"/>
<path d="M128.959 125.574C129.516 125.574 130.029 125.631 130.498 125.745C130.979 125.846 131.505 125.96 132.075 126.087C132.126 126.581 132.164 127.075 132.189 127.569C132.227 128.063 132.259 128.595 132.284 129.165C132.233 129.241 132.164 129.279 132.075 129.279C132.075 129.279 132.069 129.279 132.056 129.279C132.005 129.279 131.904 129.279 131.752 129.279C131.613 129.266 131.537 129.222 131.524 129.146C131.486 128.88 131.404 128.589 131.277 128.272C131.15 127.955 130.979 127.651 130.764 127.36C130.549 127.069 130.295 126.828 130.004 126.638C129.725 126.448 129.409 126.353 129.054 126.353C128.813 126.353 128.573 126.404 128.332 126.505C128.091 126.594 127.889 126.758 127.724 126.999C127.559 127.227 127.477 127.55 127.477 127.968C127.477 128.348 127.623 128.722 127.914 129.089C128.205 129.444 128.554 129.779 128.959 130.096C129.377 130.4 129.776 130.679 130.156 130.932C130.561 131.198 130.973 131.489 131.391 131.806C131.822 132.11 132.176 132.496 132.455 132.965C132.746 133.421 132.892 134.016 132.892 134.751C132.892 135.422 132.696 136.018 132.303 136.537C131.91 137.056 131.404 137.462 130.783 137.753C130.175 138.044 129.529 138.19 128.845 138.19C128.3 138.19 127.711 138.139 127.078 138.038C126.457 137.937 125.868 137.823 125.311 137.696C125.248 137.417 125.184 137.063 125.121 136.632C125.058 136.201 125.001 135.79 124.95 135.397C124.912 134.992 124.887 134.707 124.874 134.542C124.912 134.479 124.994 134.422 125.121 134.371C125.26 134.32 125.355 134.295 125.406 134.295C125.558 134.295 125.64 134.339 125.653 134.428C125.691 134.681 125.792 134.979 125.957 135.321C126.122 135.65 126.331 135.98 126.584 136.309C126.85 136.626 127.154 136.892 127.496 137.107C127.851 137.31 128.237 137.411 128.655 137.411C129.136 137.411 129.554 137.278 129.909 137.012C130.276 136.733 130.46 136.265 130.46 135.606C130.46 135.277 130.359 134.966 130.156 134.675C129.966 134.371 129.725 134.092 129.434 133.839C129.143 133.586 128.839 133.351 128.522 133.136C128.205 132.921 127.933 132.737 127.705 132.585C127.262 132.281 126.831 131.971 126.413 131.654C125.995 131.337 125.653 130.964 125.387 130.533C125.134 130.102 125.007 129.564 125.007 128.918C125.007 128.272 125.203 127.702 125.596 127.208C125.989 126.701 126.489 126.302 127.097 126.011C127.705 125.72 128.326 125.574 128.959 125.574ZM136.65 133.516C136.65 134.162 136.745 134.694 136.935 135.112C137.125 135.517 137.36 135.828 137.638 136.043C137.917 136.258 138.202 136.41 138.493 136.499C138.797 136.575 139.051 136.613 139.253 136.613C139.798 136.613 140.229 136.512 140.545 136.309C140.862 136.094 141.122 135.885 141.324 135.682C141.388 135.695 141.438 135.739 141.476 135.815C141.527 135.891 141.552 135.961 141.552 136.024C141.552 136.189 141.533 136.303 141.495 136.366C141.381 136.531 141.172 136.759 140.868 137.05C140.564 137.341 140.178 137.601 139.709 137.829C139.253 138.057 138.728 138.171 138.132 138.171C137.448 138.171 136.809 138.019 136.213 137.715C135.618 137.398 135.137 136.955 134.769 136.385C134.415 135.802 134.237 135.106 134.237 134.295C134.237 133.712 134.351 133.149 134.579 132.604C134.807 132.047 135.111 131.553 135.491 131.122C135.884 130.679 136.327 130.33 136.821 130.077C137.315 129.824 137.828 129.697 138.36 129.697C138.968 129.697 139.481 129.792 139.899 129.982C140.317 130.172 140.647 130.413 140.887 130.704C141.141 130.995 141.324 131.306 141.438 131.635C141.552 131.952 141.609 132.243 141.609 132.509C141.609 132.712 141.559 132.889 141.457 133.041C141.369 133.193 141.255 133.275 141.115 133.288C140.697 133.326 140.229 133.364 139.709 133.402C139.19 133.427 138.664 133.453 138.132 133.478C137.6 133.491 137.106 133.503 136.65 133.516ZM136.669 132.775C136.707 132.775 136.828 132.775 137.03 132.775C137.246 132.762 137.486 132.75 137.752 132.737C138.031 132.712 138.291 132.693 138.531 132.68C138.772 132.655 138.949 132.636 139.063 132.623C139.177 132.61 139.247 132.572 139.272 132.509C139.298 132.433 139.31 132.37 139.31 132.319C139.31 132.028 139.272 131.743 139.196 131.464C139.12 131.185 139 130.951 138.835 130.761C138.671 130.571 138.449 130.476 138.17 130.476C137.892 130.476 137.657 130.565 137.467 130.742C137.277 130.919 137.119 131.135 136.992 131.388C136.878 131.641 136.796 131.901 136.745 132.167C136.695 132.42 136.669 132.623 136.669 132.775ZM146.782 129.678C147.301 129.678 147.77 129.798 148.188 130.039C148.606 130.28 148.941 130.615 149.195 131.046C149.448 131.464 149.575 131.952 149.575 132.509V135.986C149.575 136.227 149.613 136.417 149.689 136.556C149.777 136.683 149.885 136.746 150.012 136.746C150.151 136.746 150.265 136.721 150.354 136.67C150.442 136.607 150.506 136.569 150.544 136.556C150.632 136.594 150.677 136.695 150.677 136.86C150.677 136.961 150.651 137.056 150.601 137.145C150.512 137.221 150.366 137.341 150.164 137.506C149.961 137.658 149.733 137.797 149.48 137.924C149.226 138.051 148.967 138.114 148.701 138.114C148.397 138.114 148.105 138.013 147.827 137.81C147.561 137.607 147.383 137.398 147.295 137.183C147.244 137.234 147.086 137.341 146.82 137.506C146.566 137.658 146.288 137.804 145.984 137.943C145.68 138.082 145.414 138.152 145.186 138.152C144.717 138.152 144.299 138.044 143.932 137.829C143.564 137.601 143.273 137.316 143.058 136.974C142.855 136.619 142.754 136.258 142.754 135.891C142.754 135.524 142.855 135.207 143.058 134.941C143.26 134.662 143.482 134.485 143.723 134.409C143.963 134.333 144.293 134.213 144.711 134.048C145.129 133.883 145.559 133.712 146.003 133.535C146.459 133.358 146.845 133.212 147.162 133.098V132.224C147.162 131.755 147.06 131.331 146.858 130.951C146.655 130.571 146.389 130.381 146.06 130.381C145.705 130.381 145.458 130.539 145.319 130.856C145.192 131.16 145.078 131.521 144.977 131.939C144.926 132.142 144.825 132.332 144.673 132.509C144.521 132.674 144.28 132.756 143.951 132.756C143.71 132.756 143.488 132.674 143.286 132.509C143.083 132.332 142.982 132.116 142.982 131.863C142.982 131.736 143.007 131.61 143.058 131.483C143.108 131.356 143.172 131.23 143.248 131.103C143.311 131.04 143.45 130.932 143.666 130.78C143.894 130.628 144.172 130.47 144.502 130.305C144.831 130.128 145.192 129.982 145.585 129.868C145.977 129.741 146.376 129.678 146.782 129.678ZM146.402 136.841C146.63 136.841 146.813 136.79 146.953 136.689C147.092 136.588 147.162 136.512 147.162 136.461V133.858C146.972 133.947 146.763 134.035 146.535 134.124C146.319 134.213 146.117 134.32 145.927 134.447C145.673 134.612 145.496 134.814 145.395 135.055C145.293 135.283 145.249 135.498 145.262 135.701C145.274 136.094 145.407 136.385 145.661 136.575C145.914 136.752 146.161 136.841 146.402 136.841ZM157.668 129.697C157.909 129.697 158.13 129.722 158.333 129.773C158.536 129.824 158.7 129.906 158.827 130.02C158.865 130.071 158.909 130.185 158.96 130.362C159.011 130.539 159.036 130.729 159.036 130.932C159.036 131.135 158.985 131.35 158.884 131.578C158.795 131.806 158.669 132.002 158.504 132.167C158.339 132.319 158.149 132.395 157.934 132.395C157.769 132.395 157.624 132.344 157.497 132.243C157.37 132.129 157.25 132.028 157.136 131.939C157.035 131.838 156.933 131.749 156.832 131.673C156.743 131.584 156.617 131.54 156.452 131.54C156.199 131.54 155.977 131.641 155.787 131.844C155.61 132.034 155.47 132.249 155.369 132.49C155.268 132.718 155.217 132.902 155.217 133.041V135.302C155.217 135.644 155.223 135.973 155.236 136.29C155.249 136.607 155.293 136.86 155.369 137.05C155.407 137.126 155.521 137.189 155.711 137.24C155.901 137.291 156.097 137.329 156.3 137.354C156.515 137.367 156.661 137.379 156.737 137.392C156.788 137.455 156.807 137.569 156.794 137.734C156.794 137.899 156.775 138.013 156.737 138.076C156.382 138.038 155.933 138.006 155.388 137.981C154.856 137.956 154.394 137.943 154.001 137.943C153.608 137.943 153.178 137.956 152.709 137.981C152.253 138.006 151.841 138.038 151.474 138.076C151.436 138.013 151.411 137.899 151.398 137.734C151.398 137.569 151.423 137.455 151.474 137.392C151.563 137.379 151.689 137.367 151.854 137.354C152.031 137.329 152.202 137.291 152.367 137.24C152.532 137.189 152.627 137.126 152.652 137.05C152.728 136.86 152.772 136.619 152.785 136.328C152.798 136.037 152.804 135.695 152.804 135.302V133.174C152.804 133.111 152.798 132.978 152.785 132.775C152.785 132.56 152.772 132.344 152.747 132.129C152.722 131.901 152.684 131.743 152.633 131.654C152.582 131.553 152.468 131.477 152.291 131.426C152.126 131.375 151.962 131.337 151.797 131.312C151.632 131.287 151.525 131.274 151.474 131.274C151.461 131.261 151.449 131.211 151.436 131.122C151.423 131.021 151.423 130.926 151.436 130.837C151.449 130.748 151.468 130.704 151.493 130.704C151.962 130.666 152.424 130.59 152.88 130.476C153.349 130.362 153.779 130.235 154.172 130.096C154.565 129.957 154.875 129.83 155.103 129.716C155.166 129.729 155.236 129.779 155.312 129.868C155.388 129.957 155.426 130.014 155.426 130.039C155.413 130.09 155.388 130.216 155.35 130.419C155.325 130.622 155.299 130.831 155.274 131.046C155.249 131.261 155.236 131.413 155.236 131.502C155.236 131.553 155.249 131.578 155.274 131.578C155.312 131.578 155.337 131.572 155.35 131.559C155.502 131.293 155.679 131.014 155.882 130.723C156.097 130.432 156.351 130.191 156.642 130.001C156.933 129.798 157.275 129.697 157.668 129.697ZM166.707 130.913C166.707 131.179 166.612 131.439 166.422 131.692C166.232 131.945 165.972 132.072 165.643 132.072C165.402 132.072 165.193 131.977 165.016 131.787C164.838 131.584 164.674 131.401 164.522 131.236C164.167 130.843 163.749 130.647 163.268 130.647C163.002 130.647 162.767 130.78 162.565 131.046C162.375 131.312 162.223 131.648 162.109 132.053C162.007 132.446 161.957 132.832 161.957 133.212C161.957 134.073 162.096 134.757 162.375 135.264C162.666 135.758 163.014 136.106 163.42 136.309C163.838 136.512 164.243 136.613 164.636 136.613C165.18 136.613 165.611 136.512 165.928 136.309C166.244 136.094 166.504 135.885 166.707 135.682C166.77 135.695 166.821 135.739 166.859 135.815C166.909 135.891 166.935 135.961 166.935 136.024C166.935 136.189 166.916 136.303 166.878 136.366C166.764 136.531 166.555 136.759 166.251 137.05C165.947 137.341 165.56 137.601 165.092 137.829C164.636 138.057 164.11 138.171 163.515 138.171C162.831 138.171 162.191 138.019 161.596 137.715C161 137.398 160.519 136.955 160.152 136.385C159.797 135.802 159.62 135.106 159.62 134.295C159.62 133.725 159.746 133.168 160 132.623C160.266 132.078 160.627 131.584 161.083 131.141C161.539 130.698 162.052 130.343 162.622 130.077C163.204 129.811 163.819 129.678 164.465 129.678C164.984 129.678 165.402 129.722 165.719 129.811C166.035 129.887 166.244 129.957 166.346 130.02C166.434 130.109 166.517 130.223 166.593 130.362C166.669 130.489 166.707 130.672 166.707 130.913ZM174.146 129.716C174.856 129.716 175.388 129.881 175.742 130.21C176.11 130.527 176.357 131.014 176.483 131.673C176.61 132.319 176.673 133.13 176.673 134.105V135.302C176.673 135.34 176.673 135.384 176.673 135.435C176.673 135.473 176.673 135.511 176.673 135.549C176.673 135.878 176.68 136.17 176.692 136.423C176.705 136.676 176.743 136.885 176.806 137.05C176.844 137.126 176.939 137.189 177.091 137.24C177.256 137.291 177.427 137.329 177.604 137.354C177.794 137.367 177.927 137.379 178.003 137.392C178.054 137.455 178.073 137.569 178.06 137.734C178.06 137.899 178.041 138.013 178.003 138.076C177.649 138.038 177.231 138.006 176.749 137.981C176.281 137.956 175.85 137.943 175.457 137.943C175.065 137.943 174.672 137.956 174.279 137.981C173.887 138.006 173.507 138.038 173.139 138.076C173.101 138.013 173.076 137.899 173.063 137.734C173.063 137.569 173.089 137.455 173.139 137.392C173.266 137.379 173.443 137.354 173.671 137.316C173.912 137.265 174.058 137.177 174.108 137.05C174.184 136.86 174.229 136.619 174.241 136.328C174.254 136.037 174.26 135.695 174.26 135.302V133.839C174.26 133.396 174.222 132.978 174.146 132.585C174.083 132.18 173.956 131.857 173.766 131.616C173.589 131.363 173.336 131.236 173.006 131.236C172.766 131.236 172.519 131.299 172.265 131.426C172.012 131.54 171.797 131.679 171.619 131.844C171.455 131.996 171.372 132.135 171.372 132.262V135.302C171.372 135.644 171.379 135.973 171.391 136.29C171.404 136.607 171.448 136.86 171.524 137.05C171.562 137.126 171.651 137.189 171.79 137.24C171.93 137.291 172.075 137.329 172.227 137.354C172.392 137.367 172.512 137.379 172.588 137.392C172.639 137.455 172.658 137.569 172.645 137.734C172.645 137.899 172.626 138.013 172.588 138.076C172.234 138.038 171.841 138.006 171.41 137.981C170.98 137.956 170.568 137.943 170.175 137.943C169.783 137.943 169.352 137.956 168.883 137.981C168.415 138.006 167.997 138.038 167.629 138.076C167.591 138.013 167.566 137.899 167.553 137.734C167.553 137.569 167.579 137.455 167.629 137.392C167.718 137.379 167.851 137.367 168.028 137.354C168.206 137.329 168.377 137.291 168.541 137.24C168.706 137.189 168.801 137.126 168.826 137.05C168.89 136.885 168.928 136.676 168.94 136.423C168.953 136.17 168.959 135.878 168.959 135.549C168.959 135.511 168.959 135.473 168.959 135.435C168.959 135.384 168.959 135.34 168.959 135.302V127.645C168.959 127.48 168.953 127.335 168.94 127.208C168.928 127.069 168.89 126.917 168.826 126.752C168.801 126.676 168.712 126.613 168.56 126.562C168.408 126.511 168.25 126.48 168.085 126.467C167.921 126.442 167.8 126.429 167.724 126.429C167.686 126.429 167.661 126.34 167.648 126.163C167.648 125.973 167.674 125.859 167.724 125.821C168.421 125.758 169.029 125.669 169.548 125.555C170.08 125.441 170.498 125.34 170.802 125.251C171.119 125.15 171.284 125.099 171.296 125.099C171.36 125.112 171.417 125.156 171.467 125.232C171.531 125.308 171.569 125.371 171.581 125.422C171.581 125.422 171.562 125.53 171.524 125.745C171.499 125.96 171.467 126.214 171.429 126.505C171.391 126.796 171.372 127.069 171.372 127.322V131.103C171.372 131.166 171.379 131.204 171.391 131.217C171.417 131.217 171.461 131.185 171.524 131.122C171.702 130.919 171.942 130.71 172.246 130.495C172.55 130.28 172.873 130.096 173.215 129.944C173.557 129.792 173.868 129.716 174.146 129.716ZM194.178 129.051C194.178 129.786 193.995 130.425 193.627 130.97C193.273 131.515 192.81 131.939 192.24 132.243C191.683 132.534 191.088 132.68 190.454 132.68C190.125 132.68 189.84 132.623 189.599 132.509C189.371 132.395 189.226 132.306 189.162 132.243C189.124 132.205 189.093 132.142 189.067 132.053C189.042 131.952 189.029 131.863 189.029 131.787C189.029 131.698 189.055 131.654 189.105 131.654C189.207 131.679 189.321 131.698 189.447 131.711C189.587 131.724 189.726 131.73 189.865 131.73C190.321 131.73 190.695 131.508 190.986 131.065C191.278 130.609 191.423 130.026 191.423 129.317C191.423 128.823 191.335 128.367 191.157 127.949C190.993 127.518 190.752 127.17 190.435 126.904C190.131 126.638 189.77 126.505 189.352 126.505C189.15 126.505 188.953 126.518 188.763 126.543C188.586 126.556 188.472 126.613 188.421 126.714C188.383 126.815 188.358 126.942 188.345 127.094C188.345 127.246 188.345 127.423 188.345 127.626C188.345 127.664 188.345 127.702 188.345 127.74C188.345 127.778 188.345 127.816 188.345 127.854V135.302C188.345 135.34 188.345 135.384 188.345 135.435C188.345 135.473 188.345 135.511 188.345 135.549C188.345 135.878 188.352 136.17 188.364 136.423C188.377 136.676 188.415 136.885 188.478 137.05C188.516 137.126 188.611 137.189 188.763 137.24C188.928 137.291 189.099 137.329 189.276 137.354C189.466 137.367 189.599 137.379 189.675 137.392C189.726 137.455 189.745 137.569 189.732 137.734C189.732 137.899 189.713 138.013 189.675 138.076C189.321 138.038 188.884 138.006 188.364 137.981C187.858 137.956 187.408 137.943 187.015 137.943C186.623 137.943 186.179 137.956 185.685 137.981C185.191 138.006 184.761 138.038 184.393 138.076C184.355 138.013 184.33 137.899 184.317 137.734C184.317 137.569 184.343 137.455 184.393 137.392C184.482 137.379 184.615 137.367 184.792 137.354C184.97 137.329 185.141 137.291 185.305 137.24C185.47 137.189 185.565 137.126 185.59 137.05C185.666 136.86 185.711 136.619 185.723 136.328C185.736 136.037 185.742 135.695 185.742 135.302V128.481C185.742 128.076 185.736 127.734 185.723 127.455C185.711 127.164 185.666 126.923 185.59 126.733C185.565 126.644 185.47 126.581 185.305 126.543C185.141 126.505 184.97 126.48 184.792 126.467C184.615 126.454 184.482 126.448 184.393 126.448C184.343 126.385 184.317 126.264 184.317 126.087C184.33 125.91 184.355 125.796 184.393 125.745C184.811 125.77 185.261 125.789 185.742 125.802C186.224 125.802 186.661 125.802 187.053 125.802C187.446 125.802 187.883 125.796 188.364 125.783C188.858 125.758 189.378 125.745 189.922 125.745C190.695 125.745 191.404 125.878 192.05 126.144C192.696 126.397 193.209 126.771 193.589 127.265C193.982 127.746 194.178 128.342 194.178 129.051ZM201.29 129.697C201.531 129.697 201.752 129.722 201.955 129.773C202.158 129.824 202.322 129.906 202.449 130.02C202.487 130.071 202.531 130.185 202.582 130.362C202.633 130.539 202.658 130.729 202.658 130.932C202.658 131.135 202.607 131.35 202.506 131.578C202.417 131.806 202.291 132.002 202.126 132.167C201.961 132.319 201.771 132.395 201.556 132.395C201.391 132.395 201.246 132.344 201.119 132.243C200.992 132.129 200.872 132.028 200.758 131.939C200.657 131.838 200.555 131.749 200.454 131.673C200.365 131.584 200.239 131.54 200.074 131.54C199.821 131.54 199.599 131.641 199.409 131.844C199.232 132.034 199.092 132.249 198.991 132.49C198.89 132.718 198.839 132.902 198.839 133.041V135.302C198.839 135.644 198.845 135.973 198.858 136.29C198.871 136.607 198.915 136.86 198.991 137.05C199.029 137.126 199.143 137.189 199.333 137.24C199.523 137.291 199.719 137.329 199.922 137.354C200.137 137.367 200.283 137.379 200.359 137.392C200.41 137.455 200.429 137.569 200.416 137.734C200.416 137.899 200.397 138.013 200.359 138.076C200.004 138.038 199.555 138.006 199.01 137.981C198.478 137.956 198.016 137.943 197.623 137.943C197.23 137.943 196.8 137.956 196.331 137.981C195.875 138.006 195.463 138.038 195.096 138.076C195.058 138.013 195.033 137.899 195.02 137.734C195.02 137.569 195.045 137.455 195.096 137.392C195.185 137.379 195.311 137.367 195.476 137.354C195.653 137.329 195.824 137.291 195.989 137.24C196.154 137.189 196.249 137.126 196.274 137.05C196.35 136.86 196.394 136.619 196.407 136.328C196.42 136.037 196.426 135.695 196.426 135.302V133.174C196.426 133.111 196.42 132.978 196.407 132.775C196.407 132.56 196.394 132.344 196.369 132.129C196.344 131.901 196.306 131.743 196.255 131.654C196.204 131.553 196.09 131.477 195.913 131.426C195.748 131.375 195.584 131.337 195.419 131.312C195.254 131.287 195.147 131.274 195.096 131.274C195.083 131.261 195.071 131.211 195.058 131.122C195.045 131.021 195.045 130.926 195.058 130.837C195.071 130.748 195.09 130.704 195.115 130.704C195.584 130.666 196.046 130.59 196.502 130.476C196.971 130.362 197.401 130.235 197.794 130.096C198.187 129.957 198.497 129.83 198.725 129.716C198.788 129.729 198.858 129.779 198.934 129.868C199.01 129.957 199.048 130.014 199.048 130.039C199.035 130.09 199.01 130.216 198.972 130.419C198.947 130.622 198.921 130.831 198.896 131.046C198.871 131.261 198.858 131.413 198.858 131.502C198.858 131.553 198.871 131.578 198.896 131.578C198.934 131.578 198.959 131.572 198.972 131.559C199.124 131.293 199.301 131.014 199.504 130.723C199.719 130.432 199.973 130.191 200.264 130.001C200.555 129.798 200.897 129.697 201.29 129.697ZM207.667 129.697C208.528 129.697 209.282 129.881 209.928 130.248C210.587 130.603 211.1 131.09 211.467 131.711C211.834 132.332 212.018 133.035 212.018 133.82C212.018 134.593 211.828 135.308 211.448 135.967C211.068 136.626 210.555 137.151 209.909 137.544C209.263 137.937 208.528 138.133 207.705 138.133C206.844 138.133 206.084 137.949 205.425 137.582C204.766 137.215 204.253 136.714 203.886 136.081C203.519 135.448 203.335 134.745 203.335 133.972C203.335 133.187 203.525 132.471 203.905 131.825C204.298 131.179 204.817 130.666 205.463 130.286C206.122 129.893 206.856 129.697 207.667 129.697ZM207.458 130.476C207.116 130.476 206.844 130.577 206.641 130.78C206.451 130.97 206.305 131.223 206.204 131.54C206.115 131.857 206.052 132.199 206.014 132.566C205.989 132.921 205.976 133.269 205.976 133.611C205.976 134.016 206.014 134.441 206.09 134.884C206.166 135.315 206.28 135.72 206.432 136.1C206.584 136.467 206.78 136.771 207.021 137.012C207.262 137.24 207.553 137.354 207.895 137.354C208.237 137.354 208.503 137.259 208.693 137.069C208.896 136.866 209.048 136.613 209.149 136.309C209.25 135.992 209.314 135.657 209.339 135.302C209.377 134.935 209.396 134.586 209.396 134.257C209.396 133.839 209.358 133.415 209.282 132.984C209.206 132.541 209.086 132.129 208.921 131.749C208.769 131.369 208.573 131.065 208.332 130.837C208.091 130.596 207.8 130.476 207.458 130.476ZM218.641 129.678C219.388 129.678 220.034 129.868 220.579 130.248C221.123 130.615 221.541 131.103 221.833 131.711C222.124 132.319 222.27 132.965 222.27 133.649C222.27 134.358 222.13 134.992 221.852 135.549C221.573 136.106 221.206 136.581 220.75 136.974C220.306 137.354 219.819 137.645 219.287 137.848C218.755 138.051 218.235 138.152 217.729 138.152C217.475 138.152 217.241 138.12 217.026 138.057C216.81 138.006 216.684 137.981 216.646 137.981C216.608 137.981 216.589 138.082 216.589 138.285V139.273C216.589 139.666 216.595 140.008 216.608 140.299C216.62 140.59 216.665 140.831 216.741 141.021C216.779 141.097 216.874 141.16 217.026 141.211C217.19 141.262 217.361 141.293 217.539 141.306C217.729 141.331 217.862 141.35 217.938 141.363C217.988 141.426 218.007 141.54 217.995 141.705C217.995 141.87 217.976 141.984 217.938 142.047C217.583 142.009 217.165 141.977 216.684 141.952C216.215 141.927 215.784 141.914 215.392 141.914C214.999 141.914 214.568 141.927 214.1 141.952C213.631 141.977 213.213 142.009 212.846 142.047C212.808 141.984 212.782 141.87 212.77 141.705C212.77 141.54 212.795 141.426 212.846 141.363C212.934 141.35 213.067 141.331 213.245 141.306C213.422 141.293 213.593 141.262 213.758 141.211C213.922 141.16 214.017 141.097 214.043 141.021C214.106 140.856 214.144 140.647 214.157 140.394C214.169 140.141 214.176 139.849 214.176 139.52C214.176 139.482 214.176 139.438 214.176 139.387C214.176 139.349 214.176 139.311 214.176 139.273V133.174C214.176 133.111 214.169 132.978 214.157 132.775C214.157 132.56 214.144 132.344 214.119 132.129C214.106 131.901 214.074 131.743 214.024 131.654C213.973 131.553 213.859 131.477 213.682 131.426C213.517 131.375 213.346 131.337 213.169 131.312C213.004 131.287 212.896 131.274 212.846 131.274C212.833 131.261 212.82 131.211 212.808 131.122C212.795 131.021 212.795 130.926 212.808 130.837C212.82 130.748 212.839 130.704 212.865 130.704C213.333 130.666 213.796 130.59 214.252 130.476C214.72 130.362 215.151 130.235 215.544 130.096C215.936 129.957 216.247 129.83 216.475 129.716C216.538 129.729 216.608 129.779 216.684 129.868C216.76 129.957 216.798 130.014 216.798 130.039C216.785 130.09 216.753 130.172 216.703 130.286C216.652 130.387 216.627 130.514 216.627 130.666C216.627 130.793 216.652 130.831 216.703 130.78C216.981 130.489 217.304 130.235 217.672 130.02C218.039 129.792 218.362 129.678 218.641 129.678ZM217.615 131.046C217.273 131.046 217.013 131.122 216.836 131.274C216.671 131.413 216.589 131.508 216.589 131.559V136.214C216.589 136.581 216.722 136.86 216.988 137.05C217.254 137.24 217.545 137.335 217.862 137.335C218.064 137.335 218.299 137.234 218.565 137.031C218.843 136.828 219.084 136.505 219.287 136.062C219.502 135.606 219.61 135.023 219.61 134.314C219.61 133.351 219.464 132.566 219.173 131.958C218.881 131.35 218.362 131.046 217.615 131.046ZM225.861 133.516C225.861 134.162 225.956 134.694 226.146 135.112C226.336 135.517 226.571 135.828 226.849 136.043C227.128 136.258 227.413 136.41 227.704 136.499C228.008 136.575 228.262 136.613 228.464 136.613C229.009 136.613 229.44 136.512 229.756 136.309C230.073 136.094 230.333 135.885 230.535 135.682C230.599 135.695 230.649 135.739 230.687 135.815C230.738 135.891 230.763 135.961 230.763 136.024C230.763 136.189 230.744 136.303 230.706 136.366C230.592 136.531 230.383 136.759 230.079 137.05C229.775 137.341 229.389 137.601 228.92 137.829C228.464 138.057 227.939 138.171 227.343 138.171C226.659 138.171 226.02 138.019 225.424 137.715C224.829 137.398 224.348 136.955 223.98 136.385C223.626 135.802 223.448 135.106 223.448 134.295C223.448 133.712 223.562 133.149 223.79 132.604C224.018 132.047 224.322 131.553 224.702 131.122C225.095 130.679 225.538 130.33 226.032 130.077C226.526 129.824 227.039 129.697 227.571 129.697C228.179 129.697 228.692 129.792 229.11 129.982C229.528 130.172 229.858 130.413 230.098 130.704C230.352 130.995 230.535 131.306 230.649 131.635C230.763 131.952 230.82 132.243 230.82 132.509C230.82 132.712 230.77 132.889 230.668 133.041C230.58 133.193 230.466 133.275 230.326 133.288C229.908 133.326 229.44 133.364 228.92 133.402C228.401 133.427 227.875 133.453 227.343 133.478C226.811 133.491 226.317 133.503 225.861 133.516ZM225.88 132.775C225.918 132.775 226.039 132.775 226.241 132.775C226.457 132.762 226.697 132.75 226.963 132.737C227.242 132.712 227.502 132.693 227.742 132.68C227.983 132.655 228.16 132.636 228.274 132.623C228.388 132.61 228.458 132.572 228.483 132.509C228.509 132.433 228.521 132.37 228.521 132.319C228.521 132.028 228.483 131.743 228.407 131.464C228.331 131.185 228.211 130.951 228.046 130.761C227.882 130.571 227.66 130.476 227.381 130.476C227.103 130.476 226.868 130.565 226.678 130.742C226.488 130.919 226.33 131.135 226.203 131.388C226.089 131.641 226.007 131.901 225.956 132.167C225.906 132.42 225.88 132.623 225.88 132.775ZM238.14 129.697C238.38 129.697 238.602 129.722 238.805 129.773C239.007 129.824 239.172 129.906 239.299 130.02C239.337 130.071 239.381 130.185 239.432 130.362C239.482 130.539 239.508 130.729 239.508 130.932C239.508 131.135 239.457 131.35 239.356 131.578C239.267 131.806 239.14 132.002 238.976 132.167C238.811 132.319 238.621 132.395 238.406 132.395C238.241 132.395 238.095 132.344 237.969 132.243C237.842 132.129 237.722 132.028 237.608 131.939C237.506 131.838 237.405 131.749 237.304 131.673C237.215 131.584 237.088 131.54 236.924 131.54C236.67 131.54 236.449 131.641 236.259 131.844C236.081 132.034 235.942 132.249 235.841 132.49C235.739 132.718 235.689 132.902 235.689 133.041V135.302C235.689 135.644 235.695 135.973 235.708 136.29C235.72 136.607 235.765 136.86 235.841 137.05C235.879 137.126 235.993 137.189 236.183 137.24C236.373 137.291 236.569 137.329 236.772 137.354C236.987 137.367 237.133 137.379 237.209 137.392C237.259 137.455 237.278 137.569 237.266 137.734C237.266 137.899 237.247 138.013 237.209 138.076C236.854 138.038 236.404 138.006 235.86 137.981C235.328 137.956 234.865 137.943 234.473 137.943C234.08 137.943 233.649 137.956 233.181 137.981C232.725 138.006 232.313 138.038 231.946 138.076C231.908 138.013 231.882 137.899 231.87 137.734C231.87 137.569 231.895 137.455 231.946 137.392C232.034 137.379 232.161 137.367 232.326 137.354C232.503 137.329 232.674 137.291 232.839 137.24C233.003 137.189 233.098 137.126 233.124 137.05C233.2 136.86 233.244 136.619 233.257 136.328C233.269 136.037 233.276 135.695 233.276 135.302V133.174C233.276 133.111 233.269 132.978 233.257 132.775C233.257 132.56 233.244 132.344 233.219 132.129C233.193 131.901 233.155 131.743 233.105 131.654C233.054 131.553 232.94 131.477 232.763 131.426C232.598 131.375 232.433 131.337 232.269 131.312C232.104 131.287 231.996 131.274 231.946 131.274C231.933 131.261 231.92 131.211 231.908 131.122C231.895 131.021 231.895 130.926 231.908 130.837C231.92 130.748 231.939 130.704 231.965 130.704C232.433 130.666 232.896 130.59 233.352 130.476C233.82 130.362 234.251 130.235 234.644 130.096C235.036 129.957 235.347 129.83 235.575 129.716C235.638 129.729 235.708 129.779 235.784 129.868C235.86 129.957 235.898 130.014 235.898 130.039C235.885 130.09 235.86 130.216 235.822 130.419C235.796 130.622 235.771 130.831 235.746 131.046C235.72 131.261 235.708 131.413 235.708 131.502C235.708 131.553 235.72 131.578 235.746 131.578C235.784 131.578 235.809 131.572 235.822 131.559C235.974 131.293 236.151 131.014 236.354 130.723C236.569 130.432 236.822 130.191 237.114 130.001C237.405 129.798 237.747 129.697 238.14 129.697ZM241.193 127.645C241.193 127.48 241.186 127.335 241.174 127.208C241.161 127.069 241.123 126.917 241.06 126.752C241.034 126.676 240.946 126.613 240.794 126.562C240.642 126.511 240.483 126.48 240.319 126.467C240.154 126.442 240.034 126.429 239.958 126.429C239.92 126.429 239.894 126.34 239.882 126.163C239.882 125.973 239.907 125.859 239.958 125.821C240.654 125.758 241.262 125.669 241.782 125.555C242.314 125.441 242.732 125.34 243.036 125.251C243.352 125.15 243.517 125.099 243.53 125.099C243.593 125.112 243.65 125.156 243.701 125.232C243.764 125.308 243.802 125.371 243.815 125.422C243.815 125.422 243.796 125.53 243.758 125.745C243.732 125.96 243.701 126.214 243.663 126.505C243.625 126.796 243.606 127.069 243.606 127.322V135.302C243.606 135.695 243.612 136.037 243.625 136.328C243.637 136.619 243.682 136.86 243.758 137.05C243.796 137.126 243.891 137.189 244.043 137.24C244.207 137.291 244.378 137.329 244.556 137.354C244.746 137.367 244.879 137.379 244.955 137.392C245.005 137.455 245.024 137.569 245.012 137.734C245.012 137.899 244.993 138.013 244.955 138.076C244.6 138.038 244.182 138.006 243.701 137.981C243.232 137.956 242.801 137.943 242.409 137.943C242.016 137.943 241.585 137.956 241.117 137.981C240.648 138.006 240.23 138.038 239.863 138.076C239.825 138.013 239.799 137.899 239.787 137.734C239.787 137.569 239.812 137.455 239.863 137.392C239.951 137.379 240.084 137.367 240.262 137.354C240.439 137.329 240.61 137.291 240.775 137.24C240.939 137.189 241.034 137.126 241.06 137.05C241.123 136.885 241.161 136.676 241.174 136.423C241.186 136.17 241.193 135.878 241.193 135.549C241.193 135.511 241.193 135.473 241.193 135.435C241.193 135.384 241.193 135.34 241.193 135.302V127.645ZM247.503 129.906C247.896 129.906 248.326 129.893 248.795 129.868C249.264 129.83 249.612 129.798 249.84 129.773C249.891 129.824 249.916 129.938 249.916 130.115C249.916 130.292 249.891 130.413 249.84 130.476C249.764 130.476 249.637 130.495 249.46 130.533C249.283 130.571 249.118 130.628 248.966 130.704C248.814 130.767 248.738 130.856 248.738 130.97C248.738 130.995 248.738 131.04 248.738 131.103C248.751 131.154 248.763 131.204 248.776 131.255C248.941 131.572 249.131 131.939 249.346 132.357C249.561 132.775 249.77 133.18 249.973 133.573C250.188 133.953 250.359 134.27 250.486 134.523C250.625 134.776 250.695 134.903 250.695 134.903C250.695 134.903 250.739 134.802 250.828 134.599C250.929 134.384 251.05 134.118 251.189 133.801C251.341 133.472 251.499 133.117 251.664 132.737C251.841 132.357 252.006 131.996 252.158 131.654C252.209 131.553 252.253 131.439 252.291 131.312C252.329 131.185 252.348 131.071 252.348 130.97C252.348 130.818 252.247 130.71 252.044 130.647C251.854 130.571 251.651 130.527 251.436 130.514C251.221 130.489 251.088 130.476 251.037 130.476C250.986 130.425 250.961 130.311 250.961 130.134C250.961 129.957 250.98 129.836 251.018 129.773C251.297 129.811 251.601 129.843 251.93 129.868C252.272 129.893 252.62 129.906 252.975 129.906C253.368 129.906 253.748 129.887 254.115 129.849C254.495 129.811 254.755 129.786 254.894 129.773C254.932 129.824 254.951 129.938 254.951 130.115C254.964 130.292 254.945 130.413 254.894 130.476C254.818 130.476 254.672 130.489 254.457 130.514C254.254 130.539 254.045 130.596 253.83 130.685C253.627 130.774 253.482 130.907 253.393 131.084C253.393 131.084 253.323 131.23 253.184 131.521C253.057 131.8 252.88 132.18 252.652 132.661C252.424 133.13 252.177 133.649 251.911 134.219C251.645 134.789 251.373 135.365 251.094 135.948C250.815 136.518 250.562 137.05 250.334 137.544C250.055 138.139 249.808 138.659 249.593 139.102C249.39 139.558 249.093 140.027 248.7 140.508C248.219 141.116 247.775 141.521 247.37 141.724C246.977 141.939 246.635 142.047 246.344 142.047C245.951 142.047 245.647 141.939 245.432 141.724C245.217 141.521 245.109 141.3 245.109 141.059C245.109 140.844 245.147 140.666 245.223 140.527C245.299 140.388 245.4 140.274 245.527 140.185C246.021 140.185 246.445 140.147 246.8 140.071C247.167 140.008 247.49 139.875 247.769 139.672C248.06 139.469 248.333 139.159 248.586 138.741C248.763 138.462 248.884 138.241 248.947 138.076C249.01 137.924 249.105 137.709 249.232 137.43C249.08 137.126 248.877 136.721 248.624 136.214C248.371 135.695 248.098 135.15 247.807 134.58C247.528 133.997 247.262 133.453 247.009 132.946C246.756 132.427 246.547 132.002 246.382 131.673C246.23 131.344 246.154 131.179 246.154 131.179C246.078 130.989 245.951 130.843 245.774 130.742C245.609 130.641 245.451 130.571 245.299 130.533C245.147 130.495 245.046 130.476 244.995 130.476C244.944 130.4 244.925 130.28 244.938 130.115C244.938 129.938 244.957 129.824 244.995 129.773C245.16 129.786 245.394 129.805 245.698 129.83C246.002 129.855 246.319 129.874 246.648 129.887C246.977 129.9 247.262 129.906 247.503 129.906Z" fill="#BD0094"/>
<path d="M281.63 139.138C281.59 136.018 281.32 132.368 280.13 130.488C278.94 128.618 278.06 125.678 275.34 124.188C273.42 123.138 270.53 121.438 268.39 120.908C266.14 120.358 265.32 120.298 264.06 120.408C262.8 120.518 260.26 121.428 258.66 122.608C257.06 123.788 257.03 126.508 258.95 126.668C260.75 126.818 262.56 126.128 264.57 125.948C266.93 125.738 267.51 126.448 267.51 126.448C267.51 126.448 263.96 126.838 262.59 126.998C261.22 127.158 258.61 128.108 257.81 128.458C257 128.808 255.84 130.218 255.94 131.518C256.03 132.818 258.08 133.068 258.08 133.068C258.08 133.068 255.68 135.088 256.86 136.748C258.04 138.408 262.5 136.338 264.49 137.178C266.47 138.018 267.55 138.738 267.55 138.738C267.55 138.738 266.62 138.008 264.56 137.888C263.11 137.808 261.44 137.738 260.17 138.788C258.9 139.838 259.79 141.598 261.26 141.548C262.74 141.498 266.09 142.528 267.34 143.438C268.6 144.348 271.09 146.128 271.92 147.288C272.75 148.448 274.48 150.268 277.08 149.618C279.68 148.968 281.68 142.268 281.64 139.148L281.63 139.138Z" fill="#F8AA9F"/>
<path d="M272.69 133.988C272.69 133.988 269.04 130.828 266.49 130.978C263.94 131.138 257.96 132.868 257.96 132.868" stroke="#FFCFC8" stroke-miterlimit="10"/>
<path d="M272.68 128.268C272.68 128.268 269.88 125.178 266.83 126.228" stroke="#FFCFC8" stroke-miterlimit="10"/>
<path d="M272.28 140.278C272.28 140.278 269.46 138.308 265.65 137.838" stroke="#FFCFC8" stroke-miterlimit="10"/>
<path d="M97.61 139.138C97.65 136.018 97.92 132.368 99.11 130.488C100.3 128.618 101.18 125.678 103.9 124.188C105.82 123.138 108.71 121.438 110.85 120.908C113.1 120.358 113.92 120.298 115.18 120.408C116.44 120.518 118.98 121.428 120.58 122.608C122.18 123.788 122.21 126.508 120.29 126.668C118.49 126.818 116.68 126.128 114.67 125.948C112.31 125.738 111.73 126.448 111.73 126.448C111.73 126.448 115.28 126.838 116.65 126.998C118.02 127.158 120.63 128.108 121.43 128.458C122.24 128.808 123.4 130.218 123.3 131.518C123.21 132.818 121.16 133.068 121.16 133.068C121.16 133.068 123.56 135.088 122.38 136.748C121.2 138.408 116.74 136.338 114.75 137.178C112.77 138.018 111.69 138.738 111.69 138.738C111.69 138.738 112.62 138.008 114.68 137.888C116.13 137.808 117.8 137.738 119.07 138.788C120.34 139.838 119.45 141.598 117.98 141.548C116.5 141.498 113.15 142.528 111.9 143.438C110.64 144.348 108.15 146.128 107.32 147.288C106.49 148.448 104.76 150.268 102.16 149.618C99.56 148.968 97.56 142.268 97.6 139.148L97.61 139.138Z" fill="#F8AA9F"/>
<path d="M106.55 133.988C106.55 133.988 110.2 130.828 112.76 130.978C115.31 131.138 121.29 132.868 121.29 132.868" stroke="#FFCFC8" stroke-miterlimit="10"/>
<path d="M106.56 128.268C106.56 128.268 109.36 125.178 112.41 126.228" stroke="#FFCFC8" stroke-miterlimit="10"/>
<path d="M106.96 140.278C106.96 140.278 109.78 138.308 113.59 137.838" stroke="#FFCFC8" stroke-miterlimit="10"/>
</svg>
