<svg width="200" height="200" viewBox="0 0 200 200" fill="none" xmlns="http://www.w3.org/2000/svg">
<g clip-path="url(#clip0_142_17076)">
<path d="M147.28 113.656C144.633 104.017 134.085 99.1939 125.278 100.726C127.541 96.6343 126.495 91.0676 124.856 86.913C122.851 81.8191 116.465 77.841 110.494 77.5321C109.202 77.4627 107.847 77.5321 106.479 77.6708C105.558 77.7023 104.121 77.9545 103.32 78.1499C99.2537 79.0262 95.2819 80.7473 92.3693 83.1682C90.623 84.6119 88.7254 87.0013 87.4645 89.6176C83.726 88.218 79.3382 88.0919 75.7762 89.1195C67.8264 91.408 61.7679 100.215 62.9027 108.367C62.9027 108.512 62.9027 108.663 62.9153 108.808C60.7088 108.594 58.2627 108.928 56.1003 109.52C55.5455 109.653 55.2933 109.741 54.6062 109.993C53.5155 110.384 52.5257 110.838 51.7692 111.317C47.1292 114.28 43.6681 120.37 45.8116 125.924C48.5792 133.105 56.2957 134.309 63.1234 135.217C67.1266 135.747 71.1677 135.608 75.089 134.858C77.6171 136.005 80.3784 136.799 83.1145 137.329C89.9295 138.956 97.1985 139.138 104.165 139.365C109.921 139.554 115.607 138.974 121.218 137.751C125.266 138.672 129.748 138.47 133.266 137.518C140.075 135.684 147.123 129.764 147.898 122.136C148.365 118.649 148.144 116.764 147.28 113.656Z" fill="url(#paint0_radial_142_17076)"/>
<g style="mix-blend-mode:multiply" opacity="0.3">
<path d="M147.28 113.656C144.633 104.017 134.085 99.1939 125.278 100.726C127.541 96.6343 126.495 91.0676 124.856 86.913C122.851 81.8191 116.465 77.841 110.494 77.5321C109.202 77.4627 107.847 77.5321 106.479 77.6708C105.558 77.7023 104.121 77.9545 103.32 78.1499C99.2537 79.0262 95.2819 80.7473 92.3693 83.1682C90.623 84.6119 88.7254 87.0013 87.4645 89.6176C83.726 88.218 79.3382 88.0919 75.7762 89.1195C67.8264 91.408 61.7679 100.215 62.9027 108.367C62.9027 108.512 62.9027 108.663 62.9153 108.808C60.7088 108.594 58.2627 108.928 56.1003 109.52C55.5455 109.653 55.2933 109.741 54.6062 109.993C53.5155 110.384 52.5257 110.838 51.7692 111.317C47.1292 114.28 43.6681 120.37 45.8116 125.924C48.5792 133.105 56.2957 134.309 63.1234 135.217C67.1266 135.747 71.1677 135.608 75.089 134.858C77.6171 136.005 80.3784 136.799 83.1145 137.329C89.9295 138.956 97.1985 139.138 104.165 139.365C109.921 139.554 115.607 138.974 121.218 137.751C125.266 138.672 129.748 138.47 133.266 137.518C140.075 135.684 147.123 129.764 147.898 122.136C148.365 118.649 148.144 116.764 147.28 113.656ZM134.955 122.009C127.876 130.363 110.652 129.865 105.464 119.91C105.426 123.447 106.119 126.826 108.206 129.966C109.007 131.195 102.002 133.225 90.6798 131.939C84.016 131.182 65.9162 130.016 65.3236 122.791C64.6868 123.882 64.5923 125.162 64.6868 126.076C50.067 130.514 41.1274 114.097 62.4047 111.67C63.136 113.253 63.6781 115.623 65.5064 117.565C64.9012 111.607 65.8973 104.836 67.2401 102.094C73.803 88.6908 85.1256 92.1204 85.113 92.5176C85.0184 96.2561 85.7497 98.3554 87.6663 100.814C86.5693 94.3395 89.1478 90.7587 93.0817 87.6191C97.3624 84.1958 102.923 82.3234 108.445 82.8215C113.256 83.2565 118.299 85.5008 119.333 90.7397C120.626 97.2711 117.77 102.68 113.729 107.371C119.756 103.954 126.615 101.211 132.806 105.883C137.452 109.388 138.795 117.47 134.943 122.003L134.955 122.009Z" fill="url(#paint1_radial_142_17076)"/>
</g>
<g style="mix-blend-mode:multiply" opacity="0.4">
<path opacity="0.4" d="M147.28 113.656C144.633 104.017 134.085 99.1939 125.278 100.726C127.541 96.6343 126.495 91.0676 124.856 86.913C122.851 81.8191 116.465 77.841 110.494 77.5321C109.202 77.4627 107.847 77.5321 106.479 77.6708C105.558 77.7023 104.121 77.9545 103.32 78.1499C99.2537 79.0262 95.2819 80.7473 92.3693 83.1682C90.623 84.6119 88.7254 87.0013 87.4645 89.6176C83.726 88.218 79.3382 88.0919 75.7762 89.1195C67.8264 91.408 61.7679 100.215 62.9027 108.367C62.9027 108.512 62.9027 108.663 62.9153 108.808C60.7088 108.594 58.2627 108.928 56.1003 109.52C55.5455 109.653 55.2933 109.741 54.6062 109.993C53.5155 110.384 52.5257 110.838 51.7692 111.317C47.1292 114.28 43.6681 120.37 45.8116 125.924C48.5792 133.105 56.2957 134.309 63.1234 135.217C67.1266 135.747 71.1677 135.608 75.089 134.858C77.6171 136.005 80.3784 136.799 83.1145 137.329C89.9295 138.956 97.1985 139.138 104.165 139.365C109.921 139.554 115.607 138.974 121.218 137.751C125.266 138.672 129.748 138.47 133.266 137.518C140.075 135.684 147.123 129.764 147.898 122.136C148.365 118.649 148.144 116.764 147.28 113.656ZM143.233 126.738C141.335 131.252 137.042 134.568 131.683 135.602C127.043 136.497 121.849 136.888 117.341 135.129C115.569 134.435 114.044 133.42 112.688 132.096C112.405 131.825 112.077 131.523 111.774 131.201C113.004 133.679 115.103 135.431 117.631 136.579C112.871 137.329 107.998 137.537 103.238 137.417C98.2324 137.291 86.4369 137.026 79.7354 134.725C77.1128 133.969 74.5973 132.84 72.3277 131.359C69.8186 129.726 67.0573 127.488 65.3803 124.777C66.5151 128.597 69.0999 131.397 72.3656 133.414C71.8297 133.483 71.2938 133.546 70.7516 133.584C64.9958 134.019 58.3383 132.96 53.0994 130.52C46.7509 127.564 46.36 119.563 50.7605 114.822C53.4146 111.954 58.6409 110.599 63.1297 110.92C63.4197 112.83 64.0375 114.671 64.9579 116.361C64.2266 112.799 64.0438 109.004 64.8003 105.492C65.5758 100.587 68.1416 96.1363 72.3908 92.8706C73.9858 91.8556 75.7825 91.118 77.7621 90.7587C80.8954 90.1976 83.9467 90.4813 86.7017 91.5152C85.9704 93.6776 85.7939 95.8715 86.5882 97.7376C86.2415 94.7682 87.4708 91.6287 89.3054 89.2834C91.2724 86.3456 94.1598 83.8428 96.6563 82.4999C100.987 80.1673 105.955 79.2027 110.81 80.0412C117.877 81.258 120.14 83.9121 122.403 87.3606C124.938 91.2126 124.931 97.0819 123.198 101.249C120.689 102.056 118.369 103.538 116.439 105.801C118.709 104.313 121.767 103.443 124.295 103.159C127.333 102.813 130.53 102.951 133.461 103.897C137.067 105.07 141.052 107.78 142.924 111.361C143.845 113.007 146.328 120.786 143.233 126.75V126.738Z" fill="#6F8AA4"/>
</g>
<path style="mix-blend-mode:screen" d="M93.8007 86.655C86.8218 93.2367 88.4168 100.84 88.4168 100.84C90.6107 114.432 119.939 109.59 119.737 94.0311C119.541 78.4719 100.786 80.0669 93.8007 86.6487V86.655Z" fill="url(#paint2_radial_142_17076)"/>
<path style="mix-blend-mode:screen" d="M86.4305 100.966C85.1759 98.6585 84.3374 95.3046 84.9426 92.4739C77.2576 90.198 70.4489 95.2415 67.9713 101.987C64.4219 111.658 68.898 120.074 68.898 120.074C75.3537 130.275 94.4685 120.61 97.274 109.401C92.842 107.831 88.7316 105.196 86.4242 100.972L86.4305 100.966Z" fill="url(#paint3_radial_142_17076)"/>
<path style="mix-blend-mode:screen" d="M66.6981 117.547L65.2859 116.872C65.2859 116.872 63.5396 114.514 62.4174 111.671C62.4174 111.671 50.7796 112.188 50.622 119.753C50.4707 127.085 64.5609 126.121 64.5609 126.121C64.5609 126.121 70.4429 118.921 66.6981 117.547Z" fill="url(#paint4_radial_142_17076)"/>
<path style="mix-blend-mode:screen" d="M106.97 120.119C104.783 115.252 111.106 106.987 121.073 104.799C131.047 102.612 137.856 106.987 139.797 114.281C141.739 121.575 132.503 126.921 123.261 126.682C114.019 126.436 109.29 125.276 106.97 120.119Z" fill="url(#paint5_radial_142_17076)"/>
<path d="M101.459 78.6234C98.8115 68.984 88.2643 64.1612 79.4571 65.6932C81.7203 61.6016 80.6738 56.0349 79.0347 51.8803C77.0299 46.7863 70.6435 42.8083 64.6733 42.4994C63.3809 42.43 62.0255 42.4994 60.6574 42.6381C59.737 42.6696 58.2996 42.9218 57.4989 43.1172C53.4326 43.9935 49.4609 45.7146 46.5482 48.1355C44.8019 49.5792 42.9043 51.9685 41.6434 54.5848C37.9049 53.1853 33.5171 53.0592 29.9551 54.0868C22.0053 56.3753 15.9468 65.1825 17.0816 73.334C17.0816 73.479 17.0816 73.6304 17.0942 73.7754C14.8877 73.561 12.4416 73.8951 10.2792 74.4877C9.72441 74.6201 9.47224 74.7084 8.78506 74.9606C7.6944 75.3514 6.70462 75.8054 5.94809 76.2845C1.30808 79.2475 -2.15302 85.3376 -0.00953668 90.8917C2.75808 98.0724 10.4746 99.2765 17.3023 100.184C21.3055 100.714 25.3466 100.575 29.268 99.825C31.796 100.972 34.5573 101.767 37.2934 102.296C44.1084 103.923 51.3774 104.106 58.3437 104.333C64.0996 104.522 69.7861 103.942 75.397 102.719C79.4444 103.639 83.9269 103.437 87.4447 102.485C94.2534 100.651 101.302 94.7311 102.077 87.1028C102.544 83.6165 102.323 81.7315 101.459 78.6234Z" fill="url(#paint6_radial_142_17076)"/>
<g style="mix-blend-mode:multiply" opacity="0.3">
<path d="M101.459 78.6234C98.8115 68.984 88.2643 64.1612 79.4571 65.6932C81.7203 61.6016 80.6738 56.0349 79.0347 51.8803C77.0299 46.7863 70.6435 42.8083 64.6733 42.4994C63.3809 42.43 62.0255 42.4994 60.6574 42.6381C59.737 42.6696 58.2996 42.9218 57.4989 43.1172C53.4326 43.9935 49.4609 45.7146 46.5482 48.1355C44.8019 49.5792 42.9043 51.9685 41.6434 54.5848C37.9049 53.1853 33.5171 53.0592 29.9551 54.0868C22.0053 56.3753 15.9468 65.1825 17.0816 73.334C17.0816 73.479 17.0816 73.6304 17.0942 73.7754C14.8877 73.561 12.4416 73.8951 10.2792 74.4877C9.72441 74.6201 9.47224 74.7084 8.78506 74.9606C7.6944 75.3514 6.70462 75.8054 5.94809 76.2845C1.30808 79.2475 -2.15302 85.3376 -0.00953668 90.8917C2.75808 98.0724 10.4746 99.2765 17.3023 100.184C21.3055 100.714 25.3466 100.575 29.268 99.825C31.796 100.972 34.5573 101.767 37.2934 102.296C44.1084 103.923 51.3774 104.106 58.3437 104.333C64.0996 104.522 69.7861 103.942 75.397 102.719C79.4444 103.639 83.9269 103.437 87.4447 102.485C94.2534 100.651 101.302 94.7311 102.077 87.1028C102.544 83.6165 102.323 81.7315 101.459 78.6234ZM89.1343 86.9767C82.0544 95.33 64.8309 94.8319 59.6424 84.8773C59.6046 88.4141 60.2981 91.7932 62.3848 94.9328C63.1855 96.1622 56.1813 98.1922 44.8587 96.9061C38.1949 96.1496 20.0951 94.9832 19.5025 87.7584C18.8657 88.8491 18.7712 90.1289 18.8657 91.043C4.24591 95.4813 -4.69368 79.0647 16.5836 76.6375C17.3149 78.2199 17.8571 80.5904 19.6853 82.5321C19.0801 76.5745 20.0762 69.8036 21.419 67.0612C27.9819 53.6581 39.3045 57.0877 39.2919 57.4849C39.1973 61.2234 39.9287 63.3227 41.8452 65.7814C40.7482 59.3068 43.3267 55.7259 47.2606 52.5864C51.5413 49.1631 57.1018 47.2907 62.6244 47.7887C67.4346 48.2237 72.4781 50.4681 73.512 55.707C74.8044 62.2384 71.9485 67.6475 67.9074 72.338C73.9344 68.921 80.7936 66.1786 86.9845 70.8501C91.6308 74.3554 92.9736 82.4376 89.1216 86.9704L89.1343 86.9767Z" fill="url(#paint7_radial_142_17076)"/>
</g>
<g style="mix-blend-mode:multiply" opacity="0.4">
<path opacity="0.4" d="M101.459 78.6234C98.8115 68.984 88.2643 64.1612 79.4571 65.6932C81.7203 61.6016 80.6738 56.0349 79.0347 51.8803C77.0299 46.7863 70.6435 42.8083 64.6733 42.4994C63.3809 42.43 62.0255 42.4994 60.6574 42.6381C59.737 42.6696 58.2996 42.9218 57.4989 43.1172C53.4326 43.9935 49.4609 45.7146 46.5482 48.1355C44.8019 49.5792 42.9043 51.9685 41.6434 54.5848C37.9049 53.1853 33.5171 53.0592 29.9551 54.0868C22.0053 56.3753 15.9468 65.1825 17.0816 73.334C17.0816 73.479 17.0816 73.6304 17.0942 73.7754C14.8877 73.561 12.4416 73.8951 10.2792 74.4877C9.72441 74.6201 9.47224 74.7084 8.78506 74.9606C7.6944 75.3514 6.70462 75.8054 5.94809 76.2845C1.30808 79.2475 -2.15302 85.3376 -0.00953668 90.8917C2.75808 98.0724 10.4746 99.2765 17.3023 100.184C21.3055 100.714 25.3466 100.575 29.268 99.825C31.796 100.972 34.5573 101.767 37.2934 102.296C44.1084 103.923 51.3774 104.106 58.3437 104.333C64.0996 104.522 69.7861 103.942 75.397 102.719C79.4444 103.639 83.9269 103.437 87.4447 102.485C94.2534 100.651 101.302 94.7311 102.077 87.1028C102.544 83.6165 102.323 81.7315 101.459 78.6234ZM97.4119 91.705C95.5143 96.2189 91.221 99.535 85.8623 100.569C81.2223 101.464 76.0275 101.855 71.5198 100.096C69.7483 99.4026 68.2227 98.3876 66.8672 97.0637C66.5835 96.7926 66.2557 96.49 65.9531 96.1685C67.1824 98.6461 69.2818 100.399 71.8099 101.546C67.0501 102.296 62.1768 102.504 57.417 102.385C52.4113 102.258 40.6158 101.994 33.9143 99.6926C31.2917 98.9361 28.7762 97.8076 26.5066 96.3261C23.9975 94.6932 21.2362 92.4552 19.5592 89.7443C20.694 93.5648 23.2788 96.3639 26.5445 98.3813C26.0086 98.4507 25.4727 98.5137 24.9306 98.5515C19.1747 98.9865 12.5172 97.9274 7.27832 95.4876C0.929816 92.5308 0.538945 84.5306 4.9394 79.7897C7.59354 76.9212 12.8199 75.5658 17.3086 75.8873C17.5986 77.7975 18.2164 79.6384 19.1368 81.328C18.4055 77.766 18.2227 73.9708 18.9792 70.4593C19.7547 65.5545 22.3205 61.1036 26.5697 57.8379C28.1647 56.8229 29.9614 56.0853 31.941 55.7259C35.0743 55.1649 38.1256 55.4485 40.8806 56.4825C40.1493 58.6449 39.9728 60.8388 40.7671 62.7049C40.4204 59.7355 41.6497 56.5959 43.4843 54.2507C45.4513 51.3129 48.3387 48.81 50.8352 47.4672C55.1663 45.1346 60.1342 44.17 64.9885 45.0085C72.0557 46.2253 74.319 48.8794 76.5823 52.3279C79.1166 56.1799 79.1103 62.0492 77.3766 66.2164C74.8675 67.0234 72.5475 68.5049 70.6183 70.7682C72.8879 69.2803 75.9455 68.4103 78.4736 68.1266C81.5123 67.7799 84.7086 67.9186 87.6401 68.8642C91.2462 70.0369 95.2306 72.7477 97.103 76.3286C98.0234 77.9741 100.507 85.7537 97.4119 91.7176V91.705Z" fill="#6F8AA4"/>
</g>
<path style="mix-blend-mode:screen" d="M47.9797 51.6218C41.0008 58.2035 42.5958 65.8066 42.5958 65.8066C44.7897 79.3988 74.1177 74.5571 73.9159 58.9979C73.7205 43.4387 54.965 45.0337 47.9797 51.6155V51.6218Z" fill="url(#paint8_radial_142_17076)"/>
<path style="mix-blend-mode:screen" d="M40.6095 65.9327C39.3549 63.6253 38.5164 60.2714 39.1216 57.4407C31.4366 55.1648 24.6279 60.2083 22.1503 66.954C18.6009 76.6249 23.077 85.0413 23.077 85.0413C29.5327 95.2417 48.6475 85.5771 51.453 74.368C47.021 72.7982 42.9106 70.1629 40.6032 65.939L40.6095 65.9327Z" fill="url(#paint9_radial_142_17076)"/>
<path style="mix-blend-mode:screen" d="M20.8769 82.5139L19.4647 81.8393C19.4647 81.8393 17.7184 79.4815 16.5962 76.6382C16.5962 76.6382 4.95836 77.1551 4.80076 84.7204C4.64945 92.0524 18.7397 91.0878 18.7397 91.0878C18.7397 91.0878 24.6217 83.8882 20.8769 82.5139Z" fill="url(#paint10_radial_142_17076)"/>
<path style="mix-blend-mode:screen" d="M61.1494 85.0859C58.9618 80.2189 65.2851 71.9539 75.2523 69.7662C85.2258 67.5786 92.0345 71.9539 93.9763 79.248C95.918 86.5422 86.6821 91.8883 77.4399 91.6487C68.1977 91.4028 63.4694 90.2428 61.1494 85.0859Z" fill="url(#paint11_radial_142_17076)"/>
<path d="M199.143 132.009C196.495 122.369 185.948 117.546 177.141 119.078C179.404 114.987 178.357 109.42 176.718 105.266C174.714 100.172 168.327 96.1935 162.357 95.8846C161.065 95.8153 159.709 95.8846 158.341 96.0233C157.421 96.0548 155.983 96.307 155.183 96.5025C151.116 97.3788 147.144 99.0999 144.232 101.521C142.486 102.964 140.588 105.354 139.327 107.97C135.589 106.571 131.201 106.444 127.639 107.472C119.689 109.761 113.63 118.568 114.765 126.719C114.765 126.864 114.765 127.016 114.778 127.161C112.571 126.946 110.125 127.28 107.963 127.873C107.408 128.005 107.156 128.094 106.469 128.346C105.378 128.737 104.388 129.191 103.632 129.67C98.9917 132.633 95.5306 138.723 97.6741 144.277C100.442 151.458 108.158 152.662 114.986 153.57C118.989 154.099 123.03 153.96 126.952 153.21C129.48 154.358 132.241 155.152 134.977 155.682C141.792 157.308 149.061 157.491 156.027 157.718C161.783 157.907 167.47 157.327 173.081 156.104C177.128 157.024 181.61 156.823 185.128 155.871C191.937 154.036 198.985 148.116 199.761 140.488C200.227 137.002 200.007 135.117 199.143 132.009Z" fill="url(#paint12_radial_142_17076)"/>
<g style="mix-blend-mode:multiply" opacity="0.3">
<path d="M199.143 132.009C196.495 122.369 185.948 117.546 177.141 119.078C179.404 114.987 178.357 109.42 176.718 105.266C174.714 100.172 168.327 96.1935 162.357 95.8846C161.065 95.8153 159.709 95.8846 158.341 96.0233C157.421 96.0548 155.983 96.307 155.183 96.5025C151.116 97.3788 147.144 99.0999 144.232 101.521C142.486 102.964 140.588 105.354 139.327 107.97C135.589 106.571 131.201 106.444 127.639 107.472C119.689 109.761 113.63 118.568 114.765 126.719C114.765 126.864 114.765 127.016 114.778 127.161C112.571 126.946 110.125 127.28 107.963 127.873C107.408 128.005 107.156 128.094 106.469 128.346C105.378 128.737 104.388 129.191 103.632 129.67C98.9917 132.633 95.5306 138.723 97.6741 144.277C100.442 151.458 108.158 152.662 114.986 153.57C118.989 154.099 123.03 153.96 126.952 153.21C129.48 154.358 132.241 155.152 134.977 155.682C141.792 157.308 149.061 157.491 156.027 157.718C161.783 157.907 167.47 157.327 173.081 156.104C177.128 157.024 181.61 156.823 185.128 155.871C191.937 154.036 198.985 148.116 199.761 140.488C200.227 137.002 200.007 135.117 199.143 132.009ZM186.818 140.362C179.738 148.715 162.515 148.217 157.326 138.263C157.288 141.799 157.982 145.178 160.068 148.318C160.869 149.547 153.865 151.577 142.542 150.291C135.879 149.535 117.779 148.369 117.186 141.144C116.549 142.234 116.455 143.514 116.549 144.428C101.93 148.867 92.99 132.45 114.267 130.023C114.999 131.605 115.541 133.976 117.369 135.917C116.764 129.96 117.76 123.189 119.103 120.446C125.666 107.043 136.988 110.473 136.976 110.87C136.881 114.609 137.612 116.708 139.529 119.167C138.432 112.692 141.01 109.111 144.944 105.972C149.225 102.548 154.785 100.676 160.308 101.174C165.118 101.609 170.162 103.853 171.196 109.092C172.488 115.624 169.632 121.033 165.591 125.723C171.618 122.306 178.477 119.564 184.668 124.235C189.314 127.741 190.657 135.823 186.805 140.356L186.818 140.362Z" fill="url(#paint13_radial_142_17076)"/>
</g>
<g style="mix-blend-mode:multiply" opacity="0.4">
<path opacity="0.4" d="M199.143 132.009C196.495 122.369 185.948 117.546 177.141 119.078C179.404 114.987 178.357 109.42 176.718 105.266C174.714 100.172 168.327 96.1935 162.357 95.8846C161.065 95.8153 159.709 95.8846 158.341 96.0233C157.421 96.0548 155.983 96.307 155.183 96.5025C151.116 97.3788 147.144 99.0999 144.232 101.521C142.486 102.964 140.588 105.354 139.327 107.97C135.589 106.571 131.201 106.444 127.639 107.472C119.689 109.761 113.63 118.568 114.765 126.719C114.765 126.864 114.765 127.016 114.778 127.161C112.571 126.946 110.125 127.28 107.963 127.873C107.408 128.005 107.156 128.094 106.469 128.346C105.378 128.737 104.388 129.191 103.632 129.67C98.9917 132.633 95.5306 138.723 97.6741 144.277C100.442 151.458 108.158 152.662 114.986 153.57C118.989 154.099 123.03 153.96 126.952 153.21C129.48 154.358 132.241 155.152 134.977 155.682C141.792 157.308 149.061 157.491 156.027 157.718C161.783 157.907 167.47 157.327 173.081 156.104C177.128 157.024 181.61 156.823 185.128 155.871C191.937 154.036 198.985 148.116 199.761 140.488C200.227 137.002 200.007 135.117 199.143 132.009ZM195.096 145.09C193.198 149.604 188.905 152.92 183.546 153.954C178.906 154.849 173.711 155.24 169.203 153.481C167.432 152.788 165.906 151.773 164.551 150.449C164.267 150.178 163.939 149.875 163.637 149.554C164.866 152.031 166.965 153.784 169.493 154.931C164.734 155.682 159.86 155.89 155.101 155.77C150.095 155.644 138.299 155.379 131.598 153.078C128.975 152.321 126.46 151.193 124.19 149.711C121.681 148.079 118.92 145.84 117.243 143.13C118.378 146.95 120.962 149.749 124.228 151.767C123.692 151.836 123.156 151.899 122.614 151.937C116.858 152.372 110.201 151.313 104.962 148.873C98.6135 145.916 98.2226 137.916 102.623 133.175C105.277 130.306 110.503 128.951 114.992 129.273C115.282 131.183 115.9 133.024 116.82 134.713C116.089 131.151 115.906 127.356 116.663 123.845C117.438 118.94 120.004 114.489 124.253 111.223C125.848 110.208 127.645 109.471 129.625 109.111C132.758 108.55 135.809 108.834 138.564 109.868C137.833 112.03 137.656 114.224 138.451 116.09C138.104 113.121 139.333 109.981 141.168 107.636C143.135 104.698 146.022 102.195 148.519 100.852C152.85 98.5199 157.818 97.5553 162.672 98.3938C169.739 99.6105 172.003 102.265 174.266 105.713C176.8 109.565 176.794 115.434 175.06 119.602C172.551 120.409 170.231 121.89 168.302 124.153C170.572 122.666 173.629 121.796 176.157 121.512C179.196 121.165 182.392 121.304 185.324 122.25C188.93 123.422 192.914 126.133 194.787 129.714C195.707 131.359 198.191 139.139 195.096 145.103V145.09Z" fill="#6F8AA4"/>
</g>
<path style="mix-blend-mode:screen" d="M145.663 105.007C138.684 111.589 140.279 119.192 140.279 119.192C142.473 132.784 171.801 127.942 171.599 112.383C171.404 96.8239 152.648 98.419 145.663 105.001V105.007Z" fill="url(#paint14_radial_142_17076)"/>
<path style="mix-blend-mode:screen" d="M138.293 119.318C137.038 117.011 136.2 113.657 136.805 110.826C129.12 108.551 122.311 113.594 119.834 120.34C116.284 130.011 120.76 138.427 120.76 138.427C127.216 148.627 146.331 138.963 149.136 127.754C144.704 126.184 140.594 123.549 138.287 119.325L138.293 119.318Z" fill="url(#paint15_radial_142_17076)"/>
<path style="mix-blend-mode:screen" d="M118.561 135.899L117.148 135.225C117.148 135.225 115.402 132.867 114.28 130.023C114.28 130.023 102.642 130.54 102.484 138.106C102.333 145.438 116.423 144.473 116.423 144.473C116.423 144.473 122.305 137.273 118.561 135.899Z" fill="url(#paint16_radial_142_17076)"/>
<path style="mix-blend-mode:screen" d="M158.833 138.471C156.645 133.604 162.969 125.339 172.936 123.151C182.909 120.964 189.718 125.339 191.66 132.633C193.601 139.927 184.366 145.274 175.123 145.034C165.881 144.788 161.153 143.628 158.833 138.471Z" fill="url(#paint17_radial_142_17076)"/>
</g>
<defs>
<radialGradient id="paint0_radial_142_17076" cx="0" cy="0" r="1" gradientUnits="userSpaceOnUse" gradientTransform="translate(100.773 7.41488) scale(132.278 132.278)">
<stop offset="0.16" stop-color="#BCBCBC"/>
<stop offset="0.69" stop-color="#92BAC0"/>
<stop offset="1" stop-color="#549CC6"/>
</radialGradient>
<radialGradient id="paint1_radial_142_17076" cx="0" cy="0" r="1" gradientUnits="userSpaceOnUse" gradientTransform="translate(100.773 7.41488) scale(132.278 132.278)">
<stop offset="0.39" stop-color="#92BAC0"/>
<stop offset="1" stop-color="#549CC6"/>
</radialGradient>
<radialGradient id="paint2_radial_142_17076" cx="0" cy="0" r="1" gradientUnits="userSpaceOnUse" gradientTransform="translate(104.134 63.9655) scale(40.8775)">
<stop offset="0.52" stop-color="#BCBCBC"/>
<stop offset="0.7" stop-color="#92BAC0"/>
<stop offset="0.99" stop-color="#549CC6"/>
</radialGradient>
<radialGradient id="paint3_radial_142_17076" cx="0" cy="0" r="1" gradientUnits="userSpaceOnUse" gradientTransform="translate(67.675 93.7537) scale(29.309 29.309)">
<stop offset="0.15" stop-color="#BCBCBC"/>
<stop offset="0.46" stop-color="#92BAC0"/>
<stop offset="0.99" stop-color="#549CC6"/>
</radialGradient>
<radialGradient id="paint4_radial_142_17076" cx="0" cy="0" r="1" gradientUnits="userSpaceOnUse" gradientTransform="translate(45.528 107.8) scale(21.5168 21.5168)">
<stop offset="0.15" stop-color="#BCBCBC"/>
<stop offset="0.46" stop-color="#92BAC0"/>
<stop offset="0.99" stop-color="#549CC6"/>
</radialGradient>
<radialGradient id="paint5_radial_142_17076" cx="0" cy="0" r="1" gradientUnits="userSpaceOnUse" gradientTransform="translate(127.964 74.425) scale(47.1567 47.1567)">
<stop offset="0.55" stop-color="#BCBCBC"/>
<stop offset="0.74" stop-color="#92BAC0"/>
<stop offset="0.99" stop-color="#549CC6"/>
</radialGradient>
<radialGradient id="paint6_radial_142_17076" cx="0" cy="0" r="1" gradientUnits="userSpaceOnUse" gradientTransform="translate(54.952 -27.6178) scale(132.278 132.278)">
<stop offset="0.16" stop-color="#BCBCBC"/>
<stop offset="0.69" stop-color="#92BAC0"/>
<stop offset="1" stop-color="#549CC6"/>
</radialGradient>
<radialGradient id="paint7_radial_142_17076" cx="0" cy="0" r="1" gradientUnits="userSpaceOnUse" gradientTransform="translate(54.952 -27.6178) scale(132.278 132.278)">
<stop offset="0.39" stop-color="#92BAC0"/>
<stop offset="1" stop-color="#549CC6"/>
</radialGradient>
<radialGradient id="paint8_radial_142_17076" cx="0" cy="0" r="1" gradientUnits="userSpaceOnUse" gradientTransform="translate(58.3126 28.9323) scale(40.8775)">
<stop offset="0.52" stop-color="#BCBCBC"/>
<stop offset="0.7" stop-color="#92BAC0"/>
<stop offset="0.99" stop-color="#549CC6"/>
</radialGradient>
<radialGradient id="paint9_radial_142_17076" cx="0" cy="0" r="1" gradientUnits="userSpaceOnUse" gradientTransform="translate(21.854 58.7205) scale(29.309 29.309)">
<stop offset="0.15" stop-color="#BCBCBC"/>
<stop offset="0.46" stop-color="#92BAC0"/>
<stop offset="0.99" stop-color="#549CC6"/>
</radialGradient>
<radialGradient id="paint10_radial_142_17076" cx="0" cy="0" r="1" gradientUnits="userSpaceOnUse" gradientTransform="translate(-0.293175 72.7673) scale(21.5168 21.5168)">
<stop offset="0.15" stop-color="#BCBCBC"/>
<stop offset="0.46" stop-color="#92BAC0"/>
<stop offset="0.99" stop-color="#549CC6"/>
</radialGradient>
<radialGradient id="paint11_radial_142_17076" cx="0" cy="0" r="1" gradientUnits="userSpaceOnUse" gradientTransform="translate(82.143 39.3918) scale(47.1567 47.1567)">
<stop offset="0.55" stop-color="#BCBCBC"/>
<stop offset="0.74" stop-color="#92BAC0"/>
<stop offset="0.99" stop-color="#549CC6"/>
</radialGradient>
<radialGradient id="paint12_radial_142_17076" cx="0" cy="0" r="1" gradientUnits="userSpaceOnUse" gradientTransform="translate(152.636 25.7674) scale(132.278 132.278)">
<stop offset="0.16" stop-color="#BCBCBC"/>
<stop offset="0.69" stop-color="#92BAC0"/>
<stop offset="1" stop-color="#549CC6"/>
</radialGradient>
<radialGradient id="paint13_radial_142_17076" cx="0" cy="0" r="1" gradientUnits="userSpaceOnUse" gradientTransform="translate(152.636 25.7674) scale(132.278 132.278)">
<stop offset="0.39" stop-color="#92BAC0"/>
<stop offset="1" stop-color="#549CC6"/>
</radialGradient>
<radialGradient id="paint14_radial_142_17076" cx="0" cy="0" r="1" gradientUnits="userSpaceOnUse" gradientTransform="translate(155.996 82.3176) scale(40.8775)">
<stop offset="0.52" stop-color="#BCBCBC"/>
<stop offset="0.7" stop-color="#92BAC0"/>
<stop offset="0.99" stop-color="#549CC6"/>
</radialGradient>
<radialGradient id="paint15_radial_142_17076" cx="0" cy="0" r="1" gradientUnits="userSpaceOnUse" gradientTransform="translate(119.537 112.106) scale(29.309 29.309)">
<stop offset="0.15" stop-color="#BCBCBC"/>
<stop offset="0.46" stop-color="#92BAC0"/>
<stop offset="0.99" stop-color="#549CC6"/>
</radialGradient>
<radialGradient id="paint16_radial_142_17076" cx="0" cy="0" r="1" gradientUnits="userSpaceOnUse" gradientTransform="translate(97.3905 126.153) scale(21.5168 21.5168)">
<stop offset="0.15" stop-color="#BCBCBC"/>
<stop offset="0.46" stop-color="#92BAC0"/>
<stop offset="0.99" stop-color="#549CC6"/>
</radialGradient>
<radialGradient id="paint17_radial_142_17076" cx="0" cy="0" r="1" gradientUnits="userSpaceOnUse" gradientTransform="translate(179.826 92.777) scale(47.1567 47.1567)">
<stop offset="0.55" stop-color="#BCBCBC"/>
<stop offset="0.74" stop-color="#92BAC0"/>
<stop offset="0.99" stop-color="#549CC6"/>
</radialGradient>
<clipPath id="clip0_142_17076">
<rect width="200" height="200" fill="white"/>
</clipPath>
</defs>
</svg>
