<svg width="200" height="200" viewBox="0 0 200 200" fill="none" xmlns="http://www.w3.org/2000/svg">
<g clip-path="url(#clip0_142_16984)">
<path d="M99.1325 39.3799C63.7312 39.3799 35.0312 68.0798 35.0312 103.481C35.0312 138.883 63.7312 167.583 99.1325 167.583C134.534 167.583 163.234 138.883 163.234 103.481C163.234 68.0798 134.534 39.3799 99.1325 39.3799Z" fill="url(#paint0_radial_142_16984)"/>
<path d="M99.1326 39.3799C63.7312 39.3799 35.0312 68.0798 35.0312 103.481C35.0312 138.883 63.7312 167.583 99.1326 167.583C134.534 167.583 163.234 138.883 163.234 103.481C163.234 68.0798 134.534 39.3799 99.1326 39.3799ZM96.8716 163.336C63.8127 163.336 37.0172 136.53 37.0172 103.481C37.0172 70.4325 63.8229 43.6268 96.8716 43.6268C129.92 43.6268 156.726 70.4325 156.726 103.481C156.726 136.53 129.92 163.336 96.8716 163.336Z" fill="#FF8A00"/>
<path d="M106.099 18.1758C106.099 21.7709 103.41 24.6837 100.09 24.6837C96.7698 24.6837 94.0811 21.7709 94.0811 18.1758V6.69785C94.0811 3.10271 96.7698 0.189941 100.09 0.189941C103.41 0.189941 106.099 3.10271 106.099 6.69785V18.1758Z" fill="#FF8A00"/>
<path d="M106.099 193.502C106.099 197.097 103.41 200 100.09 200C96.7698 200 94.0811 197.087 94.0811 193.502V182.024C94.0811 178.429 96.7698 175.516 100.09 175.516C103.41 175.516 106.099 178.429 106.099 182.024V193.502Z" fill="#FF8A00"/>
<path d="M182.024 106.109C178.429 106.109 175.516 103.42 175.516 100.1C175.516 96.78 178.429 94.0913 182.024 94.0913H193.502C197.097 94.0913 200 96.78 200 100.1C200 103.42 197.087 106.109 193.502 106.109H182.024Z" fill="#FF8A00"/>
<path d="M6.69797 106.109C3.10283 106.109 0.190063 103.42 0.190063 100.1C0.190063 96.78 3.10283 94.0913 6.69797 94.0913H18.1759C21.771 94.0913 24.6838 96.78 24.6838 100.1C24.6838 103.42 21.771 106.109 18.1759 106.109H6.69797Z" fill="#FF8A00"/>
<path d="M162.277 46.4174C159.741 48.9533 155.779 49.1163 153.437 46.7637C151.094 44.4212 151.247 40.4595 153.783 37.9235L161.9 29.8065C164.446 27.2603 168.408 27.1076 170.75 29.45C173.093 31.7924 172.94 35.7542 170.394 38.3003L162.277 46.4174Z" fill="#FF8A00"/>
<path d="M38.3006 170.393C35.7545 172.94 31.8029 173.092 29.4503 170.75C27.0976 168.407 27.2606 164.446 29.7965 161.9L37.9136 153.783C40.4597 151.236 44.4215 151.084 46.7639 153.426C49.1064 155.779 48.9536 159.73 46.4075 162.276L38.3006 170.383V170.393Z" fill="#FF8A00"/>
<path d="M153.783 162.287C151.237 159.741 151.084 155.779 153.436 153.437C155.779 151.094 159.741 151.247 162.277 153.793L170.394 161.91C172.93 164.456 173.093 168.418 170.75 170.761C168.408 173.113 164.446 172.95 161.9 170.404L153.783 162.297V162.287Z" fill="#FF8A00"/>
<path d="M29.8067 38.3003C27.2708 35.7644 27.1078 31.8026 29.4605 29.45C31.8029 27.1076 35.7647 27.2603 38.3006 29.8065L46.4177 37.9235C48.9638 40.4696 49.1166 44.4212 46.7741 46.7637C44.4317 49.1163 40.4699 48.9533 37.9238 46.4174L29.8067 38.3003Z" fill="#FF8A00"/>
<path d="M58.0787 58.7813C69.8928 46.6923 100.456 38.4937 122.088 50.6642C143.73 62.8347 136.51 85.8212 101.801 84.4768C67.092 83.1325 46.1221 95.7409 43.4232 106.567C40.7141 117.383 28.7779 88.7645 58.0787 58.7813Z" fill="url(#paint1_radial_142_16984)"/>
</g>
<defs>
<radialGradient id="paint0_radial_142_16984" cx="0" cy="0" r="1" gradientUnits="userSpaceOnUse" gradientTransform="translate(97.778 100.1) scale(71.424 71.424)">
<stop offset="0.14" stop-color="#FFF75D"/>
<stop offset="0.53" stop-color="#FFDE00"/>
<stop offset="0.92" stop-color="#FF7D00"/>
</radialGradient>
<radialGradient id="paint1_radial_142_16984" cx="0" cy="0" r="1" gradientUnits="userSpaceOnUse" gradientTransform="translate(84.6705 50.4402) scale(66.678 66.678)">
<stop offset="0.26" stop-color="white"/>
<stop offset="0.73" stop-color="#FFF75D"/>
<stop offset="0.97" stop-color="#FFDE00"/>
</radialGradient>
<clipPath id="clip0_142_16984">
<rect width="200" height="200" fill="white"/>
</clipPath>
</defs>
</svg>
