<svg width="200" height="200" viewBox="0 0 200 200" fill="none" xmlns="http://www.w3.org/2000/svg">
<g clip-path="url(#clip0_142_17470)">
<path d="M154.646 99.4191C153.944 98.9251 152.972 99.1004 152.478 99.8016L148.447 105.546H141.738L147.69 97.0526C148.184 96.3515 148.016 95.3794 147.307 94.8934C146.606 94.3994 145.634 94.5746 145.148 95.2758L137.945 105.546H132.105L140.853 93.0767C141.347 92.3755 141.18 91.4114 140.471 90.9174C139.77 90.4234 138.805 90.5987 138.311 91.2999L129.515 103.833L108.137 66.7987L124.081 66.4481C124.941 66.4322 125.619 65.7151 125.603 64.8625C125.579 64.0099 124.894 63.3008 124.017 63.3406L108.113 63.6912L111.077 58.6476L124.089 58.3607C124.949 58.3368 125.627 57.6277 125.611 56.7672C125.595 55.9146 124.846 55.2134 124.025 55.2533L112.934 55.5003L116.711 49.0782L124.017 49.4686C124.017 49.4686 124.073 49.4686 124.105 49.4686C124.925 49.4686 125.611 48.8312 125.651 47.9946C125.698 47.142 125.045 46.4089 124.184 46.3611L117.005 45.9787L114.456 40.0267C114.121 39.2379 113.205 38.8714 112.416 39.214C111.627 39.5486 111.261 40.4649 111.595 41.2537L114.185 47.3173C114.137 47.381 114.065 47.4288 114.025 47.5005L110.703 53.1418L106.743 43.8831C106.408 43.0943 105.492 42.7278 104.703 43.0624C103.914 43.3971 103.548 44.3134 103.89 45.0943L108.751 56.4564L105.739 61.5797L99.755 47.5962C99.4204 46.8073 98.5041 46.4408 97.7153 46.7755C96.9344 47.1181 96.5599 48.0264 96.8946 48.8073L103.046 63.1972H59.0871L65.2383 48.8073C65.5729 48.0264 65.2064 47.1101 64.4255 46.7755C63.6367 46.4329 62.7204 46.8073 62.3858 47.5962L56.0752 62.3526L53.0713 57.2213L58.2505 45.1022C58.5851 44.3134 58.2266 43.4051 57.4377 43.0704C56.6569 42.7278 55.7326 43.0943 55.398 43.8911L51.1192 53.8908L47.6612 47.9946L50.5376 41.2617C50.8802 40.4729 50.5057 39.5566 49.7248 39.2219C48.936 38.8793 48.0277 39.2538 47.6851 40.0347L45.1433 45.9867L37.9643 46.3691C37.1038 46.4169 36.4504 47.142 36.4982 48.0025C36.538 48.8312 37.2312 49.4766 38.044 49.4766C38.0679 49.4766 38.0997 49.4766 38.1316 49.4766L44.729 49.126L48.45 55.4843L38.1316 55.2533C37.2631 55.2134 36.562 55.9146 36.546 56.7672C36.5301 57.6197 37.2073 58.3289 38.0679 58.3607L50.2985 58.6237L53.2466 63.6673L38.1396 63.3327C37.2153 63.2849 36.5699 64.002 36.554 64.8545C36.538 65.7071 37.2153 66.4242 38.0758 66.4401L53.3423 66.7748L31.0482 105.395L21.3115 91.4592C20.8254 90.758 19.8534 90.5907 19.1522 91.0768C18.451 91.5708 18.2757 92.5349 18.7697 93.236L27.3591 105.546H21.5266L14.4591 95.4272C13.9651 94.726 13.001 94.5507 12.2919 95.0448C11.5907 95.5308 11.4234 96.5029 11.9094 97.204L17.7339 105.546H11.025L7.10478 99.937C6.61874 99.2358 5.64666 99.0606 4.94549 99.5466C4.24432 100.041 4.06903 101.005 4.55507 101.706L8.26012 107.012L4.7941 113.315C4.37978 114.064 4.65068 115.012 5.40763 115.427C5.64667 115.554 5.90164 115.618 6.15661 115.618C6.70639 115.618 7.24024 115.331 7.51114 114.813L10.9055 108.654H18.443L12.4114 117.881C11.9492 118.598 12.1484 119.562 12.8655 120.032C13.1285 120.199 13.4233 120.287 13.7101 120.287C14.2121 120.287 14.7141 120.04 15.0169 119.578L22.1561 108.662H28.1001L19.2797 122.159C18.8096 122.876 19.0167 123.841 19.7259 124.311C19.9888 124.478 20.2836 124.558 20.5784 124.558C21.0884 124.558 21.5824 124.311 21.8772 123.857L31.351 109.363L53.0953 147.027L37.8368 148.326C36.9763 148.398 36.3468 149.146 36.4185 150.007C36.4902 150.86 37.2312 151.489 38.0997 151.425L53.653 150.103L50.681 155.154L37.8368 156.246C36.9763 156.318 36.3468 157.075 36.4185 157.927C36.4902 158.78 37.2312 159.425 38.0997 159.345L48.7528 158.437L45.3346 164.246L38.0599 164.867C37.2073 164.939 36.5699 165.688 36.6496 166.548C36.7213 167.401 37.4703 168.054 38.3228 167.959L45.3505 167.369L48.4261 173.464C48.705 174.006 49.2468 174.325 49.8125 174.325C50.0436 174.325 50.2826 174.269 50.5137 174.158C51.2786 173.767 51.5893 172.843 51.1989 172.078L48.0277 165.791L51.5096 159.879L56.2505 169.265C56.5214 169.807 57.0712 170.118 57.6369 170.118C57.868 170.118 58.107 170.062 58.3381 169.951C59.103 169.56 59.4138 168.636 59.0233 167.863L53.3901 156.692L56.3939 151.593L63.3897 165.465C63.6606 165.999 64.2104 166.317 64.7841 166.317C65.0152 166.317 65.2542 166.261 65.4853 166.15C66.2502 165.759 66.5609 164.827 66.1705 164.062L59.5811 151.011H102.273L95.301 164.835C94.9106 165.6 95.2213 166.532 95.9862 166.923C96.2093 167.034 96.4484 167.09 96.6874 167.09C97.2531 167.09 97.8029 166.779 98.0738 166.238L105.093 152.326L108.089 157.441L102.432 168.636C102.05 169.401 102.353 170.333 103.117 170.723C103.341 170.835 103.58 170.891 103.811 170.891C104.376 170.891 104.926 170.58 105.197 170.038L109.946 160.636L113.42 166.58L110.249 172.867C109.866 173.632 110.177 174.564 110.942 174.946C111.165 175.058 111.404 175.114 111.635 175.114C112.201 175.114 112.751 174.803 113.022 174.261L116.097 168.158L123.125 168.747C123.969 168.835 124.734 168.19 124.806 167.337C124.878 166.485 124.24 165.728 123.388 165.656L116.121 165.034L112.719 159.234L123.348 160.134C124.2 160.206 124.949 159.568 125.029 158.716C125.101 157.855 124.471 157.114 123.611 157.035L110.798 155.951L107.842 150.899L123.34 152.222C124.192 152.31 124.941 151.664 125.021 150.804C125.093 149.951 124.463 149.194 123.603 149.131L107.906 147.792L129.252 110.829L137.634 123.713C137.929 124.175 138.431 124.422 138.933 124.422C139.22 124.422 139.515 124.343 139.778 124.175C140.503 123.713 140.702 122.749 140.232 122.032L131.555 108.694H137.491L144.495 119.458C144.789 119.92 145.291 120.167 145.801 120.167C146.088 120.167 146.383 120.088 146.646 119.912C147.355 119.442 147.562 118.486 147.1 117.769L141.196 108.694H148.088L152.072 114.821C152.375 115.283 152.869 115.522 153.379 115.522C153.666 115.522 153.96 115.442 154.223 115.275C154.94 114.805 155.148 113.849 154.677 113.124L150.949 107.395L155.004 101.626C155.498 100.925 155.323 99.953 154.63 99.4589L154.646 99.4191ZM107.348 105.546L105.858 102.965H102.432L95.2452 90.519L96.6954 88.0091L95.2611 85.5311L105.412 68.2887L126.925 105.554H107.356L107.348 105.546ZM99.3487 105.546H83.4847L91.2454 92.3516H94.1855L94.3449 92.0727L100.743 103.148L99.3487 105.546ZM88.4168 91.0449L80.6162 104.287L72.9671 91.2202L74.8316 88.0091L74.7121 87.802H86.7754L86.6559 88.0091L88.4088 91.0449H88.4168ZM67.3019 92.3436H70.0349L77.7558 105.538H61.6607L60.5054 103.538L67.1346 92.0568L67.3019 92.3436ZM61.9077 108.646H78.0585L70.5608 121.386H67.3019L66.9992 121.904L60.6249 110.853L61.9077 108.638V108.646ZM73.23 122.972L80.6083 110.423L88.098 123.227L86.6559 125.737L87.0383 126.39H74.4491L74.8316 125.737L73.23 122.972ZM94.1855 121.394H90.6239L83.1659 108.654H99.1096L100.616 111.267L94.4723 121.904L94.1855 121.402V121.394ZM92.7592 83.6587H89.1657L87.6758 86.2482H73.8196L72.3297 83.6587H68.5529L58.4098 66.3206H102.966L92.7672 83.6587H92.7592ZM66.1307 85.6825L64.7921 88.0012L66.2343 90.5031L59.0393 102.957H55.151L53.661 105.538H34.5461L56.0035 68.3684L66.1307 85.6745V85.6825ZM53.414 108.646L55.151 111.65H59.2863L66.1068 123.45L64.7921 125.737L66.3777 128.486L56.0912 145.967L34.5461 108.646H53.414ZM69.0469 130.087H72.3217L73.5487 127.944H87.9307L89.1657 130.087H92.1059L102.512 147.872H58.5771L69.0389 130.087H69.0469ZM94.9424 128.773L96.6954 125.745L95.3727 123.45L102.185 111.658H105.858L107.595 108.654H126.925L105.197 146.294L94.9504 128.781L94.9424 128.773Z" fill="url(#paint0_linear_142_17470)"/>
<path d="M67.302 92.3435L67.1346 92.0566L60.5054 103.538L61.6607 105.538H77.7558L70.0349 92.3435H67.302ZM65.812 101.809L68.5051 97.1322L71.2381 101.809H65.812Z" fill="url(#paint1_linear_142_17470)"/>
<path d="M80.6164 104.288L88.4169 91.0452L86.664 88.0094L86.7835 87.8022H74.7202L74.8397 88.0094L72.9752 91.2205L80.6244 104.288H80.6164ZM83.7956 91.5312L80.6323 96.9095L77.485 91.5312H83.7956Z" fill="url(#paint2_linear_142_17470)"/>
<path d="M72.3215 83.6584L73.8115 86.2479H87.6676L89.1576 83.6584H92.7511L102.95 66.3203H58.3937L68.5368 83.6584H72.3135H72.3215ZM96.4243 70.0572L90.6237 79.9214H87.0063L85.9306 81.7939L85.5163 82.511H75.9708L75.5564 81.7939L74.4728 79.9214H70.6881L64.9114 70.0572H96.4243Z" fill="url(#paint3_linear_142_17470)"/>
<path d="M80.6086 110.431L73.2303 122.98L74.8319 125.745L74.4494 126.398H87.0386L86.6562 125.745L88.0984 123.235L80.6086 110.431ZM77.7402 122.661L80.6006 117.809L83.4372 122.661H77.7402Z" fill="url(#paint4_linear_142_17470)"/>
<path d="M89.1662 130.087L87.9312 127.944H73.5492L72.3222 130.087H69.0474L58.5856 147.871H102.52L92.1143 130.087H89.1742H89.1662ZM65.1112 144.135L71.1828 133.816H74.4814L75.5571 131.944L75.7165 131.673H85.7799L85.9392 131.944L87.0149 133.816H89.9789L96.0186 144.135H65.1192H65.1112Z" fill="url(#paint5_linear_142_17470)"/>
<path d="M95.2611 85.5229L96.6953 88.0009L95.2451 90.5108L102.432 102.957H105.858L107.348 105.538H126.917L105.404 68.2725L95.2531 85.5149L95.2611 85.5229ZM109.5 101.809L109.085 101.092L108.01 99.2276H104.575L99.5478 90.5187L99.9223 89.8733L101.006 88.0009L99.9223 86.1364L99.5796 85.5388L105.372 75.6985L120.447 101.809H109.5Z" fill="url(#paint6_linear_142_17470)"/>
<path d="M105.859 111.658H102.185L95.3729 123.45L96.6956 125.745L94.9426 128.773L105.189 146.286L126.918 108.646H107.588L105.851 111.65L105.859 111.658ZM109.094 113.522L109.755 112.383H120.456L105.173 138.852L99.2692 128.757L99.9385 127.602L101.014 125.737L99.9385 123.873L99.6915 123.45L104.345 115.387H108.018L109.102 113.522H109.094Z" fill="url(#paint7_linear_142_17470)"/>
<path d="M155.482 107.435L158.08 103.73C159.745 101.339 159.171 98.0407 156.789 96.3675C155.889 95.738 154.845 95.4033 153.745 95.4033C153.028 95.4033 152.335 95.5468 151.69 95.8177C151.674 95.6344 151.658 95.4432 151.618 95.252C151.371 93.8576 150.598 92.6465 149.443 91.8337C148.55 91.2123 147.498 90.8776 146.415 90.8776C145.841 90.8776 145.283 90.9732 144.758 91.1485C144.495 89.8657 143.77 88.6705 142.614 87.8578C141.714 87.2283 140.67 86.8937 139.578 86.8937C137.865 86.8937 136.248 87.7303 135.252 89.1247L129.81 96.8854L114.512 70.3843L124.153 70.1691C125.563 70.1373 126.878 69.5636 127.858 68.5437C128.838 67.5238 129.356 66.1852 129.332 64.7669C129.292 63.1654 128.575 61.7631 127.467 60.8228C128.647 59.8269 129.372 58.3289 129.332 56.6796C129.292 54.8868 128.344 53.3012 126.941 52.3769C128.328 51.4845 129.284 49.9627 129.372 48.1938C129.531 45.2935 127.292 42.7916 124.384 42.6402L119.523 42.3852L117.89 38.5686C117.053 36.6324 115.149 35.3655 113.03 35.3655C112.304 35.3655 111.603 35.509 110.942 35.7958C109.213 36.5289 108.081 38.0906 107.811 39.8355C107.062 39.4371 106.217 39.214 105.325 39.214C104.592 39.214 103.89 39.3654 103.221 39.6523C101.643 40.3216 100.56 41.692 100.185 43.2617C99.6037 43.0466 98.9822 42.927 98.3368 42.927C97.6117 42.927 96.9105 43.0705 96.2492 43.3573C93.58 44.5126 92.337 47.6281 93.4843 50.2973L97.4125 59.4763H64.7682L68.6963 50.2893C69.8437 47.6201 68.5928 44.4967 65.9235 43.3493C65.2622 43.0625 64.561 42.9191 63.836 42.9191C63.1906 42.9191 62.5691 43.0386 61.9874 43.2537C61.9237 43.0067 61.852 42.7677 61.7484 42.5286C61.2225 41.2219 60.2185 40.1861 58.9198 39.6363C58.2824 39.3574 57.5732 39.2061 56.8402 39.2061C55.9557 39.2061 55.1032 39.4212 54.3542 39.8196C54.2905 39.4371 54.1869 39.0467 54.0355 38.6722C53.5096 37.3655 52.5057 36.3376 51.2069 35.7799C50.5615 35.501 49.8524 35.3496 49.1273 35.3496C47.0078 35.3496 45.0956 36.6085 44.2669 38.5686L42.6415 42.3773L37.7811 42.6322C34.8648 42.7916 32.6259 45.2855 32.7852 48.2018C32.8808 49.9627 33.829 51.4845 35.2154 52.369C33.8131 53.2932 32.8569 54.8788 32.8251 56.6796C32.7852 58.3209 33.5183 59.8189 34.6816 60.8149C33.574 61.7551 32.8569 63.1574 32.8251 64.759C32.7932 66.1693 33.3111 67.5079 34.2911 68.5278C35.2632 69.5477 36.5859 70.1293 37.9962 70.1612L46.96 70.3604L30.7534 98.4311L24.3791 89.3079C23.3991 87.8897 21.7736 87.0451 20.0446 87.0451C18.961 87.0451 17.9252 87.3717 17.0328 87.9853C15.8934 88.7821 15.1284 89.9454 14.8575 91.284C14.3237 91.1007 13.7659 91.0131 13.1843 91.0131C12.1007 91.0131 11.0569 91.3477 10.1645 91.9612C8.80196 92.9174 8.02111 94.3994 7.91753 95.9452C7.27213 95.6663 6.56299 95.5229 5.84588 95.5229C4.77022 95.5229 3.7344 95.8416 2.842 96.4551C0.427741 98.1523 -0.153912 101.451 1.51137 103.841L3.87782 107.236L1.53527 111.498C0.132931 114.048 1.0572 117.267 3.61488 118.677C4.42761 119.116 5.2961 119.331 6.1646 119.331C6.96935 119.331 7.74223 119.156 8.44341 118.821C8.44341 119.148 8.48325 119.466 8.55496 119.793C8.8418 121.171 9.65452 122.367 10.8338 123.139C11.7341 123.705 12.7142 124 13.7261 124C14.2918 124 14.8416 123.912 15.3595 123.745C15.5667 125.187 16.3714 126.542 17.6861 127.41C18.5865 127.984 19.5745 128.271 20.5864 128.271C22.3792 128.271 24.0365 127.378 25.0086 125.872L31.1518 116.47L46.9202 143.784L37.5181 144.581C34.6178 144.828 32.4585 147.394 32.6976 150.286C32.8171 151.704 33.4704 152.939 34.4505 153.816C33.2553 154.883 32.5541 156.485 32.6976 158.206C32.841 159.879 33.7254 161.298 35.0082 162.166C33.6139 163.226 32.7693 164.955 32.9286 166.827C33.1597 169.544 35.4624 171.664 38.1635 171.664C38.3308 171.664 38.5061 171.664 38.6735 171.64L43.1514 171.257L45.0956 175.106C45.9959 176.891 47.8126 178.014 49.8205 178.014C50.6571 178.014 51.4937 177.807 52.2427 177.424C53.916 176.572 54.9438 174.923 55.0872 173.146C55.8522 173.568 56.7286 173.799 57.637 173.799C58.4576 173.799 59.2783 173.6 60.0114 173.233C61.4934 172.476 62.4734 171.13 62.8001 169.624C63.4137 169.871 64.083 169.998 64.7682 169.998C65.5889 169.998 66.4016 169.807 67.1346 169.441C68.4095 168.795 69.3497 167.704 69.7879 166.365C70.2262 165.011 70.1226 163.584 69.4772 162.317L65.6208 154.684H96.1855L91.9466 163.098C91.3091 164.349 91.1976 165.783 91.6438 167.13C92.082 168.469 93.0222 169.552 94.2811 170.198C94.9823 170.564 95.8189 170.763 96.6635 170.763C97.3488 170.763 98.0181 170.636 98.6316 170.389C98.9583 171.895 99.9383 173.249 101.412 173.99C102.122 174.365 102.942 174.556 103.795 174.556C104.711 174.556 105.58 174.325 106.344 173.903C106.384 174.325 106.464 174.739 106.599 175.146C107.046 176.492 107.986 177.576 109.245 178.205C109.97 178.572 110.799 178.771 111.611 178.771C113.619 178.771 115.428 177.664 116.328 175.871L118.272 172.014L122.782 172.397C122.894 172.413 123.069 172.421 123.252 172.421C125.961 172.421 128.264 170.301 128.495 167.584C128.654 165.704 127.802 163.967 126.4 162.899C127.69 162.031 128.583 160.604 128.726 158.971C128.87 157.242 128.16 155.632 126.957 154.565C127.945 153.688 128.607 152.453 128.726 151.059C128.846 149.649 128.407 148.278 127.491 147.194C126.575 146.119 125.3 145.457 123.89 145.346L114.065 144.509L129.419 117.905L134.487 125.689C135.459 127.187 137.116 128.095 138.917 128.095C139.945 128.095 140.941 127.801 141.809 127.235C142.973 126.478 143.793 125.299 144.088 123.912C144.112 123.801 144.128 123.689 144.144 123.578C144.67 123.753 145.22 123.833 145.785 123.833C146.813 123.833 147.809 123.53 148.67 122.972C150.184 121.984 151.02 120.351 151.068 118.669C151.769 119.004 152.55 119.187 153.363 119.187C154.391 119.187 155.395 118.893 156.247 118.335C158.685 116.741 159.379 113.466 157.793 111.028L155.442 107.411L155.482 107.435ZM155.028 101.578L150.972 107.347L154.701 113.076C155.164 113.793 154.964 114.757 154.247 115.227C153.984 115.395 153.689 115.474 153.403 115.474C152.893 115.474 152.399 115.235 152.096 114.773L148.112 108.646H141.22L147.124 117.721C147.594 118.438 147.387 119.403 146.67 119.865C146.407 120.04 146.112 120.12 145.825 120.12C145.315 120.12 144.813 119.873 144.518 119.411L137.515 108.646H131.579L140.256 121.984C140.726 122.701 140.519 123.665 139.802 124.127C139.539 124.295 139.244 124.374 138.957 124.374C138.447 124.374 137.953 124.127 137.658 123.665L129.276 110.781L107.93 147.744L123.627 149.083C124.479 149.155 125.117 149.904 125.045 150.756C124.973 151.561 124.312 152.182 123.531 152.182C123.475 152.182 123.42 152.182 123.372 152.174L107.874 150.852L110.83 155.903L123.643 156.987C124.495 157.067 125.133 157.816 125.061 158.668C124.989 159.481 124.312 160.086 123.515 160.086C123.475 160.086 123.428 160.086 123.38 160.086L112.751 159.186L116.153 164.987L123.42 165.608C124.272 165.68 124.91 166.437 124.838 167.289C124.766 168.094 124.097 168.708 123.316 168.708C123.268 168.708 123.212 168.708 123.165 168.708L116.137 168.118L113.061 174.221C112.782 174.763 112.241 175.074 111.675 175.074C111.444 175.074 111.205 175.018 110.982 174.907C110.217 174.524 109.906 173.584 110.289 172.827L113.46 166.54L109.986 160.596L105.237 169.998C104.966 170.54 104.416 170.851 103.851 170.851C103.619 170.851 103.38 170.803 103.157 170.684C102.392 170.293 102.082 169.369 102.472 168.596L108.129 157.401L105.133 152.286L98.1137 166.198C97.8428 166.74 97.293 167.05 96.7273 167.05C96.4962 167.05 96.2572 166.995 96.0261 166.883C95.2612 166.493 94.9584 165.56 95.3409 164.795L102.313 150.971H59.621L66.2104 164.023C66.6008 164.787 66.2821 165.72 65.5251 166.11C65.302 166.222 65.063 166.277 64.824 166.277C64.2582 166.277 63.7085 165.967 63.4296 165.425L56.4338 151.553L53.4299 156.652L59.0632 167.823C59.4536 168.588 59.1349 169.52 58.378 169.911C58.1549 170.022 57.9158 170.078 57.6768 170.078C57.1111 170.078 56.5613 169.767 56.2904 169.226L51.5495 159.839L48.0676 165.752L51.2388 172.038C51.6292 172.803 51.3184 173.727 50.5535 174.118C50.3304 174.237 50.0914 174.285 49.8524 174.285C49.2787 174.285 48.7369 173.974 48.466 173.425L45.3904 167.329L38.3627 167.919C38.3069 167.927 38.2512 167.935 38.1954 167.935C37.4066 167.935 36.7532 167.313 36.6815 166.509C36.6098 165.648 37.2392 164.899 38.0918 164.827L45.3665 164.206L48.7847 158.397L38.1316 159.306C38.0838 159.306 38.036 159.306 37.9803 159.306C37.1755 159.306 36.5142 158.692 36.4504 157.879C36.3787 157.027 37.0082 156.278 37.8687 156.198L50.7129 155.107L53.6849 150.055L38.1316 151.378C38.0918 151.378 38.044 151.378 38.0042 151.378C37.1914 151.378 36.5221 150.764 36.4504 149.951C36.3787 149.091 37.0082 148.342 37.8687 148.27L53.1271 146.971L31.3829 109.307L21.9091 123.801C21.6143 124.255 21.1203 124.502 20.6103 124.502C20.3155 124.502 20.0207 124.422 19.7578 124.255C19.0407 123.785 18.8415 122.821 19.3116 122.104L28.132 108.606H22.188L15.0488 119.522C14.754 119.976 14.252 120.231 13.742 120.231C13.4472 120.231 13.1604 120.144 12.8974 119.976C12.1803 119.506 11.9811 118.542 12.4433 117.825L18.4749 108.598H10.9373L7.54304 114.757C7.26416 115.267 6.73828 115.562 6.1885 115.562C5.93353 115.562 5.67856 115.498 5.43952 115.371C4.68258 114.956 4.41167 114.008 4.826 113.259L8.29202 106.957L4.58696 101.65C4.10092 100.949 4.26825 99.9849 4.97739 99.4909C5.24033 99.3076 5.55107 99.2199 5.86182 99.2199C6.35583 99.2199 6.8339 99.451 7.13668 99.8813L11.0569 105.491H17.7658L11.9413 97.1483C11.4473 96.4392 11.6226 95.4751 12.3238 94.989C12.6026 94.7978 12.9054 94.7101 13.2162 94.7101C13.7102 94.7101 14.1882 94.9412 14.491 95.3715L21.5585 105.491H27.391L18.8016 93.1803C18.3076 92.4791 18.4749 91.5071 19.1841 91.021C19.455 90.8298 19.7657 90.7421 20.0685 90.7421C20.5546 90.7421 21.0406 90.9732 21.3434 91.4035L31.0801 105.339L53.3742 66.7191L38.1077 66.3844C37.2472 66.3685 36.5699 65.6514 36.5859 64.7988C36.6018 63.9702 37.2074 63.2769 38.0838 63.2769H38.1715L53.2785 63.6116L50.3304 58.5679L38.0998 58.305C37.2392 58.2811 36.562 57.572 36.5779 56.7114C36.5938 55.8828 37.2552 55.1975 38.0918 55.1975H38.1635L48.4819 55.4286L44.7609 49.0703L38.1635 49.4208C38.1635 49.4208 38.1077 49.4208 38.0759 49.4208C37.2631 49.4208 36.5699 48.7834 36.5301 47.9468C36.4823 47.0942 37.1436 46.3612 37.9962 46.3134L45.1752 45.9309L47.717 39.9789C47.9719 39.3973 48.5456 39.0387 49.1432 39.0387C49.3504 39.0387 49.5576 39.0786 49.7567 39.1662C50.5456 39.5009 50.9121 40.4172 50.5695 41.206L47.6931 47.9388L51.1511 53.835L55.4299 43.8354C55.6769 43.2458 56.2505 42.8952 56.8561 42.8952C57.0633 42.8952 57.2704 42.935 57.4696 43.0227C58.2585 43.3573 58.625 44.2736 58.2824 45.0545L53.1032 57.1736L56.1071 62.3049L62.4177 47.5484C62.6647 46.9667 63.2463 46.6082 63.8519 46.6082C64.059 46.6082 64.2582 46.648 64.4574 46.7357C65.2463 47.0783 65.6048 47.9866 65.2702 48.7675L59.119 63.1574H103.078L96.9265 48.7675C96.5918 47.9866 96.9583 47.0703 97.7472 46.7357C97.9463 46.648 98.1455 46.6082 98.3527 46.6082C98.9583 46.6082 99.532 46.9667 99.7869 47.5484L105.771 61.532L108.783 56.4087L103.922 45.0465C103.588 44.2577 103.954 43.3493 104.735 43.0147C104.934 42.927 105.141 42.8872 105.348 42.8872C105.946 42.8872 106.52 43.2378 106.775 43.8274L110.735 53.0861L114.057 47.4448C114.097 47.3731 114.169 47.3253 114.217 47.2616L111.627 41.198C111.293 40.4092 111.659 39.4929 112.448 39.1582C112.647 39.0706 112.854 39.0308 113.061 39.0308C113.659 39.0308 114.233 39.3893 114.488 39.971L117.037 45.923L124.216 46.3054C125.069 46.3532 125.73 47.0783 125.682 47.9388C125.643 48.7675 124.949 49.4129 124.137 49.4129C124.105 49.4129 124.081 49.4129 124.049 49.4129L116.743 49.0225L112.966 55.4445L124.057 55.1975H124.121C124.918 55.1975 125.627 55.8828 125.643 56.7114C125.667 57.564 124.981 58.2731 124.121 58.305L111.109 58.5918L108.145 63.6355L124.049 63.2849H124.121C124.957 63.2849 125.619 63.9781 125.635 64.8068C125.651 65.6593 124.973 66.3764 124.113 66.3924L108.169 66.743L129.547 103.778L138.343 91.2441C138.646 90.8139 139.132 90.5908 139.618 90.5908C139.921 90.5908 140.232 90.6784 140.503 90.8617C141.204 91.3557 141.371 92.3198 140.885 93.021L132.136 105.491H137.977L145.18 95.2201C145.483 94.7898 145.961 94.5588 146.455 94.5588C146.757 94.5588 147.076 94.6544 147.347 94.8376C148.048 95.3316 148.216 96.2957 147.73 96.9969L141.778 105.491H148.486L152.518 99.7458C152.821 99.3156 153.307 99.0845 153.793 99.0845C154.104 99.0845 154.415 99.1721 154.685 99.3634C155.387 99.8574 155.554 100.821 155.06 101.531L155.028 101.578Z" fill="url(#paint8_linear_142_17470)"/>
<path d="M94.1853 121.395L94.4722 121.897L100.615 111.259L99.1094 108.646H83.1658L90.6237 121.387H94.1853V121.395ZM95.6514 112.383L92.6874 117.53L89.6755 112.383H95.6514Z" fill="url(#paint9_linear_142_17470)"/>
<path d="M94.3454 92.0723L94.1861 92.3511H91.2459L83.4852 105.546H99.3492L100.744 103.148L94.3454 92.0723ZM90.0109 101.809L92.8634 96.9645L95.6601 101.809H90.0109Z" fill="url(#paint10_linear_142_17470)"/>
<path d="M67.3021 121.394H70.5609L78.0587 108.654H61.9078L60.625 110.869L66.9993 121.92L67.3021 121.402V121.394ZM71.525 112.383L68.6407 117.283L65.8121 112.383H71.525Z" fill="url(#paint11_linear_142_17470)"/>
<path d="M64.792 125.745L66.1067 123.458L59.2862 111.658H55.1509L53.4139 108.654H34.546L56.0911 145.975L66.3776 128.494L64.792 125.745ZM56.123 138.557L41.0159 112.383H51.2626L51.916 113.522L52.9916 115.387H57.1269L61.7881 123.466L61.5491 123.88L60.4734 125.745L61.5491 127.609L62.0431 128.47L56.115 138.557H56.123Z" fill="url(#paint12_linear_142_17470)"/>
<path d="M55.1509 102.965H59.0392L66.2342 90.511L64.792 88.0091L66.1306 85.6905L56.0035 68.3843L34.546 105.554H53.6609L55.1509 102.973V102.965ZM51.916 101.092L51.5016 101.809H41.0159L56.0274 75.8103L61.812 85.6984L61.5571 86.1367L60.4814 88.0011L61.5571 89.8656L61.9236 90.503L56.8879 99.2199H52.9996L51.916 101.084V101.092Z" fill="url(#paint13_linear_142_17470)"/>
<path d="M198.767 71.6828C195.008 57.9938 180.022 51.1392 167.509 53.3102C170.726 47.5009 169.238 39.591 166.906 33.6913C164.062 26.4548 154.996 20.8064 146.513 20.3641C144.674 20.2636 142.755 20.3641 140.815 20.5652C139.498 20.6054 137.458 20.9672 136.332 21.2486C130.553 22.4949 124.915 24.9372 120.774 28.3745C118.301 30.4248 115.598 33.8119 113.809 37.5407C108.492 35.5607 102.26 35.3798 97.205 36.8372C85.908 40.0936 77.3047 52.5966 78.9228 64.175C78.9228 64.386 78.9228 64.5971 78.9429 64.8081C75.8172 64.5066 72.3396 64.969 69.2641 65.8233C68.4802 66.0042 68.1184 66.1449 67.1434 66.4967C65.5956 67.0595 64.1885 67.6927 63.1131 68.3761C56.5199 72.5874 51.6051 81.2309 54.6505 89.1207C58.5803 99.3221 69.5456 101.041 79.2444 102.317C84.9331 103.081 90.672 102.88 96.2401 101.815C99.8282 103.443 103.748 104.579 107.638 105.322C117.316 107.634 127.638 107.885 137.538 108.207C145.719 108.478 153.79 107.654 161.76 105.915C167.509 107.222 173.871 106.93 178.877 105.584C188.545 102.981 198.556 94.5681 199.661 83.7335C200.325 78.7886 200.003 76.1051 198.787 71.6928L198.767 71.6828Z" fill="url(#paint14_radial_142_17470)"/>
<g style="mix-blend-mode:multiply" opacity="0.3">
<path d="M198.767 71.6828C195.008 57.9938 180.022 51.1392 167.509 53.3102C170.726 47.5009 169.238 39.591 166.906 33.6913C164.062 26.4548 154.996 20.8064 146.513 20.3641C144.674 20.2636 142.755 20.3641 140.815 20.5652C139.498 20.6054 137.458 20.9672 136.332 21.2486C130.553 22.4949 124.915 24.9372 120.774 28.3745C118.301 30.4248 115.598 33.8119 113.809 37.5407C108.492 35.5607 102.26 35.3798 97.205 36.8372C85.908 40.0936 77.3047 52.5966 78.9228 64.175C78.9228 64.386 78.9228 64.5971 78.9429 64.8081C75.8172 64.5066 72.3396 64.969 69.2641 65.8233C68.4802 66.0042 68.1184 66.1449 67.1434 66.4967C65.5956 67.0595 64.1885 67.6927 63.1131 68.3761C56.5199 72.5874 51.6051 81.2309 54.6505 89.1207C58.5803 99.3221 69.5456 101.041 79.2444 102.317C84.9331 103.081 90.672 102.88 96.2401 101.815C99.8282 103.443 103.748 104.579 107.638 105.322C117.316 107.634 127.638 107.885 137.538 108.207C145.719 108.478 153.79 107.654 161.76 105.915C167.509 107.222 173.871 106.93 178.877 105.584C188.545 102.981 198.556 94.5681 199.661 83.7335C200.325 78.7886 200.003 76.1051 198.787 71.6928L198.767 71.6828ZM181.269 83.5426C171.208 95.4023 146.745 94.6988 139.378 80.5575C139.327 85.5829 140.302 90.3871 143.277 94.8395C144.423 96.5883 134.473 99.4729 118.392 97.6436C108.924 96.5682 83.2144 94.9099 82.3702 84.6481C81.4656 86.206 81.335 88.0151 81.4656 89.3116C60.6909 95.6134 47.9969 72.2959 78.2193 68.8485C79.2645 71.0898 80.0384 74.4568 82.6214 77.2207C81.7571 68.7581 83.1742 59.1396 85.0839 55.2399C94.4109 36.204 110.492 41.0785 110.472 41.6414C110.341 46.9582 111.376 49.9231 114.1 53.4308C112.542 44.2345 116.211 39.1488 121.799 34.6863C127.88 29.8319 135.779 27.1584 143.619 27.872C150.453 28.4951 157.619 31.6812 159.087 39.1187C160.916 48.3954 156.866 56.0741 151.127 62.7478C159.68 57.8933 169.429 54.0037 178.223 60.6371C184.827 65.6122 186.736 77.1001 181.269 83.5426Z" fill="url(#paint15_radial_142_17470)"/>
</g>
<g style="mix-blend-mode:multiply" opacity="0.4">
<path opacity="0.4" d="M198.767 71.6828C195.008 57.9938 180.022 51.1392 167.509 53.3102C170.726 47.5009 169.238 39.591 166.906 33.6913C164.062 26.4548 154.996 20.8064 146.513 20.3641C144.674 20.2636 142.755 20.3641 140.815 20.5652C139.498 20.6054 137.458 20.9672 136.332 21.2486C130.553 22.4949 124.915 24.9372 120.774 28.3745C118.301 30.4248 115.598 33.8119 113.809 37.5407C108.492 35.5607 102.26 35.3798 97.205 36.8372C85.908 40.0936 77.3047 52.5966 78.9228 64.175C78.9228 64.386 78.9228 64.5971 78.9429 64.8081C75.8172 64.5066 72.3396 64.969 69.2641 65.8233C68.4802 66.0042 68.1184 66.1449 67.1434 66.4967C65.5956 67.0595 64.1885 67.6927 63.1131 68.3761C56.5199 72.5874 51.6051 81.2309 54.6505 89.1207C58.5803 99.3221 69.5456 101.041 79.2444 102.317C84.9331 103.081 90.672 102.88 96.2401 101.815C99.8282 103.443 103.748 104.579 107.638 105.322C117.316 107.634 127.638 107.885 137.538 108.207C145.719 108.478 153.79 107.654 161.76 105.915C167.509 107.222 173.871 106.93 178.877 105.584C188.545 102.981 198.556 94.5681 199.661 83.7335C200.325 78.7886 200.003 76.1051 198.787 71.6928L198.767 71.6828ZM193.018 90.2564C190.314 96.6687 184.224 101.382 176.615 102.85C170.022 104.126 162.645 104.689 156.243 102.176C153.73 101.192 151.559 99.7543 149.629 97.8648C149.237 97.4828 148.765 97.0507 148.333 96.5883C150.081 100.106 153.067 102.589 156.655 104.227C149.901 105.302 142.976 105.594 136.212 105.423C129.096 105.242 112.341 104.87 102.833 101.594C99.1045 100.508 95.5365 98.9201 92.3103 96.8094C88.7524 94.4877 84.8326 91.3117 82.4405 87.4623C84.0587 92.8897 87.7171 96.8697 92.3605 99.7342C91.5967 99.8347 90.8429 99.9251 90.069 99.9854C81.8878 100.599 72.4401 99.101 64.9926 95.6335C55.9772 91.4424 55.4244 80.0751 61.6658 73.3311C65.4449 69.2606 72.8623 67.3409 79.2344 67.7932C79.6465 70.5069 80.5209 73.12 81.8375 75.5121C80.8023 70.4466 80.541 65.0594 81.6164 60.0743C82.7119 53.1092 86.3603 46.7873 92.4007 42.1439C94.6621 40.6966 97.215 39.6513 100.039 39.1388C104.492 38.3448 108.824 38.7568 112.733 40.2142C111.698 43.2796 111.447 46.4054 112.572 49.0487C112.08 44.8375 113.829 40.3649 116.442 37.0382C119.236 32.8672 123.337 29.3092 126.885 27.3996C133.036 24.0829 140.101 22.716 146.986 23.902C157.026 25.6407 160.243 29.3997 163.459 34.2943C167.057 39.7619 167.047 48.104 164.585 54.0238C161.027 55.1696 157.73 57.2702 154.986 60.4864C158.212 58.3657 162.544 57.1395 166.142 56.7274C170.454 56.2349 174.997 56.436 179.168 57.7827C184.294 59.4411 189.952 63.2905 192.616 68.3761C193.922 70.7079 197.45 81.7636 193.058 90.2363L193.018 90.2564Z" fill="#39556E"/>
</g>
<path style="mix-blend-mode:screen" d="M122.804 33.3197C112.884 42.6768 115.155 53.4713 115.155 53.4713C118.271 72.7786 159.931 65.9039 159.64 43.8025C159.358 21.7011 132.724 23.9625 122.804 33.3197Z" fill="url(#paint16_radial_142_17470)"/>
<path style="mix-blend-mode:screen" d="M112.331 53.6425C110.542 50.366 109.356 45.6019 110.221 41.5817C99.2955 38.3554 89.6268 45.5115 86.1191 55.0898C81.0837 68.829 87.4357 80.7792 87.4357 80.7792C96.6019 95.2723 123.759 81.5431 127.749 65.6128C121.447 63.3916 115.608 59.6427 112.341 53.6425H112.331Z" fill="url(#paint17_radial_142_17470)"/>
<path style="mix-blend-mode:screen" d="M84.3002 77.211L82.29 76.2461C82.29 76.2461 79.8075 72.8993 78.2095 68.8589C78.2095 68.8589 61.6761 69.5926 61.455 80.3468C61.244 90.7593 81.2548 89.3924 81.2548 89.3924C81.2548 89.3924 89.6069 79.1608 84.3002 77.221V77.211Z" fill="url(#paint18_radial_142_17470)"/>
<path style="mix-blend-mode:screen" d="M141.508 80.8494C138.402 73.9446 147.388 62.2055 161.539 59.0898C175.7 55.9841 185.369 62.1954 188.133 72.5576C190.897 82.9199 177.771 90.5182 164.645 90.1764C151.518 89.8247 144.795 88.1764 141.498 80.8494H141.508Z" fill="url(#paint19_radial_142_17470)"/>
</g>
<defs>
<linearGradient id="paint0_linear_142_17470" x1="4.3001" y1="107.076" x2="155.307" y2="107.076" gradientUnits="userSpaceOnUse">
<stop stop-color="#C4F5FF"/>
<stop offset="0.44" stop-color="white"/>
<stop offset="1" stop-color="#B4E1FF"/>
</linearGradient>
<linearGradient id="paint1_linear_142_17470" x1="72.3376" y1="92.8216" x2="68.1386" y2="108.152" gradientUnits="userSpaceOnUse">
<stop stop-color="#ACF2FF"/>
<stop offset="0.4" stop-color="#1BB3FF"/>
<stop offset="1" stop-color="#004778"/>
</linearGradient>
<linearGradient id="paint2_linear_142_17470" x1="82.0108" y1="86.3123" x2="77.0866" y2="104.304" gradientUnits="userSpaceOnUse">
<stop stop-color="#ACF2FF"/>
<stop offset="0.4" stop-color="#1BB3FF"/>
<stop offset="1" stop-color="#004778"/>
</linearGradient>
<linearGradient id="paint3_linear_142_17470" x1="82.3052" y1="60.3922" x2="74.7517" y2="88.0009" gradientUnits="userSpaceOnUse">
<stop stop-color="#ACF2FF"/>
<stop offset="0.4" stop-color="#1BB3FF"/>
<stop offset="1" stop-color="#004778"/>
</linearGradient>
<linearGradient id="paint4_linear_142_17470" x1="83.9312" y1="111.156" x2="79.1505" y2="128.629" gradientUnits="userSpaceOnUse">
<stop stop-color="#ACF2FF"/>
<stop offset="0.4" stop-color="#1BB3FF"/>
<stop offset="1" stop-color="#004778"/>
</linearGradient>
<linearGradient id="paint5_linear_142_17470" x1="86.2022" y1="127.195" x2="78.6407" y2="154.859" gradientUnits="userSpaceOnUse">
<stop stop-color="#ACF2FF"/>
<stop offset="0.4" stop-color="#1BB3FF"/>
<stop offset="1" stop-color="#004778"/>
</linearGradient>
<linearGradient id="paint6_linear_142_17470" x1="117.722" y1="71.2843" x2="107.779" y2="107.642" gradientUnits="userSpaceOnUse">
<stop stop-color="#ACF2FF"/>
<stop offset="0.4" stop-color="#1BB3FF"/>
<stop offset="1" stop-color="#004778"/>
</linearGradient>
<linearGradient id="paint7_linear_142_17470" x1="114.241" y1="104.742" x2="102.44" y2="147.88" gradientUnits="userSpaceOnUse">
<stop stop-color="#ACF2FF"/>
<stop offset="0.4" stop-color="#1BB3FF"/>
<stop offset="1" stop-color="#004778"/>
</linearGradient>
<linearGradient id="paint8_linear_142_17470" x1="100.735" y1="30.2103" x2="57.3262" y2="188.914" gradientUnits="userSpaceOnUse">
<stop stop-color="#ACF2FF"/>
<stop offset="0.4" stop-color="#1BB3FF"/>
<stop offset="1" stop-color="#004778"/>
</linearGradient>
<linearGradient id="paint9_linear_142_17470" x1="92.767" y1="106.766" x2="88.6875" y2="121.673" gradientUnits="userSpaceOnUse">
<stop stop-color="#ACF2FF"/>
<stop offset="0.4" stop-color="#1BB3FF"/>
<stop offset="1" stop-color="#004778"/>
</linearGradient>
<linearGradient id="paint10_linear_142_17470" x1="95.4291" y1="92.1998" x2="90.983" y2="108.478" gradientUnits="userSpaceOnUse">
<stop stop-color="#ACF2FF"/>
<stop offset="0.4" stop-color="#1BB3FF"/>
<stop offset="1" stop-color="#004778"/>
</linearGradient>
<linearGradient id="paint11_linear_142_17470" x1="70.2661" y1="106.359" x2="65.8599" y2="122.478" gradientUnits="userSpaceOnUse">
<stop stop-color="#ACF2FF"/>
<stop offset="0.4" stop-color="#1BB3FF"/>
<stop offset="1" stop-color="#004778"/>
</linearGradient>
<linearGradient id="paint12_linear_142_17470" x1="53.2864" y1="108.247" x2="43.3824" y2="144.461" gradientUnits="userSpaceOnUse">
<stop stop-color="#ACF2FF"/>
<stop offset="0.4" stop-color="#1BB3FF"/>
<stop offset="1" stop-color="#004778"/>
</linearGradient>
<linearGradient id="paint13_linear_142_17470" x1="58.4416" y1="68.6074" x2="46.7847" y2="111.212" gradientUnits="userSpaceOnUse">
<stop stop-color="#ACF2FF"/>
<stop offset="0.4" stop-color="#1BB3FF"/>
<stop offset="1" stop-color="#004778"/>
</linearGradient>
<radialGradient id="paint14_radial_142_17470" cx="0" cy="0" r="1" gradientUnits="userSpaceOnUse" gradientTransform="translate(132.704 -79.2379) scale(187.897 187.897)">
<stop offset="0.16" stop-color="#757575"/>
<stop offset="0.69" stop-color="#51797F"/>
<stop offset="1" stop-color="#17658C"/>
</radialGradient>
<radialGradient id="paint15_radial_142_17470" cx="0" cy="0" r="1" gradientUnits="userSpaceOnUse" gradientTransform="translate(132.704 -79.2379) scale(187.897 187.897)">
<stop offset="0.39" stop-color="#51797F"/>
<stop offset="1" stop-color="#17658C"/>
</radialGradient>
<radialGradient id="paint16_radial_142_17470" cx="0" cy="0" r="1" gradientUnits="userSpaceOnUse" gradientTransform="translate(137.478 1.08723) scale(58.0727 58.0727)">
<stop offset="0.52" stop-color="#757575"/>
<stop offset="0.7" stop-color="#51797F"/>
<stop offset="0.99" stop-color="#17658C"/>
</radialGradient>
<radialGradient id="paint17_radial_142_17470" cx="0" cy="0" r="1" gradientUnits="userSpaceOnUse" gradientTransform="translate(85.6869 43.4008) scale(41.6298 41.6298)">
<stop offset="0.15" stop-color="#757575"/>
<stop offset="0.46" stop-color="#51797F"/>
<stop offset="0.99" stop-color="#17658C"/>
</radialGradient>
<radialGradient id="paint18_radial_142_17470" cx="0" cy="0" r="1" gradientUnits="userSpaceOnUse" gradientTransform="translate(54.2286 63.3612) scale(30.5641 30.5641)">
<stop offset="0.15" stop-color="#757575"/>
<stop offset="0.46" stop-color="#51797F"/>
<stop offset="0.99" stop-color="#17658C"/>
</radialGradient>
<radialGradient id="paint19_radial_142_17470" cx="0" cy="0" r="1" gradientUnits="userSpaceOnUse" gradientTransform="translate(171.328 15.9423) scale(66.9877 66.9876)">
<stop offset="0.55" stop-color="#757575"/>
<stop offset="0.74" stop-color="#51797F"/>
<stop offset="0.99" stop-color="#17658C"/>
</radialGradient>
<clipPath id="clip0_142_17470">
<rect width="200" height="200" fill="white"/>
</clipPath>
</defs>
</svg>
