<svg width="200" height="200" viewBox="0 0 200 200" fill="none" xmlns="http://www.w3.org/2000/svg">
<g clip-path="url(#clip0_142_17205)">
<path d="M161.408 66.8066C157.756 53.5099 143.207 46.8572 131.058 48.9704C134.18 43.3264 132.736 35.6476 130.475 29.9167C127.71 22.89 118.9 17.4026 110.665 16.9765C108.882 16.8808 107.012 16.9765 105.125 17.1678C103.856 17.2113 101.873 17.5591 100.768 17.8287C95.1592 19.0375 89.6805 21.4116 85.6628 24.751C83.2539 26.7425 80.6363 30.0384 78.897 33.6474C73.74 31.7168 67.6874 31.5429 62.7739 32.9604C51.8078 36.1172 43.4506 48.266 45.016 59.5104C45.016 59.7104 45.016 59.9191 45.0334 60.1191C41.9897 59.8234 38.6155 60.2843 35.6326 61.1018C34.8673 61.2844 34.5195 61.4062 33.5716 61.754C32.0671 62.2932 30.7018 62.9193 29.6582 63.5803C23.2577 67.6675 18.4834 76.0682 21.4402 83.7297C25.2579 93.6349 35.9022 95.2959 45.3204 96.5481C50.8425 97.2786 56.4169 97.0873 61.826 96.0524C65.3133 97.6352 69.1223 98.7309 72.8965 99.4614C82.2973 101.705 92.3242 101.957 101.934 102.27C109.873 102.531 117.718 101.731 125.457 100.044C131.04 101.314 137.223 101.035 142.076 99.7223C151.468 97.1917 161.191 89.0258 162.26 78.5032C162.904 73.6941 162.599 71.0939 161.408 66.8066Z" fill="url(#paint0_radial_142_17205)"/>
<g style="mix-blend-mode:multiply" opacity="0.3">
<path d="M161.408 66.8066C157.756 53.5099 143.207 46.8572 131.058 48.9704C134.18 43.3264 132.736 35.6476 130.475 29.9167C127.71 22.89 118.9 17.4026 110.665 16.9765C108.882 16.8808 107.012 16.9765 105.125 17.1678C103.856 17.2113 101.873 17.5591 100.768 17.8287C95.1592 19.0375 89.6805 21.4116 85.6628 24.751C83.2539 26.7425 80.6363 30.0384 78.897 33.6474C73.74 31.7168 67.6874 31.5429 62.7739 32.9604C51.8078 36.1172 43.4506 48.266 45.016 59.5104C45.016 59.7104 45.016 59.9191 45.0334 60.1191C41.9897 59.8234 38.6155 60.2843 35.6326 61.1018C34.8673 61.2844 34.5195 61.4062 33.5716 61.754C32.0671 62.2932 30.7018 62.9193 29.6582 63.5803C23.2577 67.6675 18.4834 76.0682 21.4402 83.7297C25.2579 93.6349 35.9022 95.2959 45.3204 96.5481C50.8425 97.2786 56.4169 97.0873 61.826 96.0524C65.3133 97.6352 69.1223 98.7309 72.8965 99.4614C82.2973 101.705 92.3242 101.957 101.934 102.27C109.873 102.531 117.718 101.731 125.457 100.044C131.04 101.314 137.223 101.035 142.076 99.7223C151.468 97.1917 161.191 89.0258 162.26 78.5032C162.904 73.6941 162.599 71.0939 161.408 66.8066ZM144.407 78.3293C134.641 89.8519 110.882 89.1649 103.725 75.4334C103.673 80.312 104.629 84.9733 107.508 89.3041C108.612 90.9999 98.9508 93.8001 83.3321 92.026C74.1401 90.9825 49.1728 89.3736 48.3554 79.4076C47.4771 80.9121 47.3466 82.6774 47.4771 83.9384C27.3102 90.0607 14.9788 67.4153 44.329 64.0672C45.3378 66.25 46.0856 69.5199 48.6076 72.1983C47.7727 63.9803 49.1468 54.6404 50.9991 50.8575C60.052 32.369 75.6706 37.0999 75.6532 37.6477C75.5228 42.8047 76.5316 45.7006 79.1753 49.0921C77.6621 40.161 81.2189 35.2214 86.6454 30.8907C92.5503 26.1685 100.22 23.5857 107.838 24.2727C114.474 24.8728 121.431 27.9687 122.857 35.1954C124.64 44.2048 120.7 51.6662 115.126 58.1363C123.44 53.4229 132.901 49.64 141.441 56.084C147.85 60.9192 149.703 72.0679 144.389 78.3206L144.407 78.3293Z" fill="url(#paint1_radial_142_17205)"/>
</g>
<g style="mix-blend-mode:multiply" opacity="0.4">
<path opacity="0.4" d="M161.408 66.8066C157.756 53.5099 143.207 46.8572 131.058 48.9704C134.18 43.3264 132.736 35.6476 130.475 29.9167C127.71 22.89 118.9 17.4026 110.665 16.9765C108.882 16.8808 107.012 16.9765 105.125 17.1678C103.856 17.2113 101.873 17.5591 100.768 17.8287C95.1592 19.0375 89.6805 21.4116 85.6628 24.751C83.2539 26.7425 80.6363 30.0384 78.897 33.6474C73.74 31.7168 67.6874 31.5429 62.7739 32.9604C51.8078 36.1172 43.4506 48.266 45.016 59.5104C45.016 59.7104 45.016 59.9191 45.0334 60.1191C41.9897 59.8234 38.6155 60.2843 35.6326 61.1018C34.8673 61.2844 34.5195 61.4062 33.5716 61.754C32.0671 62.2932 30.7018 62.9193 29.6582 63.5803C23.2577 67.6675 18.4834 76.0682 21.4402 83.7297C25.2579 93.6349 35.9022 95.2959 45.3204 96.5481C50.8425 97.2786 56.4169 97.0873 61.826 96.0524C65.3133 97.6352 69.1223 98.7309 72.8965 99.4614C82.2973 101.705 92.3242 101.957 101.934 102.27C109.873 102.531 117.718 101.731 125.457 100.044C131.04 101.314 137.223 101.035 142.076 99.7223C151.468 97.1917 161.191 89.0258 162.26 78.5032C162.904 73.6941 162.599 71.0939 161.408 66.8066ZM155.825 84.8515C153.207 91.0781 147.285 95.6524 139.893 97.0786C133.493 98.3135 126.327 98.8527 120.109 96.4264C117.665 95.4698 115.561 94.0697 113.691 92.2434C113.3 91.8695 112.848 91.4521 112.43 91.0086C114.126 94.4262 117.022 96.8438 120.509 98.4265C113.943 99.4614 107.221 99.7484 100.655 99.5832C93.7504 99.4092 77.4795 99.044 68.2353 95.8698C64.6176 94.8263 61.1477 93.2696 58.017 91.226C54.5559 88.9736 50.7469 85.8864 48.4337 82.147C49.999 87.417 53.5645 91.2781 58.0692 94.061C57.33 94.1566 56.5908 94.2436 55.8429 94.2958C47.9032 94.8958 38.7198 93.4348 31.4932 90.0693C22.7359 85.9908 22.1968 74.9551 28.2668 68.4154C31.928 64.4586 39.1373 62.5889 45.3291 63.0324C45.7291 65.6674 46.5813 68.2067 47.851 70.5373C46.8422 65.6239 46.59 60.3887 47.6336 55.5448C48.7032 48.7791 52.2427 42.6394 58.104 38.1347C60.3042 36.7346 62.7826 35.7171 65.5133 35.2214C69.8354 34.4475 74.0444 34.8388 77.8447 36.265C76.836 39.2479 76.5925 42.2742 77.6882 44.8483C77.2099 40.7523 78.9057 36.4215 81.4363 33.1865C84.1496 29.134 88.1325 25.6815 91.5763 23.8292C97.5507 20.6116 104.403 19.281 111.1 20.4376C120.848 22.116 123.97 25.7772 127.092 30.5341C130.588 35.8476 130.579 43.9439 128.188 49.6922C124.727 50.8053 121.527 52.849 118.865 55.9709C121.996 53.9186 126.214 52.7185 129.701 52.3272C133.893 51.8489 138.302 52.0402 142.346 53.3446C147.32 54.9622 152.816 58.7016 155.399 63.6411C156.668 65.9109 160.095 76.6422 155.825 84.8689V84.8515Z" fill="#6F8AA4"/>
</g>
<path style="mix-blend-mode:screen" d="M87.6367 29.5599C78.0098 38.6389 80.21 49.1267 80.21 49.1267C83.2363 67.8761 123.692 61.1973 123.413 39.7347C123.144 18.2721 97.2722 20.4722 87.6367 29.5512V29.5599Z" fill="url(#paint2_radial_142_17205)"/>
<path style="mix-blend-mode:screen" d="M77.4712 49.3005C75.7406 46.1176 74.584 41.4911 75.4188 37.5865C64.818 34.4471 55.4259 41.4042 52.0082 50.7093C47.1122 64.0495 53.2866 75.6591 53.2866 75.6591C62.1917 89.7298 88.559 76.3983 92.4289 60.9362C86.3154 58.7708 80.6453 55.1357 77.4625 49.3092L77.4712 49.3005Z" fill="url(#paint3_radial_142_17205)"/>
<path style="mix-blend-mode:screen" d="M50.2515 72.1724L48.3035 71.2419C48.3035 71.2419 45.8947 67.9894 44.3467 64.0674C44.3467 64.0674 28.2932 64.7805 28.0758 75.2161C27.8671 85.33 47.3035 83.9994 47.3035 83.9994C47.3035 83.9994 55.4172 74.0682 50.2515 72.1724Z" fill="url(#paint4_radial_142_17205)"/>
<path style="mix-blend-mode:screen" d="M105.804 75.7207C102.786 69.0071 111.508 57.6062 125.257 54.5885C139.015 51.5709 148.407 57.6062 151.086 67.6679C153.764 77.7295 141.024 85.1041 128.275 84.7736C115.526 84.4344 109.004 82.8343 105.804 75.7207Z" fill="url(#paint5_radial_142_17205)"/>
<path d="M198.933 100.226C195.681 88.3818 182.714 82.4509 171.887 84.3293C174.67 79.3028 173.383 72.4588 171.366 67.3541C168.905 61.0927 161.06 56.2053 153.721 55.8227C152.129 55.7357 150.468 55.8227 148.79 55.9966C147.651 56.0314 145.885 56.3445 144.911 56.588C139.911 57.6663 135.032 59.7795 131.449 62.7537C129.31 64.5277 126.971 67.4584 125.423 70.6848C120.822 68.9716 115.431 68.815 111.056 70.076C101.282 72.8936 93.8376 83.7119 95.2377 93.7301C95.2377 93.9127 95.2377 94.0954 95.2551 94.278C92.5506 94.0171 89.5416 94.4171 86.8805 95.1563C86.2022 95.3128 85.8892 95.4346 85.0456 95.739C83.7064 96.226 82.4889 96.7738 81.5584 97.3652C75.8536 101.009 71.601 108.488 74.236 115.314C77.6363 124.141 87.124 125.628 95.516 126.733C100.438 127.394 105.404 127.22 110.222 126.298C113.326 127.707 116.718 128.689 120.083 129.333C128.458 131.333 137.389 131.551 145.955 131.829C153.034 132.064 160.017 131.351 166.913 129.846C171.887 130.977 177.392 130.724 181.723 129.559C190.089 127.307 198.75 120.028 199.707 110.653C200.281 106.375 200.003 104.053 198.95 100.235L198.933 100.226Z" fill="url(#paint6_radial_142_17205)"/>
<g style="mix-blend-mode:multiply" opacity="0.3">
<path d="M198.933 100.226C195.681 88.3818 182.714 82.4509 171.887 84.3293C174.67 79.3028 173.383 72.4588 171.366 67.3541C168.905 61.0927 161.06 56.2053 153.721 55.8227C152.129 55.7357 150.468 55.8227 148.79 55.9966C147.651 56.0314 145.885 56.3445 144.911 56.588C139.911 57.6663 135.032 59.7795 131.449 62.7537C129.31 64.5277 126.971 67.4584 125.423 70.6848C120.822 68.9716 115.431 68.815 111.056 70.076C101.282 72.8936 93.8376 83.7119 95.2377 93.7301C95.2377 93.9127 95.2377 94.0954 95.2551 94.278C92.5506 94.0171 89.5416 94.4171 86.8805 95.1563C86.2022 95.3128 85.8892 95.4346 85.0456 95.739C83.7064 96.226 82.4889 96.7738 81.5584 97.3652C75.8536 101.009 71.601 108.488 74.236 115.314C77.6363 124.141 87.124 125.628 95.516 126.733C100.438 127.394 105.404 127.22 110.222 126.298C113.326 127.707 116.718 128.689 120.083 129.333C128.458 131.333 137.389 131.551 145.955 131.829C153.034 132.064 160.017 131.351 166.913 129.846C171.887 130.977 177.392 130.724 181.723 129.559C190.089 127.307 198.75 120.028 199.707 110.653C200.281 106.375 200.003 104.053 198.95 100.235L198.933 100.226ZM183.793 110.488C175.088 120.75 153.921 120.141 147.546 107.905C147.503 112.253 148.346 116.41 150.92 120.263C151.912 121.776 143.302 124.272 129.388 122.689C121.196 121.758 98.9511 120.324 98.2206 111.445C97.4379 112.793 97.3249 114.358 97.4379 115.48C79.4625 120.932 68.479 100.757 94.629 97.7739C95.5334 99.7132 96.203 102.626 98.438 105.018C97.6901 97.6956 98.9163 89.3732 100.569 85.999C108.639 69.5281 122.553 73.7459 122.536 74.2329C122.423 78.8332 123.318 81.3987 125.675 84.4337C124.327 76.4765 127.501 72.0762 132.336 68.215C137.598 64.0147 144.433 61.7014 151.216 62.3189C157.13 62.858 163.33 65.6148 164.6 72.0501C166.183 80.0768 162.678 86.7208 157.712 92.4952C165.113 88.2949 173.548 84.9294 181.158 90.669C186.871 94.9737 188.524 104.914 183.793 110.488Z" fill="url(#paint7_radial_142_17205)"/>
</g>
<g style="mix-blend-mode:multiply" opacity="0.4">
<path opacity="0.4" d="M198.933 100.226C195.681 88.3818 182.714 82.4509 171.887 84.3293C174.67 79.3028 173.383 72.4588 171.366 67.3541C168.905 61.0927 161.06 56.2053 153.721 55.8227C152.129 55.7357 150.468 55.8227 148.79 55.9966C147.651 56.0314 145.885 56.3445 144.911 56.588C139.911 57.6663 135.032 59.7795 131.449 62.7537C129.31 64.5277 126.971 67.4584 125.423 70.6848C120.822 68.9716 115.431 68.815 111.056 70.076C101.282 72.8936 93.8376 83.7119 95.2377 93.7301C95.2377 93.9127 95.2377 94.0954 95.2551 94.278C92.5506 94.0171 89.5416 94.4171 86.8805 95.1563C86.2022 95.3128 85.8892 95.4346 85.0456 95.739C83.7064 96.226 82.4889 96.7738 81.5584 97.3652C75.8536 101.009 71.601 108.488 74.236 115.314C77.6363 124.141 87.124 125.628 95.516 126.733C100.438 127.394 105.404 127.22 110.222 126.298C113.326 127.707 116.718 128.689 120.083 129.333C128.458 131.333 137.389 131.551 145.955 131.829C153.034 132.064 160.017 131.351 166.913 129.846C171.887 130.977 177.392 130.724 181.723 129.559C190.089 127.307 198.75 120.028 199.707 110.653C200.281 106.375 200.003 104.053 198.95 100.235L198.933 100.226ZM193.959 116.297C191.619 121.845 186.349 125.924 179.766 127.194C174.061 128.298 167.678 128.785 162.139 126.611C159.965 125.759 158.086 124.515 156.417 122.88C156.077 122.55 155.669 122.176 155.295 121.776C156.808 124.82 159.391 126.968 162.495 128.385C156.651 129.316 150.66 129.568 144.807 129.42C138.65 129.263 124.153 128.942 115.926 126.107C112.7 125.167 109.613 123.793 106.821 121.967C103.743 119.958 100.351 117.21 98.2815 113.88C99.6816 118.576 102.847 122.019 106.865 124.498C106.204 124.585 105.552 124.663 104.882 124.715C97.8032 125.246 89.6286 123.95 83.1846 120.95C75.384 117.323 74.9057 107.488 80.3061 101.652C83.5759 98.1305 89.9938 96.4695 95.5073 96.8608C95.8639 99.2088 96.6204 101.47 97.7597 103.54C96.8639 99.1566 96.6378 94.4954 97.5683 90.182C98.5163 84.1554 101.673 78.6854 106.9 74.6677C108.856 73.4154 111.065 72.511 113.509 72.0675C117.361 71.3805 121.109 71.737 124.492 72.998C123.597 75.6504 123.379 78.3549 124.353 80.6421C123.927 76.9983 125.44 73.1284 127.701 70.2499C130.119 66.641 133.667 63.5624 136.737 61.9101C142.059 59.0403 148.172 57.8576 154.129 58.8838C162.817 60.3883 165.6 63.6407 168.383 67.8758C171.496 72.6067 171.487 79.8246 169.357 84.9468C166.278 85.9382 163.426 87.7557 161.052 90.5385C163.843 88.7036 167.591 87.6427 170.705 87.2861C174.435 86.86 178.366 87.0339 181.975 88.1992C186.41 89.6341 191.306 92.9648 193.611 97.3652C194.741 99.3827 197.794 108.949 193.994 116.28L193.959 116.297Z" fill="#39556E"/>
</g>
<path style="mix-blend-mode:screen" d="M133.206 67.0325C124.623 75.1288 126.588 84.4687 126.588 84.4687C129.284 101.174 165.331 95.2261 165.078 76.1028C164.835 56.9796 141.789 58.9362 133.206 67.0325Z" fill="url(#paint8_radial_142_17205)"/>
<path style="mix-blend-mode:screen" d="M124.145 84.6166C122.597 81.7816 121.57 77.6595 122.318 74.181C112.865 71.3895 104.499 77.5813 101.464 85.8689C97.1076 97.7568 102.604 108.097 102.604 108.097C110.535 120.637 134.032 108.758 137.485 94.974C132.032 93.0521 126.98 89.8084 124.153 84.6166H124.145Z" fill="url(#paint9_radial_142_17205)"/>
<path style="mix-blend-mode:screen" d="M99.8905 105.009L98.1512 104.175C98.1512 104.175 96.0032 101.279 94.6205 97.7827C94.6205 97.7827 80.315 98.4175 80.1237 107.723C79.9411 116.732 97.2555 115.549 97.2555 115.549C97.2555 115.549 104.482 106.696 99.8905 105.018V105.009Z" fill="url(#paint10_radial_142_17205)"/>
<path style="mix-blend-mode:screen" d="M149.39 108.157C146.703 102.183 154.477 92.0257 166.722 89.3298C178.975 86.6426 187.341 92.017 189.732 100.983C192.124 109.949 180.766 116.523 169.409 116.228C158.052 115.923 152.234 114.497 149.381 108.157H149.39Z" fill="url(#paint11_radial_142_17205)"/>
<path d="M12.3439 144.004C12.3439 144.004 0.342977 152.501 -0.109233 158.188C-0.561443 163.876 8.55234 166.606 10.909 158.719C13.2571 150.831 12.3526 144.004 12.3526 144.004H12.3439Z" fill="url(#paint12_radial_142_17205)"/>
<path style="mix-blend-mode:multiply" opacity="0.6" d="M12.2657 144.056C12.2657 147.092 10.8047 153.04 10.4742 154.579C9.90027 157.249 8.92628 159.466 6.40434 160.719C2.36053 162.736 -0.274464 158.684 0.899544 155.318C0.342977 156.31 -0.0396622 157.284 -0.109233 158.179C-0.561443 163.867 8.55234 166.597 10.909 158.71C13.2571 150.822 12.3526 143.996 12.3526 143.996C12.3526 143.996 12.3005 144.03 12.2744 144.056H12.2657Z" fill="url(#paint13_radial_142_17205)"/>
<path d="M7.73536 153.518C6.97008 156.101 3.97854 155.214 4.13507 153.344C4.28291 151.483 8.20497 148.709 8.20497 148.709C8.20497 148.709 8.50064 150.944 7.73536 153.518Z" fill="white"/>
<path d="M56.9564 144.004C56.9564 144.004 44.9554 152.501 44.5032 158.188C44.051 163.876 53.1648 166.606 55.5215 158.719C57.8695 150.831 56.9651 144.004 56.9651 144.004H56.9564Z" fill="url(#paint14_radial_142_17205)"/>
<path style="mix-blend-mode:multiply" opacity="0.6" d="M56.878 144.056C56.878 147.092 55.4171 153.04 55.0866 154.579C54.5126 157.249 53.5386 159.466 51.0167 160.719C46.9642 162.736 44.3379 158.684 45.5119 155.318C44.9553 156.31 44.5727 157.284 44.5031 158.179C44.0509 163.867 53.1647 166.597 55.5214 158.71C57.8694 150.822 56.965 143.996 56.965 143.996C56.965 143.996 56.9128 144.03 56.8867 144.056H56.878Z" fill="url(#paint15_radial_142_17205)"/>
<path d="M52.3471 153.518C51.5818 156.101 48.599 155.214 48.7468 153.344C48.8947 151.483 52.8167 148.709 52.8167 148.709C52.8167 148.709 53.1124 150.944 52.3471 153.518Z" fill="white"/>
<path d="M102.899 144.004C102.899 144.004 90.8982 152.501 90.4459 158.188C89.9937 163.876 99.1075 166.606 101.464 158.719C103.812 150.831 102.908 144.004 102.908 144.004H102.899Z" fill="url(#paint16_radial_142_17205)"/>
<path style="mix-blend-mode:multiply" opacity="0.6" d="M102.821 144.056C102.821 147.092 101.36 153.04 101.029 154.579C100.455 157.249 99.4901 159.466 96.9595 160.719C92.9157 162.736 90.2807 158.684 91.4547 155.318C90.8981 156.31 90.5155 157.284 90.4459 158.179C89.9937 163.867 99.1075 166.597 101.464 158.71C103.812 150.822 102.908 143.996 102.908 143.996C102.908 143.996 102.856 144.03 102.83 144.056H102.821Z" fill="url(#paint17_radial_142_17205)"/>
<path d="M98.29 153.518C97.5247 156.101 94.5332 155.214 94.6897 153.344C94.8375 151.483 98.7596 148.709 98.7596 148.709C98.7596 148.709 99.0553 150.944 98.29 153.518Z" fill="white"/>
<path d="M147.503 144.004C147.503 144.004 135.502 152.501 135.049 158.188C134.597 163.876 143.711 166.606 146.059 158.719C148.407 150.831 147.503 144.004 147.503 144.004Z" fill="url(#paint18_radial_142_17205)"/>
<path style="mix-blend-mode:multiply" opacity="0.6" d="M147.425 144.056C147.425 147.092 145.964 153.04 145.633 154.579C145.059 157.249 144.085 159.466 141.563 160.719C137.519 162.736 134.893 158.684 136.058 155.318C135.502 156.31 135.119 157.284 135.05 158.179C134.597 163.867 143.711 166.597 146.059 158.71C148.407 150.822 147.503 143.996 147.503 143.996C147.503 143.996 147.451 144.03 147.425 144.056Z" fill="url(#paint19_radial_142_17205)"/>
<path d="M142.902 153.518C142.137 156.101 139.146 155.214 139.302 153.344C139.45 151.483 143.372 148.709 143.372 148.709C143.372 148.709 143.668 150.944 142.902 153.518Z" fill="white"/>
<path d="M191.672 144.004C191.672 144.004 179.671 152.5 179.218 158.188C178.757 163.875 187.88 166.606 190.228 158.718C192.585 150.831 191.672 144.004 191.672 144.004Z" fill="url(#paint20_radial_142_17205)"/>
<path style="mix-blend-mode:multiply" opacity="0.6" d="M191.584 144.056C191.584 147.092 190.123 153.04 189.793 154.579C189.219 157.249 188.254 159.466 185.723 160.719C181.679 162.736 179.053 158.684 180.218 155.318C179.662 156.31 179.279 157.284 179.209 158.179C178.748 163.867 187.871 166.597 190.219 158.71C192.576 150.822 191.663 143.996 191.663 143.996C191.663 143.996 191.61 144.03 191.584 144.056Z" fill="url(#paint21_radial_142_17205)"/>
<path d="M187.054 153.518C186.289 156.101 183.306 155.214 183.454 153.344C183.601 151.483 187.532 148.709 187.532 148.709C187.532 148.709 187.828 150.944 187.054 153.518Z" fill="white"/>
<path d="M30.9367 162.684C30.9367 162.684 18.9358 171.18 18.4835 176.867C18.0313 182.555 27.1451 185.285 29.5018 177.398C31.8498 169.51 30.9454 162.684 30.9454 162.684H30.9367Z" fill="url(#paint22_radial_142_17205)"/>
<path style="mix-blend-mode:multiply" opacity="0.6" d="M30.8585 162.736C30.8585 165.771 29.3975 171.72 29.067 173.259C28.493 175.92 27.5191 178.137 24.9971 179.398C20.9446 181.416 18.3183 177.363 19.4923 173.998C18.9358 174.989 18.5531 175.963 18.4835 176.859C18.0313 182.546 27.1451 185.277 29.5018 177.39C31.8498 169.502 30.9454 162.675 30.9454 162.675C30.9454 162.675 30.9019 162.71 30.8671 162.727L30.8585 162.736Z" fill="url(#paint23_radial_142_17205)"/>
<path d="M26.3281 172.198C25.5629 174.781 22.5713 173.885 22.7278 172.024C22.8757 170.163 26.7977 167.389 26.7977 167.389C26.7977 167.389 27.0934 169.615 26.3281 172.198Z" fill="white"/>
<path d="M75.5491 162.684C75.5491 162.684 63.5482 171.18 63.096 176.867C62.6438 182.555 71.7575 185.285 74.1056 177.398C76.4536 169.51 75.5491 162.684 75.5491 162.684Z" fill="url(#paint24_radial_142_17205)"/>
<path style="mix-blend-mode:multiply" opacity="0.6" d="M75.4708 162.736C75.4708 165.771 74.0098 171.72 73.6794 173.259C73.1054 175.92 72.1314 178.137 69.6095 179.398C65.5657 181.416 62.9307 177.363 64.1047 173.998C63.5481 174.989 63.1655 175.963 63.0959 176.859C62.6437 182.546 71.7575 185.277 74.1055 177.39C76.4535 169.502 75.5491 162.675 75.5491 162.675C75.5491 162.675 75.4969 162.71 75.4708 162.727V162.736Z" fill="url(#paint25_radial_142_17205)"/>
<path d="M70.9404 172.198C70.1752 174.781 67.1923 173.885 67.3401 172.024C67.488 170.163 71.41 167.389 71.41 167.389C71.41 167.389 71.7057 169.615 70.9404 172.198Z" fill="white"/>
<path d="M121.492 162.684C121.492 162.684 109.491 171.18 109.039 176.867C108.587 182.555 117.7 185.285 120.048 177.398C122.396 169.51 121.492 162.684 121.492 162.684Z" fill="url(#paint26_radial_142_17205)"/>
<path style="mix-blend-mode:multiply" opacity="0.6" d="M121.414 162.736C121.414 165.771 119.953 171.72 119.622 173.259C119.048 175.92 118.074 178.137 115.552 179.398C111.508 181.416 108.873 177.363 110.047 173.998C109.491 174.989 109.108 175.963 109.039 176.859C108.587 182.546 117.7 185.277 120.048 177.39C122.396 169.502 121.492 162.675 121.492 162.675C121.492 162.675 121.44 162.71 121.414 162.727V162.736Z" fill="url(#paint27_radial_142_17205)"/>
<path d="M116.883 172.198C116.117 174.781 113.126 173.885 113.282 172.024C113.43 170.163 117.361 167.389 117.361 167.389C117.361 167.389 117.657 169.615 116.891 172.198H116.883Z" fill="white"/>
<path d="M166.095 162.684C166.095 162.684 154.094 171.18 153.642 176.867C153.19 182.555 162.304 185.285 164.661 177.398C167.009 169.51 166.104 162.684 166.104 162.684H166.095Z" fill="url(#paint28_radial_142_17205)"/>
<path style="mix-blend-mode:multiply" opacity="0.6" d="M166.025 162.736C166.025 165.771 164.564 171.72 164.234 173.259C163.66 175.92 162.686 178.137 160.164 179.398C156.12 181.416 153.485 177.363 154.659 173.998C154.103 174.989 153.72 175.963 153.651 176.859C153.198 182.546 162.312 185.277 164.669 177.39C167.017 169.502 166.112 162.675 166.112 162.675C166.112 162.675 166.06 162.71 166.034 162.727L166.025 162.736Z" fill="url(#paint29_radial_142_17205)"/>
<path d="M161.495 172.198C160.73 174.781 157.738 173.885 157.895 172.024C158.043 170.163 161.973 167.389 161.973 167.389C161.973 167.389 162.269 169.615 161.504 172.198H161.495Z" fill="white"/>
</g>
<defs>
<radialGradient id="paint0_radial_142_17205" cx="0" cy="0" r="1" gradientUnits="userSpaceOnUse" gradientTransform="translate(97.255 -79.7444) scale(182.467 182.467)">
<stop offset="0.16" stop-color="#BCBCBC"/>
<stop offset="0.69" stop-color="#92BAC0"/>
<stop offset="1" stop-color="#549CC6"/>
</radialGradient>
<radialGradient id="paint1_radial_142_17205" cx="0" cy="0" r="1" gradientUnits="userSpaceOnUse" gradientTransform="translate(97.255 -79.7444) scale(182.467 182.467)">
<stop offset="0.39" stop-color="#92BAC0"/>
<stop offset="1" stop-color="#549CC6"/>
</radialGradient>
<radialGradient id="paint2_radial_142_17205" cx="0" cy="0" r="1" gradientUnits="userSpaceOnUse" gradientTransform="translate(101.89 -1.73825) scale(56.3872 56.3872)">
<stop offset="0.52" stop-color="#BCBCBC"/>
<stop offset="0.7" stop-color="#92BAC0"/>
<stop offset="0.99" stop-color="#549CC6"/>
</radialGradient>
<radialGradient id="paint3_radial_142_17205" cx="0" cy="0" r="1" gradientUnits="userSpaceOnUse" gradientTransform="translate(51.5995 39.3518) scale(40.4293 40.4294)">
<stop offset="0.15" stop-color="#BCBCBC"/>
<stop offset="0.46" stop-color="#92BAC0"/>
<stop offset="0.99" stop-color="#549CC6"/>
</radialGradient>
<radialGradient id="paint4_radial_142_17205" cx="0" cy="0" r="1" gradientUnits="userSpaceOnUse" gradientTransform="translate(21.0492 58.7278) scale(29.6807 29.6807)">
<stop offset="0.15" stop-color="#BCBCBC"/>
<stop offset="0.46" stop-color="#92BAC0"/>
<stop offset="0.99" stop-color="#549CC6"/>
</radialGradient>
<radialGradient id="paint5_radial_142_17205" cx="0" cy="0" r="1" gradientUnits="userSpaceOnUse" gradientTransform="translate(134.763 12.6895) scale(65.0487 65.0487)">
<stop offset="0.55" stop-color="#BCBCBC"/>
<stop offset="0.74" stop-color="#92BAC0"/>
<stop offset="0.99" stop-color="#549CC6"/>
</radialGradient>
<radialGradient id="paint6_radial_142_17205" cx="0" cy="0" r="1" gradientUnits="userSpaceOnUse" gradientTransform="translate(141.772 -30.3582) scale(162.578 162.578)">
<stop offset="0.16" stop-color="#757575"/>
<stop offset="0.69" stop-color="#51797F"/>
<stop offset="1" stop-color="#17658C"/>
</radialGradient>
<radialGradient id="paint7_radial_142_17205" cx="0" cy="0" r="1" gradientUnits="userSpaceOnUse" gradientTransform="translate(141.772 -30.3582) scale(162.578 162.578)">
<stop offset="0.39" stop-color="#51797F"/>
<stop offset="1" stop-color="#17658C"/>
</radialGradient>
<radialGradient id="paint8_radial_142_17205" cx="0" cy="0" r="1" gradientUnits="userSpaceOnUse" gradientTransform="translate(145.903 39.1433) scale(50.2475)">
<stop offset="0.52" stop-color="#757575"/>
<stop offset="0.7" stop-color="#51797F"/>
<stop offset="0.99" stop-color="#17658C"/>
</radialGradient>
<radialGradient id="paint9_radial_142_17205" cx="0" cy="0" r="1" gradientUnits="userSpaceOnUse" gradientTransform="translate(101.091 75.755) scale(36.0203 36.0203)">
<stop offset="0.15" stop-color="#757575"/>
<stop offset="0.46" stop-color="#51797F"/>
<stop offset="0.99" stop-color="#17658C"/>
</radialGradient>
<radialGradient id="paint10_radial_142_17205" cx="0" cy="0" r="1" gradientUnits="userSpaceOnUse" gradientTransform="translate(73.871 93.0258) scale(26.4456 26.4456)">
<stop offset="0.15" stop-color="#757575"/>
<stop offset="0.46" stop-color="#51797F"/>
<stop offset="0.99" stop-color="#17658C"/>
</radialGradient>
<radialGradient id="paint11_radial_142_17205" cx="0" cy="0" r="1" gradientUnits="userSpaceOnUse" gradientTransform="translate(175.192 51.9964) scale(57.9612 57.9612)">
<stop offset="0.55" stop-color="#757575"/>
<stop offset="0.74" stop-color="#51797F"/>
<stop offset="0.99" stop-color="#17658C"/>
</radialGradient>
<radialGradient id="paint12_radial_142_17205" cx="0" cy="0" r="1" gradientUnits="userSpaceOnUse" gradientTransform="translate(0.116873 148.761) scale(15.4969)">
<stop offset="0.1" stop-color="#BCBCBC"/>
<stop offset="0.54" stop-color="#92BAC0"/>
<stop offset="1" stop-color="#549CC6"/>
</radialGradient>
<radialGradient id="paint13_radial_142_17205" cx="0" cy="0" r="1" gradientUnits="userSpaceOnUse" gradientTransform="translate(0.116873 148.761) scale(15.4969)">
<stop offset="0.68" stop-color="#92BAC0"/>
<stop offset="1" stop-color="#549CC6"/>
</radialGradient>
<radialGradient id="paint14_radial_142_17205" cx="0" cy="0" r="1" gradientUnits="userSpaceOnUse" gradientTransform="translate(44.7206 17.3768) scale(15.4969 15.4969)">
<stop offset="0.1" stop-color="#BCBCBC"/>
<stop offset="0.54" stop-color="#92BAC0"/>
<stop offset="1" stop-color="#549CC6"/>
</radialGradient>
<radialGradient id="paint15_radial_142_17205" cx="0" cy="0" r="1" gradientUnits="userSpaceOnUse" gradientTransform="translate(44.7205 17.3767) scale(15.4969 15.4969)">
<stop offset="0.68" stop-color="#92BAC0"/>
<stop offset="1" stop-color="#549CC6"/>
</radialGradient>
<radialGradient id="paint16_radial_142_17205" cx="0" cy="0" r="1" gradientUnits="userSpaceOnUse" gradientTransform="translate(90.672 17.3768) scale(15.4969)">
<stop offset="0.1" stop-color="#BCBCBC"/>
<stop offset="0.54" stop-color="#92BAC0"/>
<stop offset="1" stop-color="#549CC6"/>
</radialGradient>
<radialGradient id="paint17_radial_142_17205" cx="0" cy="0" r="1" gradientUnits="userSpaceOnUse" gradientTransform="translate(90.672 17.3767) scale(15.4969)">
<stop offset="0.68" stop-color="#92BAC0"/>
<stop offset="1" stop-color="#549CC6"/>
</radialGradient>
<radialGradient id="paint18_radial_142_17205" cx="0" cy="0" r="1" gradientUnits="userSpaceOnUse" gradientTransform="translate(135.276 17.3768) scale(15.4969 15.4969)">
<stop offset="0.1" stop-color="#BCBCBC"/>
<stop offset="0.54" stop-color="#92BAC0"/>
<stop offset="1" stop-color="#549CC6"/>
</radialGradient>
<radialGradient id="paint19_radial_142_17205" cx="0" cy="0" r="1" gradientUnits="userSpaceOnUse" gradientTransform="translate(135.276 17.3767) scale(15.4969 15.4969)">
<stop offset="0.68" stop-color="#92BAC0"/>
<stop offset="1" stop-color="#549CC6"/>
</radialGradient>
<radialGradient id="paint20_radial_142_17205" cx="0" cy="0" r="1" gradientUnits="userSpaceOnUse" gradientTransform="translate(179.436 17.3763) scale(15.4969 15.4969)">
<stop offset="0.1" stop-color="#BCBCBC"/>
<stop offset="0.54" stop-color="#92BAC0"/>
<stop offset="1" stop-color="#549CC6"/>
</radialGradient>
<radialGradient id="paint21_radial_142_17205" cx="0" cy="0" r="1" gradientUnits="userSpaceOnUse" gradientTransform="translate(179.435 17.3767) scale(15.4969 15.4969)">
<stop offset="0.68" stop-color="#92BAC0"/>
<stop offset="1" stop-color="#549CC6"/>
</radialGradient>
<radialGradient id="paint22_radial_142_17205" cx="0" cy="0" r="1" gradientUnits="userSpaceOnUse" gradientTransform="translate(18.7096 167.44) scale(15.4969)">
<stop offset="0.1" stop-color="#BCBCBC"/>
<stop offset="0.54" stop-color="#92BAC0"/>
<stop offset="1" stop-color="#549CC6"/>
</radialGradient>
<radialGradient id="paint23_radial_142_17205" cx="0" cy="0" r="1" gradientUnits="userSpaceOnUse" gradientTransform="translate(18.7096 167.441) scale(15.4969)">
<stop offset="0.68" stop-color="#92BAC0"/>
<stop offset="1" stop-color="#549CC6"/>
</radialGradient>
<radialGradient id="paint24_radial_142_17205" cx="0" cy="0" r="1" gradientUnits="userSpaceOnUse" gradientTransform="translate(63.3221 167.44) scale(15.4969 15.4969)">
<stop offset="0.1" stop-color="#BCBCBC"/>
<stop offset="0.54" stop-color="#92BAC0"/>
<stop offset="1" stop-color="#549CC6"/>
</radialGradient>
<radialGradient id="paint25_radial_142_17205" cx="0" cy="0" r="1" gradientUnits="userSpaceOnUse" gradientTransform="translate(63.322 167.441) scale(15.4969 15.4969)">
<stop offset="0.68" stop-color="#92BAC0"/>
<stop offset="1" stop-color="#549CC6"/>
</radialGradient>
<radialGradient id="paint26_radial_142_17205" cx="0" cy="0" r="1" gradientUnits="userSpaceOnUse" gradientTransform="translate(109.265 167.44) scale(15.4969 15.4969)">
<stop offset="0.1" stop-color="#BCBCBC"/>
<stop offset="0.54" stop-color="#92BAC0"/>
<stop offset="1" stop-color="#549CC6"/>
</radialGradient>
<radialGradient id="paint27_radial_142_17205" cx="0" cy="0" r="1" gradientUnits="userSpaceOnUse" gradientTransform="translate(109.265 167.441) scale(15.4969 15.4969)">
<stop offset="0.68" stop-color="#92BAC0"/>
<stop offset="1" stop-color="#549CC6"/>
</radialGradient>
<radialGradient id="paint28_radial_142_17205" cx="0" cy="0" r="1" gradientUnits="userSpaceOnUse" gradientTransform="translate(153.868 167.44) scale(15.4969 15.4969)">
<stop offset="0.1" stop-color="#BCBCBC"/>
<stop offset="0.54" stop-color="#92BAC0"/>
<stop offset="1" stop-color="#549CC6"/>
</radialGradient>
<radialGradient id="paint29_radial_142_17205" cx="0" cy="0" r="1" gradientUnits="userSpaceOnUse" gradientTransform="translate(153.868 167.441) scale(15.4969)">
<stop offset="0.68" stop-color="#92BAC0"/>
<stop offset="1" stop-color="#549CC6"/>
</radialGradient>
<clipPath id="clip0_142_17205">
<rect width="200" height="200" fill="white"/>
</clipPath>
</defs>
</svg>
