<svg width="200" height="200" viewBox="0 0 200 200" fill="none" xmlns="http://www.w3.org/2000/svg">
<g clip-path="url(#clip0_142_17031)">
<path d="M198.33 110.229C193.17 91.4454 172.618 82.0476 155.456 85.0327C159.866 77.0599 157.827 66.2125 154.633 58.1169C150.726 48.1908 138.282 40.4391 126.648 39.8372C124.13 39.7021 121.489 39.8372 118.823 40.1075C117.029 40.1689 114.229 40.6603 112.668 41.0411C104.745 42.7487 97.0053 46.1024 91.3298 50.8197C87.9269 53.633 84.2292 58.2889 81.7722 63.387C74.4874 60.6598 65.9372 60.4141 58.9963 62.4165C43.5053 66.8759 31.6996 84.0377 33.9109 99.9218C33.9109 100.204 33.9109 100.499 33.9355 100.782C29.6358 100.364 24.8693 101.015 20.6557 102.17C19.5746 102.428 19.0832 102.6 17.7442 103.091C15.6189 103.853 13.6902 104.737 12.2161 105.671C3.17449 111.445 -3.56983 123.312 0.606979 134.135C5.99998 148.127 21.0365 150.474 34.3409 152.243C42.1417 153.274 50.0162 153.004 57.6573 151.542C62.5835 153.778 67.9642 155.326 73.2958 156.358C86.5756 159.527 100.74 159.884 114.315 160.326C125.53 160.694 136.611 159.564 147.545 157.181C155.432 158.975 164.166 158.581 171.021 156.726C184.288 153.152 198.023 141.616 199.534 126.752C200.443 119.958 200.013 116.285 198.33 110.229Z" fill="url(#paint0_radial_142_17031)"/>
<g style="mix-blend-mode:multiply" opacity="0.3">
<path d="M198.33 110.229C193.17 91.4454 172.618 82.0476 155.456 85.0327C159.866 77.0599 157.827 66.2125 154.633 58.1169C150.726 48.1908 138.282 40.4391 126.648 39.8372C124.13 39.7021 121.489 39.8372 118.823 40.1075C117.029 40.1689 114.229 40.6603 112.668 41.0411C104.745 42.7487 97.0053 46.1024 91.3298 50.8197C87.9269 53.633 84.2292 58.2889 81.7722 63.387C74.4874 60.6598 65.9372 60.4141 58.9963 62.4165C43.5053 66.8759 31.6996 84.0377 33.9109 99.9218C33.9109 100.204 33.9109 100.499 33.9355 100.782C29.6358 100.364 24.8693 101.015 20.6557 102.17C19.5746 102.428 19.0832 102.6 17.7442 103.091C15.6189 103.853 13.6902 104.737 12.2161 105.671C3.17449 111.445 -3.56983 123.312 0.606979 134.135C5.99998 148.127 21.0365 150.474 34.3409 152.243C42.1417 153.274 50.0162 153.004 57.6573 151.542C62.5835 153.778 67.9642 155.326 73.2958 156.358C86.5756 159.527 100.74 159.884 114.315 160.326C125.53 160.694 136.611 159.564 147.545 157.181C155.432 158.975 164.166 158.581 171.021 156.726C184.288 153.152 198.023 141.616 199.534 126.752C200.443 119.958 200.013 116.285 198.33 110.229ZM174.313 126.506C160.517 142.783 126.955 141.813 116.845 122.415C116.771 129.307 118.123 135.892 122.189 142.009C123.749 144.405 110.101 148.361 88.0375 145.854C75.0525 144.38 39.783 142.108 38.6282 128.029C37.3875 130.155 37.2032 132.648 37.3875 134.43C8.89918 143.078 -8.52058 111.089 32.9404 106.359C34.3654 109.443 35.4219 114.062 38.9845 117.845C37.8052 106.236 39.7462 93.0424 42.3628 87.6985C55.1512 61.5812 77.2146 68.2641 77.19 69.038C77.0058 76.3229 78.4308 80.4137 82.1654 85.2047C80.0278 72.5883 85.0523 65.6106 92.7179 59.4928C101.059 52.8222 111.894 49.1736 122.656 50.1441C132.029 50.9917 141.857 55.3651 143.872 65.5737C146.39 78.3007 140.825 88.841 132.95 97.9809C144.695 91.3225 158.06 85.9787 170.124 95.0817C179.178 101.912 181.795 117.661 174.289 126.494L174.313 126.506Z" fill="url(#paint1_radial_142_17031)"/>
</g>
<g style="mix-blend-mode:multiply" opacity="0.4">
<path opacity="0.4" d="M198.33 110.229C193.17 91.4454 172.618 82.0476 155.456 85.0327C159.866 77.0599 157.827 66.2125 154.633 58.1169C150.726 48.1908 138.282 40.4391 126.648 39.8372C124.13 39.7021 121.489 39.8372 118.823 40.1075C117.029 40.1689 114.229 40.6603 112.668 41.0411C104.745 42.7487 97.0053 46.1024 91.3298 50.8197C87.9269 53.633 84.2292 58.2889 81.7722 63.387C74.4874 60.6598 65.9372 60.4141 58.9963 62.4165C43.5053 66.8759 31.6996 84.0377 33.9109 99.9218C33.9109 100.204 33.9109 100.499 33.9355 100.782C29.6358 100.364 24.8693 101.015 20.6557 102.17C19.5746 102.428 19.0832 102.6 17.7442 103.091C15.6189 103.853 13.6902 104.737 12.2161 105.671C3.17449 111.445 -3.56983 123.312 0.606979 134.135C5.99998 148.127 21.0365 150.474 34.3409 152.243C42.1417 153.274 50.0162 153.004 57.6573 151.542C62.5835 153.778 67.9642 155.326 73.2958 156.358C86.5756 159.527 100.74 159.884 114.315 160.326C125.53 160.694 136.611 159.564 147.545 157.181C155.432 158.975 164.166 158.581 171.021 156.726C184.288 153.152 198.023 141.616 199.534 126.752C200.443 119.958 200.013 116.285 198.33 110.229ZM190.443 135.72C186.745 144.515 178.379 150.977 167.937 152.992C158.896 154.736 148.773 155.498 139.99 152.071C136.538 150.719 133.565 148.741 130.923 146.162C130.371 145.633 129.732 145.044 129.142 144.417C131.538 149.245 135.629 152.66 140.555 154.896C131.28 156.358 121.784 156.763 112.509 156.53C102.755 156.284 79.7698 155.768 66.7111 151.284C61.6007 149.81 56.6991 147.611 52.2766 144.724C47.3873 141.543 42.0065 137.181 38.7388 131.899C40.9501 139.344 45.9868 144.798 52.3503 148.729C51.3061 148.864 50.2619 148.987 49.2054 149.061C37.9894 149.908 25.0168 147.845 14.8081 143.09C2.43741 137.329 1.67575 121.74 10.2505 112.501C15.4224 106.912 25.6064 104.271 34.3532 104.897C34.9182 108.619 36.1222 112.207 37.9157 115.499C36.4907 108.558 36.1344 101.163 37.6086 94.32C39.1196 84.7625 44.1195 76.0895 52.3994 69.726C55.5075 67.7481 59.0086 66.3108 62.866 65.6106C68.9715 64.5172 74.9174 65.07 80.2858 67.0847C78.8608 71.2984 78.5168 75.5735 80.0647 79.2098C79.389 73.4237 81.7845 67.3059 85.3594 62.7359C89.1922 57.0113 94.8186 52.1342 99.6834 49.5176C108.123 44.9722 117.803 43.0926 127.263 44.7265C141.034 47.0975 145.444 52.2693 149.854 58.9891C154.793 66.4951 154.78 77.9322 151.402 86.0524C146.513 87.6248 141.992 90.5117 138.233 94.922C142.655 92.0228 148.613 90.3275 153.54 89.7746C159.461 89.099 165.689 89.3693 171.402 91.212C178.429 93.4969 186.192 98.7794 189.841 105.757C191.635 108.963 196.475 124.123 190.443 135.744V135.72Z" fill="#6F8AA4"/>
</g>
<path style="mix-blend-mode:screen" d="M94.1185 57.6135C80.5193 70.4387 83.6273 85.2541 83.6273 85.2541C87.9024 111.74 145.051 102.305 144.658 71.9866C144.277 41.6679 107.73 44.7759 94.1185 57.6012V57.6135Z" fill="url(#paint2_radial_142_17031)"/>
<path style="mix-blend-mode:screen" d="M79.7576 85.4996C77.313 81.0034 75.6791 74.4679 76.8584 68.9521C61.8833 64.5173 48.6158 74.3451 43.7879 87.4898C36.8716 106.335 45.5938 122.735 45.5938 122.735C58.1733 142.611 95.4207 123.779 100.887 101.937C92.2512 98.8777 84.2416 93.7427 79.7453 85.5119L79.7576 85.4996Z" fill="url(#paint3_radial_142_17031)"/>
<path style="mix-blend-mode:screen" d="M41.3062 117.809L38.5544 116.494C38.5544 116.494 35.1516 111.9 32.9649 106.359C32.9649 106.359 10.2873 107.367 9.98014 122.108C9.68531 136.396 37.1417 134.516 37.1417 134.516C37.1417 134.516 48.6034 120.487 41.3062 117.809Z" fill="url(#paint4_radial_142_17031)"/>
<path style="mix-blend-mode:screen" d="M119.781 122.821C115.519 113.337 127.84 97.2321 147.262 92.9693C166.697 88.7065 179.964 97.2321 183.748 111.446C187.532 125.659 169.535 136.076 151.525 135.61C133.516 135.13 124.302 132.87 119.781 122.821Z" fill="url(#paint5_radial_142_17031)"/>
</g>
<defs>
<radialGradient id="paint0_radial_142_17031" cx="0" cy="0" r="1" gradientUnits="userSpaceOnUse" gradientTransform="translate(107.705 -96.7937) scale(257.758 257.758)">
<stop offset="0.16" stop-color="#BCBCBC"/>
<stop offset="0.69" stop-color="#92BAC0"/>
<stop offset="1" stop-color="#549CC6"/>
</radialGradient>
<radialGradient id="paint1_radial_142_17031" cx="0" cy="0" r="1" gradientUnits="userSpaceOnUse" gradientTransform="translate(107.705 -96.7937) scale(257.758 257.758)">
<stop offset="0.39" stop-color="#92BAC0"/>
<stop offset="1" stop-color="#549CC6"/>
</radialGradient>
<radialGradient id="paint2_radial_142_17031" cx="0" cy="0" r="1" gradientUnits="userSpaceOnUse" gradientTransform="translate(114.253 13.4007) scale(79.6542 79.6542)">
<stop offset="0.52" stop-color="#BCBCBC"/>
<stop offset="0.7" stop-color="#92BAC0"/>
<stop offset="0.99" stop-color="#549CC6"/>
</radialGradient>
<radialGradient id="paint3_radial_142_17031" cx="0" cy="0" r="1" gradientUnits="userSpaceOnUse" gradientTransform="translate(43.2105 71.4459) scale(57.1117 57.1117)">
<stop offset="0.15" stop-color="#BCBCBC"/>
<stop offset="0.46" stop-color="#92BAC0"/>
<stop offset="0.99" stop-color="#549CC6"/>
</radialGradient>
<radialGradient id="paint4_radial_142_17031" cx="0" cy="0" r="1" gradientUnits="userSpaceOnUse" gradientTransform="translate(0.054074 98.8165) scale(41.9278 41.9278)">
<stop offset="0.15" stop-color="#BCBCBC"/>
<stop offset="0.46" stop-color="#92BAC0"/>
<stop offset="0.99" stop-color="#549CC6"/>
</radialGradient>
<radialGradient id="paint5_radial_142_17031" cx="0" cy="0" r="1" gradientUnits="userSpaceOnUse" gradientTransform="translate(160.69 33.7814) scale(91.8898 91.8898)">
<stop offset="0.55" stop-color="#BCBCBC"/>
<stop offset="0.74" stop-color="#92BAC0"/>
<stop offset="0.99" stop-color="#549CC6"/>
</radialGradient>
<clipPath id="clip0_142_17031">
<rect width="200" height="200" fill="white"/>
</clipPath>
</defs>
</svg>
