<svg width="200" height="200" viewBox="0 0 200 200" fill="none" xmlns="http://www.w3.org/2000/svg">
<path d="M81.6544 199.165C81.3766 199.165 81.1483 199.145 81.0094 199.145C76.9705 199.115 73.5668 197.716 71.1653 195.086C66.67 190.174 67.1662 182.831 67.2356 182.007C67.4043 180.082 69.0814 178.653 70.9966 178.842C72.9019 179.01 74.321 180.687 74.1622 182.603C74.053 184.012 74.2217 188.15 76.3057 190.402C77.4072 191.593 78.985 192.179 81.1185 192.179C81.2079 192.179 81.2972 192.179 81.3865 192.179C81.3865 192.179 84.7704 192.357 86.9039 190.343C88.2535 189.073 88.9283 187.048 88.9283 184.339V110.598C88.9283 108.673 90.4863 107.115 92.4015 107.115C94.3167 107.115 95.8747 108.673 95.8747 110.598V184.339C95.8747 189.102 94.4259 192.853 91.5878 195.493C88.0352 198.788 83.5101 199.165 81.6445 199.165H81.6544Z" fill="url(#paint0_linear_142_17120)"/>
<path style="mix-blend-mode:multiply" opacity="0.6" d="M92.4114 107.115C90.4962 107.115 88.9382 108.673 88.9382 110.598V125.334C90.5359 125.265 92.1534 125.414 93.7313 125.662V184.835C93.7313 188.884 92.5107 192.069 90.0894 194.312C87.0627 197.111 83.2223 197.438 81.6346 197.438C81.3964 197.438 81.2079 197.428 81.0888 197.418C77.6553 197.398 74.7576 196.208 72.7134 193.975C68.9028 189.797 69.3195 183.555 69.3791 182.861C69.5279 181.223 70.9569 180.003 72.5744 180.171C72.9515 180.201 73.3088 180.32 73.6363 180.479C73.0805 179.586 72.1279 178.941 70.9966 178.851C69.0814 178.663 67.4043 180.102 67.2356 182.017C67.1662 182.841 66.67 190.184 71.1653 195.096C73.5668 197.726 76.9705 199.125 81.0094 199.155C81.1483 199.155 81.3766 199.175 81.6544 199.175C83.52 199.175 88.0451 198.798 91.5977 195.503C94.4358 192.863 95.8847 189.112 95.8847 184.349V110.608C95.8847 108.683 94.3267 107.125 92.4114 107.125V107.115Z" fill="url(#paint1_linear_142_17120)"/>
<path d="M90.0597 39.3477C45.4636 40.5385 9.69947 74.8637 9.69947 105.22C9.69947 108.732 9.65977 110.102 10.5827 113.436C10.5827 113.436 24.148 113.615 51.5368 125.523C53.2238 93.4603 64.467 70.944 74.2814 57.1603C79.898 49.2711 85.5346 43.4262 90.0597 39.3576V39.3477Z" fill="url(#paint2_radial_142_17120)"/>
<path style="mix-blend-mode:multiply" opacity="0.4" d="M82.2896 39.9032C82.5774 40.1711 83.4705 40.3498 83.8476 40.3002C91.1512 39.2185 79.9278 48.229 78.1019 50.2137C72.1379 56.6739 66.3327 64.5432 61.7083 72.0651C56.8558 79.9741 53.2734 88.7763 50.3857 97.4196C48.1826 104.009 45.0568 109.109 37.8622 110.429C30.9257 111.699 19.4741 110.31 14.3238 105.081C12.1208 102.838 11.1384 99.5134 10.7712 96.0402C10.0666 99.1165 9.69947 102.183 9.69947 105.219C9.69947 108.732 9.65977 110.102 10.5827 113.436C10.5827 113.436 24.148 113.615 51.5368 125.523C53.2238 93.4601 64.467 70.9438 74.2814 57.1601C79.898 49.271 85.5346 43.426 90.0597 39.3574C87.4299 39.4269 84.8399 39.6154 82.2797 39.9131L82.2896 39.9032Z" fill="url(#paint3_radial_142_17120)"/>
<path d="M93.7512 40.4487C81.208 51.4638 57.3421 78.4854 54.9803 126.068C54.9803 126.068 78.2309 118.546 124.901 126.515C117.488 58.5293 98.326 43.1777 93.7512 40.4487Z" fill="url(#paint4_radial_142_17120)"/>
<path style="mix-blend-mode:multiply" opacity="0.4" d="M93.7512 40.4487C81.208 51.4638 57.3421 78.4854 54.9803 126.068C54.9803 126.068 78.2309 118.546 124.901 126.515C117.488 58.5293 98.326 43.1777 93.7512 40.4487ZM99.7252 112.592C93.0368 111.848 87.3605 112.503 80.692 113.436C75.1448 114.21 66.6701 114.428 65.5289 107.105C63.8916 96.5957 67.7419 84.6577 71.7906 75.0618C75.6905 65.8329 80.8111 55.0064 87.9956 47.8715C88.075 47.802 88.1544 47.7623 88.2338 47.7127C97.8 35.5962 108.091 65.1581 109.321 70.3382C111.524 79.6861 121.1 114.954 99.7152 112.582L99.7252 112.592Z" fill="url(#paint5_radial_142_17120)"/>
<path d="M97.9089 39.4766C105.391 45.252 121.596 64.5928 128.324 125.93C128.324 125.93 145.71 118.031 175.223 113.654C175.431 112.017 175.123 106.887 175.123 105.219C175.123 75.588 141.026 42.136 97.9189 39.4766H97.9089Z" fill="url(#paint6_radial_142_17120)"/>
<path style="mix-blend-mode:multiply" opacity="0.4" d="M174.578 98.7297C174.29 99.4144 173.973 100.069 173.576 100.685C170.499 105.478 165.806 107.284 160.417 108.534C150.692 110.787 137.673 113.109 132.631 102.034C125.754 86.9208 123.293 69.0387 113.191 55.4039C110.81 52.1887 102.792 45.4209 104.082 40.6973C104.141 40.4691 104.25 40.3103 104.33 40.1217C102.206 39.834 100.073 39.6057 97.8993 39.4668C105.382 45.2423 121.587 64.5831 128.315 125.92C128.315 125.92 145.701 118.021 175.213 113.645C175.421 112.007 175.114 106.877 175.114 105.21C175.114 103.066 174.915 100.903 174.578 98.7297Z" fill="url(#paint7_radial_142_17120)"/>
<path d="M54.0177 129.105C54.0177 129.949 53.3429 130.624 52.4895 130.624C51.6361 130.624 50.9712 129.949 50.9712 129.105C50.9712 128.262 51.6559 127.577 52.4895 127.577C53.3231 127.577 54.0177 128.262 54.0177 129.105Z" fill="url(#paint8_linear_142_17120)"/>
<path d="M13.4107 116.115C13.4107 116.959 12.726 117.633 11.8924 117.633C11.0588 117.633 10.3642 116.959 10.3642 116.115C10.3642 115.272 11.039 114.587 11.8924 114.587C12.7458 114.587 13.4107 115.272 13.4107 116.115Z" fill="url(#paint9_linear_142_17120)"/>
<path d="M127.938 129.105C127.938 129.949 127.253 130.624 126.419 130.624C125.586 130.624 124.901 129.949 124.901 129.105C124.901 128.262 125.576 127.577 126.419 127.577C127.263 127.577 127.938 128.262 127.938 129.105Z" fill="url(#paint10_linear_142_17120)"/>
<path d="M176.642 116.115C176.642 116.959 175.957 117.633 175.114 117.633C174.27 117.633 173.595 116.959 173.595 116.115C173.595 115.272 174.28 114.587 175.114 114.587C175.947 114.587 176.642 115.272 176.642 116.115Z" fill="url(#paint11_linear_142_17120)"/>
<path d="M92.342 39.3476H95.2695L94.3962 27.1318C94.3962 27.1318 93.9596 26.2585 93.4237 27.1318L92.342 39.3476Z" fill="url(#paint12_linear_142_17120)"/>
<path d="M158.581 0.765137C158.581 0.765137 148.429 7.95965 148.042 12.7725C147.655 17.5854 155.376 19.8976 157.37 13.2191C159.355 6.54059 158.581 0.765137 158.581 0.765137Z" fill="url(#paint13_radial_142_17120)"/>
<path style="mix-blend-mode:multiply" opacity="0.6" d="M158.521 0.814754C158.521 3.38493 157.281 8.42605 157.003 9.72602C156.517 11.9786 155.693 13.8542 153.55 14.9259C150.126 16.6327 147.903 13.2092 148.896 10.3512C148.429 11.1947 148.102 12.0183 148.042 12.7725C147.655 17.5854 155.376 19.8976 157.37 13.2191C159.355 6.54059 158.581 0.765137 158.581 0.765137C158.581 0.765137 158.541 0.794907 158.521 0.814754Z" fill="url(#paint14_radial_142_17120)"/>
<path d="M154.691 8.82268C154.036 11.0058 151.515 10.2517 151.644 8.67383C151.773 7.10592 155.098 4.74414 155.098 4.74414C155.098 4.74414 155.346 6.63952 154.701 8.82268H154.691Z" fill="white"/>
<path d="M161.082 39.4858C161.082 39.4858 150.92 46.6803 150.533 51.4932C150.146 56.3061 157.867 58.6183 159.861 51.9398C161.846 45.2613 161.082 39.4858 161.082 39.4858Z" fill="url(#paint15_radial_142_17120)"/>
<path style="mix-blend-mode:multiply" opacity="0.6" d="M161.022 39.5262C161.022 42.0964 159.782 47.1375 159.504 48.4374C159.017 50.6901 158.194 52.5656 156.06 53.6373C152.627 55.3343 150.404 51.9107 151.396 49.0626C150.93 49.9061 150.602 50.7198 150.543 51.484C150.156 56.2968 157.876 58.609 159.871 51.9305C161.856 45.252 161.091 39.4766 161.091 39.4766C161.091 39.4766 161.052 39.5063 161.022 39.5262Z" fill="url(#paint16_radial_142_17120)"/>
<path d="M157.182 47.5341C156.527 49.7173 153.996 48.9631 154.135 47.3853C154.254 45.8173 157.579 43.4556 157.579 43.4556C157.579 43.4556 157.827 45.3509 157.182 47.5341Z" fill="white"/>
<path d="M185.444 68.2349C185.444 68.2349 175.282 75.4294 174.895 80.2422C174.508 85.0551 182.229 87.3673 184.223 80.6888C186.208 74.0103 185.444 68.2349 185.444 68.2349Z" fill="url(#paint17_radial_142_17120)"/>
<path style="mix-blend-mode:multiply" opacity="0.6" d="M185.374 68.2845C185.374 70.8547 184.134 75.8958 183.856 77.1957C183.37 79.4484 182.546 81.3239 180.403 82.3956C176.979 84.1025 174.746 80.6789 175.749 77.8209C175.272 78.6644 174.955 79.4881 174.895 80.2422C174.508 85.0551 182.229 87.3673 184.223 80.6888C186.208 74.0103 185.444 68.2349 185.444 68.2349C185.444 68.2349 185.404 68.2646 185.384 68.2746L185.374 68.2845Z" fill="url(#paint18_radial_142_17120)"/>
<path d="M181.544 76.2924C180.889 78.4756 178.358 77.7214 178.497 76.1436C178.626 74.5756 181.951 72.2139 181.951 72.2139C181.951 72.2139 182.199 74.1092 181.554 76.2825L181.544 76.2924Z" fill="white"/>
<path d="M131.777 20.8008C131.777 20.8008 121.616 27.9953 121.229 32.8082C120.842 37.621 128.562 39.9332 130.557 33.2547C132.552 26.5762 131.777 20.8008 131.777 20.8008Z" fill="url(#paint19_radial_142_17120)"/>
<path style="mix-blend-mode:multiply" opacity="0.6" d="M131.708 20.8406C131.708 23.4108 130.468 28.442 130.19 29.7519C129.704 32.0144 128.88 33.8801 126.737 34.9518C123.313 36.6586 121.08 33.2251 122.073 30.3771C121.606 31.2206 121.289 32.0343 121.219 32.7984C120.832 37.6113 128.553 39.9234 130.547 33.245C132.542 26.5665 131.768 20.791 131.768 20.791C131.768 20.791 131.728 20.8208 131.699 20.8406H131.708Z" fill="url(#paint20_radial_142_17120)"/>
<path d="M127.878 28.8489C127.233 31.042 124.702 30.2779 124.831 28.7C124.95 27.1321 128.285 24.7803 128.285 24.7803C128.285 24.7803 128.533 26.6657 127.878 28.8489Z" fill="white"/>
<path d="M190.842 32.8281C190.842 32.8281 180.681 40.0226 180.303 44.8355C179.916 49.6484 187.637 51.9606 189.631 45.2821C191.626 38.6036 190.852 32.8281 190.852 32.8281H190.842Z" fill="url(#paint21_radial_142_17120)"/>
<path style="mix-blend-mode:multiply" opacity="0.6" d="M190.783 32.8777C190.783 35.4479 189.542 40.489 189.264 41.789C188.778 44.0516 187.954 45.9172 185.811 46.9889C182.387 48.6957 180.155 45.2721 181.147 42.4142C180.681 43.2577 180.353 44.0813 180.294 44.8355C179.907 49.6484 187.627 51.9606 189.622 45.2821C191.616 38.6036 190.842 32.8281 190.842 32.8281C190.842 32.8281 190.802 32.8579 190.783 32.8678V32.8777Z" fill="url(#paint22_radial_142_17120)"/>
<path d="M186.952 40.8759C186.298 43.0591 183.777 42.3049 183.906 40.7271C184.025 39.1492 187.359 36.7974 187.359 36.7974C187.359 36.7974 187.607 38.6927 186.962 40.866L186.952 40.8759Z" fill="white"/>
<path style="mix-blend-mode:screen" d="M10.9002 107.045C10.9002 107.045 9.17351 87.4962 30.1616 65.9326C51.1497 44.3689 85.0781 40.9155 85.0781 40.9155C85.0781 40.9155 16.3581 54.1435 10.8903 107.045H10.9002Z" fill="url(#paint23_radial_142_17120)"/>
<path style="mix-blend-mode:screen" d="M174.181 106.093C174.181 106.093 175.907 86.5436 154.919 64.9799C133.931 43.4163 100.003 39.9629 100.003 39.9629C100.003 39.9629 168.723 53.1809 174.191 106.093H174.181Z" fill="url(#paint24_radial_142_17120)"/>
<defs>
<linearGradient id="paint0_linear_142_17120" x1="81.5353" y1="103.126" x2="81.5353" y2="189.003" gradientUnits="userSpaceOnUse">
<stop stop-color="white"/>
<stop offset="0.43" stop-color="#B6BDCC"/>
<stop offset="0.85" stop-color="#868A95"/>
</linearGradient>
<linearGradient id="paint1_linear_142_17120" x1="81.5353" y1="0.765024" x2="81.5353" y2="0.765024" gradientUnits="userSpaceOnUse">
<stop stop-color="white"/>
<stop offset="0.43" stop-color="#B6BDCC"/>
<stop offset="0.85" stop-color="#868A95"/>
</linearGradient>
<radialGradient id="paint2_radial_142_17120" cx="0" cy="0" r="1" gradientUnits="userSpaceOnUse" gradientTransform="translate(43.2011 48.6856) scale(76.748 76.748)">
<stop stop-color="white"/>
<stop offset="0.43" stop-color="#FF443E"/>
<stop offset="1" stop-color="#951100"/>
</radialGradient>
<radialGradient id="paint3_radial_142_17120" cx="0" cy="0" r="1" gradientUnits="userSpaceOnUse" gradientTransform="translate(43.2011 48.6855) scale(76.748 76.748)">
<stop stop-color="white"/>
<stop offset="0.43" stop-color="#FF443E"/>
<stop offset="1" stop-color="#951100"/>
</radialGradient>
<radialGradient id="paint4_radial_142_17120" cx="0" cy="0" r="1" gradientUnits="userSpaceOnUse" gradientTransform="translate(95.726 52.9027) scale(75.1901 75.19)">
<stop stop-color="white"/>
<stop offset="0.43" stop-color="#FF443E"/>
<stop offset="1" stop-color="#951100"/>
</radialGradient>
<radialGradient id="paint5_radial_142_17120" cx="0" cy="0" r="1" gradientUnits="userSpaceOnUse" gradientTransform="translate(95.726 52.9027) scale(75.1901 75.19)">
<stop stop-color="white"/>
<stop offset="0.43" stop-color="#FF443E"/>
<stop offset="1" stop-color="#951100"/>
</radialGradient>
<radialGradient id="paint6_radial_142_17120" cx="0" cy="0" r="1" gradientUnits="userSpaceOnUse" gradientTransform="translate(152.845 51.7519) scale(72.1833 72.1832)">
<stop offset="0.07" stop-color="white"/>
<stop offset="0.43" stop-color="#FF443E"/>
<stop offset="1" stop-color="#951100"/>
</radialGradient>
<radialGradient id="paint7_radial_142_17120" cx="0" cy="0" r="1" gradientUnits="userSpaceOnUse" gradientTransform="translate(152.845 51.752) scale(72.1832 72.1833)">
<stop stop-color="white"/>
<stop offset="0.43" stop-color="#FF443E"/>
<stop offset="1" stop-color="#951100"/>
</radialGradient>
<linearGradient id="paint8_linear_142_17120" x1="52.4895" y1="23.4404" x2="52.4895" y2="190.214" gradientUnits="userSpaceOnUse">
<stop stop-color="white"/>
<stop offset="0.43" stop-color="#FF443E"/>
<stop offset="0.85" stop-color="#951100"/>
</linearGradient>
<linearGradient id="paint9_linear_142_17120" x1="11.8825" y1="23.3705" x2="11.8825" y2="190.253" gradientUnits="userSpaceOnUse">
<stop stop-color="white"/>
<stop offset="0.43" stop-color="#FF443E"/>
<stop offset="0.85" stop-color="#951100"/>
</linearGradient>
<linearGradient id="paint10_linear_142_17120" x1="126.419" y1="0.765264" x2="126.419" y2="0.765264" gradientUnits="userSpaceOnUse">
<stop stop-color="white"/>
<stop offset="0.43" stop-color="#FF443E"/>
<stop offset="0.85" stop-color="#951100"/>
</linearGradient>
<linearGradient id="paint11_linear_142_17120" x1="175.123" y1="23.3705" x2="175.123" y2="190.253" gradientUnits="userSpaceOnUse">
<stop stop-color="white"/>
<stop offset="0.43" stop-color="#FF443E"/>
<stop offset="0.85" stop-color="#951100"/>
</linearGradient>
<linearGradient id="paint12_linear_142_17120" x1="93.8107" y1="24.3433" x2="93.8107" y2="41.0147" gradientUnits="userSpaceOnUse">
<stop offset="0.43" stop-color="#FF443E"/>
<stop offset="0.85" stop-color="#951100"/>
</linearGradient>
<radialGradient id="paint13_radial_142_17120" cx="0" cy="0" r="1" gradientUnits="userSpaceOnUse" gradientTransform="translate(148.231 4.79406) scale(13.1188 13.1188)">
<stop offset="0.1" stop-color="#BCBCBC"/>
<stop offset="0.54" stop-color="#92BAC0"/>
<stop offset="1" stop-color="#549CC6"/>
</radialGradient>
<radialGradient id="paint14_radial_142_17120" cx="0" cy="0" r="1" gradientUnits="userSpaceOnUse" gradientTransform="translate(148.231 4.79406) scale(13.1188 13.1188)">
<stop offset="0.68" stop-color="#92BAC0"/>
<stop offset="1" stop-color="#549CC6"/>
</radialGradient>
<radialGradient id="paint15_radial_142_17120" cx="0" cy="0" r="1" gradientUnits="userSpaceOnUse" gradientTransform="translate(150.732 43.5148) scale(13.1188 13.1188)">
<stop offset="0.1" stop-color="#BCBCBC"/>
<stop offset="0.54" stop-color="#92BAC0"/>
<stop offset="1" stop-color="#549CC6"/>
</radialGradient>
<radialGradient id="paint16_radial_142_17120" cx="0" cy="0" r="1" gradientUnits="userSpaceOnUse" gradientTransform="translate(150.731 43.5154) scale(13.1188 13.1188)">
<stop offset="0.68" stop-color="#92BAC0"/>
<stop offset="1" stop-color="#549CC6"/>
</radialGradient>
<radialGradient id="paint17_radial_142_17120" cx="0" cy="0" r="1" gradientUnits="userSpaceOnUse" gradientTransform="translate(175.084 72.2638) scale(13.1188)">
<stop offset="0.1" stop-color="#BCBCBC"/>
<stop offset="0.54" stop-color="#92BAC0"/>
<stop offset="1" stop-color="#549CC6"/>
</radialGradient>
<radialGradient id="paint18_radial_142_17120" cx="0" cy="0" r="1" gradientUnits="userSpaceOnUse" gradientTransform="translate(175.084 72.2638) scale(13.1188)">
<stop offset="0.68" stop-color="#92BAC0"/>
<stop offset="1" stop-color="#549CC6"/>
</radialGradient>
<radialGradient id="paint19_radial_142_17120" cx="0" cy="0" r="1" gradientUnits="userSpaceOnUse" gradientTransform="translate(121.427 24.8297) scale(13.1188 13.1188)">
<stop offset="0.1" stop-color="#BCBCBC"/>
<stop offset="0.54" stop-color="#92BAC0"/>
<stop offset="1" stop-color="#549CC6"/>
</radialGradient>
<radialGradient id="paint20_radial_142_17120" cx="0" cy="0" r="1" gradientUnits="userSpaceOnUse" gradientTransform="translate(121.428 24.8299) scale(13.1188 13.1188)">
<stop offset="0.68" stop-color="#92BAC0"/>
<stop offset="1" stop-color="#549CC6"/>
</radialGradient>
<radialGradient id="paint21_radial_142_17120" cx="0" cy="0" r="1" gradientUnits="userSpaceOnUse" gradientTransform="translate(180.492 36.857) scale(13.1188 13.1188)">
<stop offset="0.1" stop-color="#BCBCBC"/>
<stop offset="0.54" stop-color="#92BAC0"/>
<stop offset="1" stop-color="#549CC6"/>
</radialGradient>
<radialGradient id="paint22_radial_142_17120" cx="0" cy="0" r="1" gradientUnits="userSpaceOnUse" gradientTransform="translate(180.492 36.857) scale(13.1188 13.1188)">
<stop offset="0.68" stop-color="#92BAC0"/>
<stop offset="1" stop-color="#549CC6"/>
</radialGradient>
<radialGradient id="paint23_radial_142_17120" cx="0" cy="0" r="1" gradientUnits="userSpaceOnUse" gradientTransform="translate(34.4783 56.158) scale(48.9921 48.9921)">
<stop offset="0.08" stop-color="white"/>
<stop offset="0.59" stop-color="#FF443E"/>
<stop offset="0.99" stop-color="#951100"/>
</radialGradient>
<radialGradient id="paint24_radial_142_17120" cx="0" cy="0" r="1" gradientUnits="userSpaceOnUse" gradientTransform="translate(150.613 55.2053) rotate(-180) scale(48.9921 48.9921)">
<stop offset="0.08" stop-color="white"/>
<stop offset="0.59" stop-color="#FF443E"/>
<stop offset="0.99" stop-color="#951100"/>
</radialGradient>
</defs>
</svg>
