<svg width="200" height="200" viewBox="0 0 200 200" fill="none" xmlns="http://www.w3.org/2000/svg">
<path d="M194.489 90.3988C193.608 89.7781 192.386 89.9983 191.765 90.8794L186.7 98.0977H178.27L185.748 87.4254C186.369 86.5443 186.159 85.3229 185.268 84.7122C184.387 84.0915 183.165 84.3118 182.555 85.1928L173.504 98.0977H166.166L177.159 82.4296C177.779 81.5486 177.569 80.3372 176.678 79.7164C175.797 79.0957 174.586 79.316 173.965 80.197L162.912 95.9452L136.051 49.4114L156.084 48.9709C157.165 48.9509 158.016 48.0498 157.996 46.9786C157.966 45.9074 157.105 45.0163 156.004 45.0664L136.021 45.5069L139.745 39.1696L156.094 38.8091C157.175 38.7791 158.026 37.8881 158.006 36.8068C157.986 35.7356 157.045 34.8546 156.014 34.9046L142.078 35.215L146.823 27.1457L156.004 27.6362C156.004 27.6362 156.074 27.6362 156.114 27.6362C157.145 27.6362 158.006 26.8353 158.056 25.7841C158.117 24.7129 157.296 23.7918 156.214 23.7317L147.194 23.2512L143.99 15.7725C143.57 14.7814 142.418 14.3208 141.427 14.7513C140.436 15.1718 139.976 16.3232 140.396 17.3143L143.65 24.9331C143.59 25.0132 143.5 25.0733 143.45 25.1634L139.275 32.2516L134.299 20.6181C133.878 19.627 132.727 19.1664 131.736 19.5869C130.745 20.0074 130.284 21.1587 130.715 22.1399L136.822 36.4164L133.038 42.8538L125.519 25.2835C125.098 24.2924 123.947 23.8318 122.956 24.2523C121.975 24.6828 121.504 25.8241 121.925 26.8053L129.654 44.8862H74.4197L82.1487 26.8053C82.5692 25.8241 82.1086 24.6728 81.1275 24.2523C80.1363 23.8218 78.985 24.2924 78.5645 25.2835L70.6354 43.8249L66.861 37.3775L73.3685 22.1499C73.789 21.1587 73.3385 20.0174 72.3473 19.5969C71.3662 19.1664 70.2049 19.627 69.7844 20.6281L64.4082 33.1927L60.0631 25.7841L63.6773 17.3243C64.1078 16.3332 63.6373 15.1818 62.6561 14.7613C61.665 14.3308 60.5237 14.8014 60.0932 15.7825L56.8995 23.2612L47.8791 23.7417C46.7978 23.8018 45.9769 24.7129 46.0369 25.7941C46.087 26.8353 46.958 27.6462 47.9792 27.6462C48.0092 27.6462 48.0492 27.6462 48.0893 27.6462L56.3789 27.2057L61.0543 35.195L48.0893 34.9046C46.998 34.8546 46.117 35.7356 46.097 36.8068C46.077 37.8781 46.928 38.7691 48.0092 38.8091L63.377 39.1395L67.0813 45.4769L48.0993 45.0564C46.938 44.9963 46.127 45.8973 46.107 46.9686C46.087 48.0398 46.938 48.9409 48.0192 48.9609L67.2014 49.3814L39.189 97.9075L26.9549 80.3972C26.3442 79.5162 25.1227 79.306 24.2417 79.9167C23.3607 80.5374 23.1405 81.7488 23.7612 82.6298L34.5536 98.0977H27.2252L18.3449 85.383C17.7242 84.502 16.5128 84.2817 15.6218 84.9024C14.7407 85.5132 14.5305 86.7346 15.1412 87.6156L22.4597 98.0977H14.0299L9.10422 91.0496C8.49351 90.1685 7.2721 89.9483 6.39108 90.559C5.51007 91.1797 5.28981 92.3911 5.90052 93.2721L10.5559 99.9398L6.20086 107.859C5.68026 108.8 6.02066 109.991 6.97176 110.512C7.2721 110.672 7.59247 110.752 7.91284 110.752C8.60364 110.752 9.27442 110.392 9.61481 109.741L13.8797 102.002H23.3507L15.7719 113.596C15.1913 114.497 15.4415 115.708 16.3426 116.299C16.673 116.509 17.0434 116.619 17.4038 116.619C18.0345 116.619 18.6653 116.309 19.0457 115.728L28.0161 102.012H35.4847L24.4019 118.972C23.8112 119.873 24.0715 121.084 24.9626 121.675C25.2929 121.885 25.6634 121.985 26.0338 121.985C26.6745 121.985 27.2953 121.675 27.6657 121.104L39.5694 102.893L66.891 150.218L47.7189 151.85C46.6376 151.94 45.8467 152.881 45.9368 153.962C46.0269 155.034 46.958 155.824 48.0492 155.744L67.5918 154.082L63.8575 160.43L47.7189 161.801C46.6376 161.891 45.8467 162.843 45.9368 163.914C46.0269 164.985 46.958 165.796 48.0492 165.696L61.4347 164.555L57.1398 171.853L47.9992 172.634C46.9279 172.724 46.127 173.665 46.2271 174.746C46.3172 175.818 47.2583 176.639 48.3296 176.518L57.1598 175.778L61.0243 183.436C61.3747 184.117 62.0554 184.518 62.7663 184.518C63.0566 184.518 63.3569 184.448 63.6473 184.307C64.6084 183.817 64.9988 182.655 64.5083 181.694L60.5237 173.795L64.8987 166.367L70.8556 178.16C71.196 178.841 71.8868 179.231 72.5976 179.231C72.888 179.231 73.1883 179.161 73.4786 179.021C74.4398 178.531 74.8302 177.369 74.3396 176.398L67.2615 162.362L71.0358 155.955L79.826 173.385C80.1664 174.056 80.8572 174.456 81.578 174.456C81.8683 174.456 82.1687 174.386 82.459 174.246C83.4201 173.755 83.8106 172.584 83.32 171.623L75.0405 155.224H128.682L119.922 172.594C119.432 173.555 119.822 174.726 120.783 175.217C121.064 175.357 121.364 175.427 121.664 175.427C122.375 175.427 123.066 175.037 123.406 174.356L132.227 156.876L135.991 163.303L128.883 177.369C128.402 178.33 128.783 179.502 129.744 179.992C130.024 180.133 130.324 180.203 130.615 180.203C131.326 180.203 132.016 179.812 132.357 179.131L138.324 167.318L142.689 174.786L138.704 182.685C138.223 183.647 138.614 184.818 139.575 185.299C139.855 185.439 140.156 185.509 140.446 185.509C141.157 185.509 141.848 185.118 142.188 184.438L146.053 176.769L154.883 177.51C155.944 177.62 156.905 176.809 156.995 175.737C157.085 174.666 156.284 173.715 155.213 173.625L146.083 172.844L141.808 165.556L155.163 166.687C156.234 166.777 157.175 165.976 157.276 164.905C157.366 163.824 156.575 162.893 155.493 162.792L139.395 161.431L135.681 155.084L155.153 156.746C156.224 156.856 157.165 156.045 157.266 154.963C157.356 153.892 156.565 152.941 155.483 152.861L135.761 151.179L162.582 104.735L173.114 120.924C173.484 121.505 174.115 121.815 174.746 121.815C175.106 121.815 175.477 121.715 175.807 121.505C176.718 120.924 176.968 119.713 176.378 118.812L165.475 102.052H172.934L181.734 115.578C182.104 116.159 182.735 116.469 183.376 116.469C183.736 116.469 184.107 116.369 184.437 116.149C185.328 115.558 185.588 114.356 185.008 113.455L177.589 102.052H186.249L191.255 109.751C191.635 110.332 192.256 110.632 192.897 110.632C193.257 110.632 193.628 110.532 193.958 110.322C194.859 109.731 195.119 108.53 194.529 107.619L189.843 100.42L194.939 93.172C195.56 92.291 195.34 91.0696 194.469 90.4489L194.489 90.3988ZM135.06 98.0977L133.188 94.8539H128.883L119.852 79.2159L121.674 76.0622L119.872 72.9486L132.627 51.2836L159.658 98.1077H135.07L135.06 98.0977ZM125.008 98.0977H105.075L114.826 81.5185H118.521L118.721 81.1681L126.76 95.0842L125.008 98.0977ZM111.272 79.8766L101.471 96.5159L91.8599 80.0969L94.2026 76.0622L94.0524 75.8019H109.21L109.06 76.0622L111.262 79.8766H111.272ZM84.7417 81.5085H88.1756L97.8769 98.0877H77.6535L76.2018 95.5748L84.5314 81.1481L84.7417 81.5085ZM77.9638 101.992H98.2573L88.8364 118.001H84.7417L84.3612 118.651L76.352 104.765L77.9638 101.982V101.992ZM92.1903 119.993L101.461 104.225L110.872 120.313L109.06 123.467L109.54 124.288H93.7221L94.2026 123.467L92.1903 119.993ZM118.521 118.011H114.046L104.675 102.002H124.708L126.6 105.286L118.881 118.651L118.521 118.021V118.011ZM116.729 70.5959H112.213L110.341 73.8497H92.9311L91.059 70.5959H86.3135L73.5687 48.8107H129.553L116.739 70.5959H116.729ZM83.27 73.1388L81.588 76.0522L83.4001 79.1958L74.3597 94.8439H69.474L67.6019 98.0877H43.5841L70.5453 51.3837L83.27 73.1288V73.1388ZM67.2915 101.992L69.474 105.767H74.67L83.2399 120.594L81.588 123.467L83.5803 126.921L70.6554 148.886L43.5841 101.992H67.2915ZM86.9342 128.933H91.049L92.5907 126.24H110.662L112.213 128.933H115.908L128.983 151.279H73.779L86.9242 128.933H86.9342ZM119.472 127.281L121.674 123.477L120.012 120.594L128.572 105.777H133.188L135.37 102.002H159.658L132.357 149.297L119.482 127.291L119.472 127.281Z" fill="url(#paint0_linear_142_17415)"/>
<path d="M84.7415 81.5084L84.5312 81.1479L76.2016 95.5746L77.6533 98.0875H97.8767L88.1754 81.5084H84.7415ZM82.8693 93.4021L86.2532 87.5253L89.6872 93.4021H82.8693Z" fill="url(#paint1_linear_142_17415)"/>
<path d="M101.471 96.5162L111.273 79.877L109.07 76.0625L109.22 75.8022H94.0626L94.2128 76.0625L91.8701 80.0972L101.481 96.5162H101.471ZM105.466 80.4877L101.491 87.2455L97.5367 80.4877H105.466Z" fill="url(#paint2_linear_142_17415)"/>
<path d="M91.0488 70.5962L92.921 73.85H110.331L112.203 70.5962H116.718L129.533 48.811H73.5486L86.2933 70.5962H91.0388H91.0488ZM121.334 53.5065L114.045 65.9008H109.5L108.149 68.2535L107.628 69.1546H95.6341L95.1135 68.2535L93.7519 65.9008H88.9964L81.7381 53.5065H121.334Z" fill="url(#paint3_linear_142_17415)"/>
<path d="M101.461 104.235L92.1903 120.003L94.2026 123.477L93.7221 124.298H109.54L109.06 123.477L110.872 120.323L101.461 104.235ZM97.8569 119.603L101.451 113.506L105.015 119.603H97.8569Z" fill="url(#paint4_linear_142_17415)"/>
<path d="M112.214 128.933L110.662 126.24H92.5909L91.0491 128.933H86.9343L73.7891 151.279H128.993L115.918 128.933H112.224H112.214ZM81.9886 146.584L89.6174 133.619H93.7622L95.1138 131.266L95.314 130.926H107.959L108.159 131.266L109.51 133.619H113.235L120.824 146.584H81.9986H81.9886Z" fill="url(#paint5_linear_142_17415)"/>
<path d="M119.872 72.9387L121.674 76.0523L119.852 79.206L128.883 94.8441H133.188L135.06 98.0878H159.648L132.617 51.2637L119.862 72.9287L119.872 72.9387ZM137.763 93.4024L137.242 92.5013L135.891 90.1586H131.576L125.258 79.216L125.729 78.4051L127.091 76.0523L125.729 73.7096L125.298 72.9588L132.577 60.5945L151.519 93.4024H137.763Z" fill="url(#paint6_linear_142_17415)"/>
<path d="M133.188 105.777H128.572L120.012 120.594L121.674 123.478L119.472 127.282L132.347 149.287L159.648 101.993H135.36L133.178 105.767L133.188 105.777ZM137.252 108.12L138.083 106.688H151.529L132.327 139.947L124.908 127.262L125.749 125.81L127.101 123.468L125.749 121.125L125.439 120.594L131.285 110.462H135.901L137.262 108.12H137.252Z" fill="url(#paint7_linear_142_17415)"/>
<path d="M195.54 100.471L198.803 95.8153C200.896 92.8119 200.175 88.6671 197.181 86.5646C196.05 85.7737 194.739 85.3532 193.357 85.3532C192.456 85.3532 191.585 85.5334 190.774 85.8738C190.754 85.6436 190.734 85.4033 190.684 85.163C190.374 83.411 189.402 81.8892 187.951 80.8681C186.83 80.0871 185.508 79.6667 184.146 79.6667C183.426 79.6667 182.725 79.7868 182.064 80.0071C181.734 78.3952 180.823 76.8935 179.371 75.8723C178.24 75.0814 176.928 74.6609 175.556 74.6609C173.404 74.6609 171.372 75.7121 170.12 77.4641L163.282 87.2154L144.06 53.9169L156.174 53.6466C157.946 53.6065 159.598 52.8857 160.829 51.6042C162.061 50.3227 162.712 48.6408 162.682 46.8587C162.632 44.8464 161.73 43.0844 160.339 41.903C161.821 40.6516 162.732 38.7694 162.682 36.697C162.632 34.4444 161.44 32.4521 159.678 31.2907C161.42 30.1694 162.622 28.2572 162.732 26.0347C162.932 22.3904 160.119 19.2468 156.464 19.0566L150.357 18.7362L148.305 13.9407C147.254 11.5079 144.861 9.91602 142.198 9.91602C141.287 9.91602 140.406 10.0962 139.575 10.4566C137.402 11.3777 135.981 13.34 135.64 15.5325C134.699 15.0319 133.638 14.7516 132.517 14.7516C131.596 14.7516 130.715 14.9418 129.874 15.3022C127.891 16.1432 126.53 17.8652 126.059 19.8375C125.328 19.5672 124.548 19.417 123.737 19.417C122.826 19.417 121.945 19.5972 121.114 19.9576C117.76 21.4093 116.198 25.3238 117.64 28.6777L122.575 40.211H81.5578L86.4935 28.6677C87.9352 25.3138 86.3634 21.3893 83.0095 19.9476C82.1785 19.5872 81.2975 19.407 80.3865 19.407C79.5755 19.407 78.7946 19.5572 78.0638 19.8275C77.9837 19.5171 77.8936 19.2168 77.7634 18.9164C77.1027 17.2745 75.8412 15.973 74.2093 15.2822C73.4084 14.9318 72.5174 14.7416 71.5963 14.7416C70.485 14.7416 69.4138 15.0119 68.4727 15.5125C68.3926 15.0319 68.2624 14.5414 68.0722 14.0708C67.4114 12.4289 66.15 11.1374 64.5181 10.4366C63.7072 10.0862 62.8161 9.896 61.9051 9.896C59.242 9.896 56.8392 11.4778 55.798 13.9407L53.7557 18.7262L47.6486 19.0466C43.9844 19.2468 41.1711 22.3804 41.3713 26.0447C41.4915 28.2572 42.6829 30.1694 44.4249 31.2807C42.6628 32.4421 41.4614 34.4344 41.4214 36.697C41.3713 38.7594 42.2924 40.6415 43.7541 41.893C42.3625 43.0744 41.4614 44.8364 41.4214 46.8487C41.3814 48.6208 42.0321 50.3027 43.2635 51.5842C44.4849 52.8657 46.1469 53.5965 47.9189 53.6366L59.1819 53.8869L38.8184 89.1576L30.8091 77.6944C29.5777 75.9123 27.5353 74.8511 25.3628 74.8511C24.0013 74.8511 22.6998 75.2616 21.5785 76.0325C20.1468 77.0336 19.1857 78.4953 18.8453 80.1773C18.1745 79.947 17.4737 79.8369 16.7429 79.8369C15.3813 79.8369 14.0698 80.2573 12.9485 81.0282C11.2365 82.2296 10.2554 84.0918 10.1252 86.034C9.31428 85.6836 8.42325 85.5034 7.52221 85.5034C6.17065 85.5034 4.86914 85.9039 3.74784 86.6748C0.714337 88.8072 -0.0165079 92.952 2.07591 95.9555L5.04935 100.22L2.10595 105.577C0.343909 108.78 1.50525 112.825 4.71897 114.597C5.74015 115.148 6.83141 115.418 7.92267 115.418C8.93384 115.418 9.90496 115.198 10.786 114.777C10.786 115.188 10.836 115.588 10.9261 115.999C11.2866 117.731 12.3077 119.232 13.7895 120.204C14.9208 120.914 16.1522 121.285 17.4237 121.285C18.1345 121.285 18.8253 121.175 19.476 120.964C19.7363 122.777 20.7475 124.478 22.3994 125.57C23.5307 126.291 24.7722 126.651 26.0436 126.651C28.2962 126.651 30.3786 125.53 31.6 123.637L39.319 111.824L59.1319 146.144L47.3182 147.145C43.674 147.455 40.9609 150.679 41.2612 154.313C41.4114 156.095 42.2323 157.647 43.4638 158.748C41.962 160.09 41.081 162.102 41.2612 164.264C41.4414 166.367 42.5527 168.149 44.1646 169.24C42.4125 170.572 41.3513 172.744 41.5516 175.097C41.8419 178.511 44.7352 181.174 48.1292 181.174C48.3394 181.174 48.5597 181.174 48.7699 181.144L54.3964 180.663L56.8392 185.499C57.9705 187.742 60.2532 189.153 62.7761 189.153C63.8273 189.153 64.8785 188.893 65.8196 188.412C67.922 187.341 69.2135 185.269 69.3937 183.036C70.3548 183.567 71.4561 183.857 72.5974 183.857C73.6286 183.857 74.6598 183.607 75.5809 183.146C77.443 182.195 78.6745 180.503 79.0849 178.611C79.8558 178.921 80.6968 179.082 81.5578 179.082C82.589 179.082 83.6102 178.841 84.5312 178.381C86.1331 177.57 87.3145 176.198 87.8651 174.516C88.4157 172.814 88.2856 171.022 87.4746 169.43L82.629 159.839H121.033L115.707 170.412C114.906 171.983 114.766 173.785 115.327 175.477C115.877 177.159 117.059 178.521 118.641 179.332C119.522 179.792 120.573 180.043 121.634 180.043C122.495 180.043 123.336 179.883 124.107 179.572C124.517 181.464 125.749 183.166 127.601 184.097C128.492 184.568 129.523 184.808 130.595 184.808C131.746 184.808 132.837 184.518 133.798 183.987C133.848 184.518 133.948 185.038 134.119 185.549C134.679 187.241 135.861 188.603 137.442 189.394C138.353 189.854 139.395 190.104 140.416 190.104C142.939 190.104 145.211 188.713 146.343 186.46L148.786 181.615L154.452 182.095C154.592 182.115 154.813 182.125 155.043 182.125C158.447 182.125 161.34 179.462 161.63 176.048C161.831 173.685 160.759 171.503 158.997 170.161C160.619 169.07 161.741 167.278 161.921 165.226C162.101 163.053 161.21 161.031 159.698 159.689C160.94 158.588 161.771 157.036 161.921 155.284C162.071 153.512 161.52 151.79 160.369 150.428C159.218 149.077 157.616 148.246 155.844 148.106L143.499 147.055L162.792 113.626L169.159 123.407C170.381 125.289 172.463 126.431 174.726 126.431C176.017 126.431 177.268 126.06 178.36 125.349C179.821 124.398 180.853 122.917 181.223 121.175C181.253 121.034 181.273 120.894 181.293 120.754C181.954 120.974 182.645 121.075 183.356 121.075C184.647 121.075 185.898 120.694 186.98 119.993C188.882 118.752 189.933 116.699 189.993 114.587C190.874 115.008 191.855 115.238 192.877 115.238C194.168 115.238 195.429 114.867 196.501 114.167C199.564 112.164 200.435 108.049 198.443 104.986L195.49 100.441L195.54 100.471ZM194.969 93.1122L189.873 100.361L194.558 107.559C195.139 108.46 194.889 109.671 193.988 110.262C193.657 110.472 193.287 110.572 192.927 110.572C192.286 110.572 191.665 110.272 191.285 109.691L186.279 101.992H177.619L185.037 113.396C185.628 114.297 185.368 115.508 184.467 116.089C184.136 116.309 183.766 116.409 183.406 116.409C182.765 116.409 182.134 116.099 181.764 115.518L172.963 101.992H165.505L176.407 118.752C176.998 119.653 176.738 120.864 175.837 121.445C175.506 121.655 175.136 121.755 174.776 121.755C174.135 121.755 173.514 121.445 173.144 120.864L162.612 104.676L135.791 151.119L155.513 152.801C156.585 152.891 157.385 153.832 157.295 154.904C157.205 155.915 156.374 156.696 155.393 156.696C155.323 156.696 155.253 156.696 155.193 156.686L135.72 155.024L139.435 161.371L155.533 162.733C156.605 162.833 157.406 163.774 157.315 164.845C157.225 165.866 156.374 166.627 155.373 166.627C155.323 166.627 155.263 166.627 155.203 166.627L141.848 165.496L146.122 172.784L155.253 173.565C156.324 173.655 157.125 174.606 157.035 175.678C156.945 176.689 156.104 177.46 155.123 177.46C155.063 177.46 154.993 177.46 154.933 177.46L146.102 176.719L142.238 184.388C141.888 185.069 141.207 185.459 140.496 185.459C140.206 185.459 139.905 185.389 139.625 185.249C138.664 184.768 138.273 183.587 138.754 182.636L142.739 174.737L138.374 167.268L132.407 179.082C132.066 179.762 131.375 180.153 130.665 180.153C130.374 180.153 130.074 180.093 129.794 179.943C128.832 179.452 128.442 178.291 128.933 177.32L136.041 163.253L132.276 156.826L123.456 174.306C123.116 174.987 122.425 175.377 121.714 175.377C121.424 175.377 121.124 175.307 120.833 175.167C119.872 174.677 119.492 173.505 119.972 172.544L128.732 155.174H75.0903L83.3699 171.573C83.8605 172.534 83.46 173.705 82.5089 174.196C82.2286 174.336 81.9282 174.406 81.6279 174.406C80.9171 174.406 80.2263 174.016 79.8759 173.335L71.0857 155.905L67.3113 162.312L74.3895 176.348C74.8801 177.31 74.4796 178.481 73.5285 178.971C73.2482 179.112 72.9478 179.182 72.6475 179.182C71.9367 179.182 71.2459 178.791 70.9055 178.11L64.9486 166.317L60.5735 173.745L64.5582 181.645C65.0487 182.606 64.6583 183.767 63.6972 184.258C63.4168 184.408 63.1165 184.468 62.8161 184.468C62.0953 184.468 61.4145 184.077 61.0741 183.387L57.2097 175.728L48.3794 176.469C48.3094 176.479 48.2393 176.489 48.1692 176.489C47.1781 176.489 46.3571 175.708 46.267 174.697C46.1769 173.615 46.9678 172.674 48.0391 172.584L57.1796 171.803L61.4746 164.505L48.0891 165.646C48.029 165.646 47.969 165.646 47.8989 165.646C46.8877 165.646 46.0568 164.875 45.9767 163.854C45.8866 162.783 46.6775 161.842 47.7587 161.742L63.8974 160.37L67.6317 154.023L48.0891 155.685C48.0391 155.685 47.979 155.685 47.9289 155.685C46.9077 155.685 46.0668 154.914 45.9767 153.892C45.8866 152.811 46.6775 151.87 47.7587 151.78L66.9309 150.148L39.6093 102.823L27.7055 121.034C27.3351 121.605 26.7144 121.916 26.0737 121.916C25.7032 121.916 25.3328 121.815 25.0024 121.605C24.1014 121.014 23.8511 119.803 24.4418 118.902L35.5246 101.942H28.0559L19.0856 115.658C18.7152 116.229 18.0844 116.549 17.4437 116.549C17.0733 116.549 16.7128 116.439 16.3825 116.229C15.4814 115.638 15.2311 114.427 15.8118 113.526L23.3906 101.932H13.9196L9.65467 109.671C9.30427 110.312 8.6435 110.683 7.95271 110.683C7.63234 110.683 7.31197 110.602 7.01162 110.442C6.06052 109.922 5.72012 108.73 6.24073 107.789L10.5958 99.87L5.94038 93.2023C5.32967 92.3213 5.53992 91.1099 6.43095 90.4892C6.76133 90.2589 7.15178 90.1488 7.54223 90.1488C8.16295 90.1488 8.76364 90.4391 9.14408 90.9797L14.0698 98.0279H22.4995L15.1811 87.5458C14.5603 86.6547 14.7806 85.4433 15.6616 84.8326C16.012 84.5924 16.3925 84.4822 16.7829 84.4822C17.4036 84.4822 18.0043 84.7726 18.3848 85.3132L27.265 98.0279H34.5935L23.801 82.56C23.1803 81.679 23.3906 80.4576 24.2816 79.8469C24.622 79.6066 25.0124 79.4965 25.3929 79.4965C26.0036 79.4965 26.6143 79.7868 26.9947 80.3274L39.2289 97.8377L67.2412 49.3116L48.0591 48.8911C46.9778 48.8711 46.1268 47.97 46.1469 46.8988C46.1669 45.8576 46.9278 44.9866 48.029 44.9866H48.1392L67.1211 45.4071L63.4168 39.0697L48.0491 38.7393C46.9678 38.7093 46.1168 37.8183 46.1369 36.737C46.1569 35.6958 46.9878 34.8348 48.0391 34.8348H48.1292L61.0941 35.1252L56.4187 27.1359L48.1292 27.5764C48.1292 27.5764 48.0591 27.5764 48.019 27.5764C46.9978 27.5764 46.1268 26.7755 46.0768 25.7243C46.0167 24.6531 46.8477 23.732 47.9189 23.6719L56.9393 23.1914L60.133 15.7127C60.4534 14.9819 61.1742 14.5314 61.9251 14.5314C62.1854 14.5314 62.4457 14.5814 62.696 14.6915C63.6871 15.112 64.1477 16.2634 63.7172 17.2545L60.103 25.7143L64.448 33.1229L69.8242 20.5583C70.1346 19.8175 70.8554 19.377 71.6163 19.377C71.8766 19.377 72.1369 19.427 72.3872 19.5371C73.3784 19.9576 73.8389 21.109 73.4084 22.0901L66.9009 37.3177L70.6752 43.7652L78.6044 25.2237C78.9148 24.4929 79.6456 24.0424 80.4065 24.0424C80.6668 24.0424 80.9171 24.0924 81.1674 24.2025C82.1585 24.633 82.609 25.7744 82.1885 26.7555L74.4596 44.8364H129.693L121.965 26.7555C121.544 25.7744 122.005 24.623 122.996 24.2025C123.246 24.0924 123.496 24.0424 123.757 24.0424C124.517 24.0424 125.238 24.4929 125.559 25.2237L133.077 42.794L136.862 36.3566L130.755 22.0801C130.334 21.0889 130.795 19.9476 131.776 19.5271C132.026 19.417 132.286 19.3669 132.547 19.3669C133.298 19.3669 134.018 19.8075 134.339 20.5483L139.315 32.1818L143.489 25.0936C143.539 25.0035 143.63 24.9434 143.69 24.8633L140.436 17.2445C140.015 16.2533 140.476 15.102 141.467 14.6815C141.717 14.5714 141.978 14.5213 142.238 14.5213C142.989 14.5213 143.71 14.9719 144.03 15.7027L147.234 23.1814L156.254 23.6619C157.325 23.722 158.156 24.633 158.096 25.7143C158.046 26.7555 157.175 27.5664 156.154 27.5664C156.114 27.5664 156.084 27.5664 156.044 27.5664L146.863 27.0759L142.118 35.1452L156.054 34.8348H156.134C157.135 34.8348 158.026 35.6958 158.046 36.737C158.076 37.8083 157.215 38.6993 156.134 38.7393L139.785 39.0998L136.061 45.4371L156.044 44.9966H156.134C157.185 44.9966 158.016 45.8676 158.036 46.9088C158.056 47.98 157.205 48.8811 156.124 48.9011L136.091 49.3416L162.952 95.8754L174.005 80.1272C174.385 79.5866 174.996 79.3062 175.607 79.3062C175.987 79.3062 176.377 79.4164 176.718 79.6466C177.599 80.2674 177.809 81.4788 177.198 82.3598L166.206 98.0279H173.544L182.595 85.123C182.975 84.5823 183.576 84.292 184.196 84.292C184.577 84.292 184.977 84.4121 185.318 84.6424C186.199 85.2631 186.409 86.4745 185.798 87.3555L178.32 98.0279H186.749L191.815 90.8095C192.196 90.2689 192.806 89.9786 193.417 89.9786C193.808 89.9786 194.198 90.0887 194.538 90.329C195.419 90.9497 195.63 92.1611 195.009 93.0521L194.969 93.1122Z" fill="url(#paint8_linear_142_17415)"/>
<path d="M118.52 118.011L118.881 118.642L126.6 105.276L124.708 101.993H104.674L114.045 118.001H118.52V118.011ZM120.363 106.688L116.638 113.156L112.854 106.688H120.363Z" fill="url(#paint9_linear_142_17415)"/>
<path d="M118.721 81.168L118.521 81.5184H114.827L105.075 98.0975H125.008L126.76 95.0841L118.721 81.168ZM113.275 93.4021L116.859 87.3151L120.373 93.4021H113.275Z" fill="url(#paint10_linear_142_17415)"/>
<path d="M84.7419 118.011H88.8366L98.2575 102.002H77.964L76.3522 104.786L84.3614 118.672L84.7419 118.021V118.011ZM90.048 106.688L86.4238 112.845L82.8697 106.688H90.048Z" fill="url(#paint11_linear_142_17415)"/>
<path d="M81.5877 123.477L83.2397 120.604L74.6697 105.777H69.4737L67.2912 102.002H43.5838L70.6551 148.897L83.58 126.931L81.5877 123.477ZM70.6952 139.576L51.7132 106.688H64.5881L65.409 108.12L66.7606 110.462H71.9566L77.8134 120.614L77.513 121.135L76.1615 123.477L77.513 125.82L78.1338 126.901L70.6851 139.576H70.6952Z" fill="url(#paint12_linear_142_17415)"/>
<path d="M69.4737 94.854H74.3594L83.3998 79.206L81.5877 76.0623L83.2697 73.149L70.545 51.4038L43.5838 98.1078H67.6016L69.4737 94.8641V94.854ZM65.409 92.5013L64.8884 93.4024H51.7132L70.575 60.7346L77.8434 73.159L77.523 73.7096L76.1715 76.0523L77.523 78.395L77.9836 79.1959L71.6563 90.1486H66.7706L65.409 92.4913V92.5013Z" fill="url(#paint13_linear_142_17415)"/>
<defs>
<linearGradient id="paint0_linear_142_17415" x1="5.58015" y1="100.02" x2="195.32" y2="100.02" gradientUnits="userSpaceOnUse">
<stop stop-color="#C4F5FF"/>
<stop offset="0.44" stop-color="white"/>
<stop offset="1" stop-color="#B4E1FF"/>
</linearGradient>
<linearGradient id="paint1_linear_142_17415" x1="91.0688" y1="82.1091" x2="85.7927" y2="101.371" gradientUnits="userSpaceOnUse">
<stop stop-color="#ACF2FF"/>
<stop offset="0.4" stop-color="#1BB3FF"/>
<stop offset="1" stop-color="#004778"/>
</linearGradient>
<linearGradient id="paint2_linear_142_17415" x1="103.223" y1="73.9301" x2="97.0361" y2="96.5362" gradientUnits="userSpaceOnUse">
<stop stop-color="#ACF2FF"/>
<stop offset="0.4" stop-color="#1BB3FF"/>
<stop offset="1" stop-color="#004778"/>
</linearGradient>
<linearGradient id="paint3_linear_142_17415" x1="103.593" y1="41.3624" x2="94.1023" y2="76.0525" gradientUnits="userSpaceOnUse">
<stop stop-color="#ACF2FF"/>
<stop offset="0.4" stop-color="#1BB3FF"/>
<stop offset="1" stop-color="#004778"/>
</linearGradient>
<linearGradient id="paint4_linear_142_17415" x1="105.636" y1="105.146" x2="99.6289" y2="127.101" gradientUnits="userSpaceOnUse">
<stop stop-color="#ACF2FF"/>
<stop offset="0.4" stop-color="#1BB3FF"/>
<stop offset="1" stop-color="#004778"/>
</linearGradient>
<linearGradient id="paint5_linear_142_17415" x1="108.489" y1="125.299" x2="98.9883" y2="160.059" gradientUnits="userSpaceOnUse">
<stop stop-color="#ACF2FF"/>
<stop offset="0.4" stop-color="#1BB3FF"/>
<stop offset="1" stop-color="#004778"/>
</linearGradient>
<linearGradient id="paint6_linear_142_17415" x1="148.095" y1="55.048" x2="135.6" y2="100.731" gradientUnits="userSpaceOnUse">
<stop stop-color="#ACF2FF"/>
<stop offset="0.4" stop-color="#1BB3FF"/>
<stop offset="1" stop-color="#004778"/>
</linearGradient>
<linearGradient id="paint7_linear_142_17415" x1="143.72" y1="97.087" x2="128.893" y2="151.29" gradientUnits="userSpaceOnUse">
<stop stop-color="#ACF2FF"/>
<stop offset="0.4" stop-color="#1BB3FF"/>
<stop offset="1" stop-color="#004778"/>
</linearGradient>
<linearGradient id="paint8_linear_142_17415" x1="126.75" y1="3.43853" x2="72.207" y2="202.849" gradientUnits="userSpaceOnUse">
<stop stop-color="#ACF2FF"/>
<stop offset="0.4" stop-color="#1BB3FF"/>
<stop offset="1" stop-color="#004778"/>
</linearGradient>
<linearGradient id="paint9_linear_142_17415" x1="116.738" y1="99.6299" x2="111.612" y2="118.362" gradientUnits="userSpaceOnUse">
<stop stop-color="#ACF2FF"/>
<stop offset="0.4" stop-color="#1BB3FF"/>
<stop offset="1" stop-color="#004778"/>
</linearGradient>
<linearGradient id="paint10_linear_142_17415" x1="120.083" y1="81.3282" x2="114.496" y2="101.782" gradientUnits="userSpaceOnUse">
<stop stop-color="#ACF2FF"/>
<stop offset="0.4" stop-color="#1BB3FF"/>
<stop offset="1" stop-color="#004778"/>
</linearGradient>
<linearGradient id="paint11_linear_142_17415" x1="88.4662" y1="99.1191" x2="82.9298" y2="119.373" gradientUnits="userSpaceOnUse">
<stop stop-color="#ACF2FF"/>
<stop offset="0.4" stop-color="#1BB3FF"/>
<stop offset="1" stop-color="#004778"/>
</linearGradient>
<linearGradient id="paint12_linear_142_17415" x1="67.131" y1="101.492" x2="54.6866" y2="146.994" gradientUnits="userSpaceOnUse">
<stop stop-color="#ACF2FF"/>
<stop offset="0.4" stop-color="#1BB3FF"/>
<stop offset="1" stop-color="#004778"/>
</linearGradient>
<linearGradient id="paint13_linear_142_17415" x1="73.6085" y1="51.6841" x2="58.9616" y2="105.216" gradientUnits="userSpaceOnUse">
<stop stop-color="#ACF2FF"/>
<stop offset="0.4" stop-color="#1BB3FF"/>
<stop offset="1" stop-color="#004778"/>
</linearGradient>
</defs>
</svg>
