<svg width="200" height="200" viewBox="0 0 200 200" fill="none" xmlns="http://www.w3.org/2000/svg">
<g clip-path="url(#clip0_142_17312)">
<path d="M156.798 91.1007C152.711 76.2163 136.411 68.7586 122.812 71.1291C126.306 64.8028 124.69 56.2061 122.158 49.7875C119.064 41.922 109.205 35.7727 99.9848 35.3033C97.9838 35.1955 95.8904 35.2956 93.7817 35.5188C92.3579 35.5649 90.1337 35.9575 88.91 36.2653C82.6222 37.6198 76.4883 40.275 71.9937 44.0154C69.3001 46.2396 66.3601 49.9337 64.4207 53.9819C58.6408 51.827 51.8682 51.6269 46.3654 53.2123C34.0823 56.7526 24.7237 70.3441 26.4861 82.9427C26.4861 83.1736 26.4861 83.3968 26.5015 83.6277C23.0998 83.2968 19.3133 83.8047 15.9731 84.7359C15.1188 84.9361 14.7263 85.0823 13.6642 85.4671C11.9711 86.0751 10.4549 86.7677 9.28511 87.5143C2.11225 92.0935 -3.22891 101.498 0.0727621 110.08C4.34415 121.17 16.2656 123.032 26.8247 124.433C33.0048 125.256 39.2541 125.041 45.3033 123.879C49.213 125.657 53.4767 126.88 57.7019 127.696C68.2303 130.213 79.459 130.482 90.2183 130.836C99.1151 131.129 107.896 130.236 116.562 128.343C122.812 129.766 129.731 129.451 135.172 127.989C145.685 125.164 156.575 116.006 157.776 104.223C158.499 98.8508 158.153 95.9339 156.829 91.1238L156.798 91.1007Z" fill="url(#paint0_radial_142_17312)"/>
<g style="mix-blend-mode:multiply" opacity="0.3">
<path d="M156.798 91.1007C152.711 76.2163 136.411 68.7586 122.812 71.1291C126.306 64.8028 124.69 56.2061 122.158 49.7875C119.064 41.922 109.205 35.7727 99.9848 35.3033C97.9838 35.1955 95.8904 35.2956 93.7817 35.5188C92.3579 35.5649 90.1337 35.9575 88.91 36.2653C82.6222 37.6198 76.4883 40.275 71.9937 44.0154C69.3001 46.2396 66.3601 49.9337 64.4207 53.9819C58.6408 51.827 51.8682 51.6269 46.3654 53.2123C34.0823 56.7526 24.7237 70.3441 26.4861 82.9427C26.4861 83.1736 26.4861 83.3968 26.5015 83.6277C23.0998 83.2968 19.3133 83.8047 15.9731 84.7359C15.1188 84.9361 14.7263 85.0823 13.6642 85.4671C11.9711 86.0751 10.4549 86.7677 9.28511 87.5143C2.11225 92.0935 -3.22891 101.498 0.0727621 110.08C4.34415 121.17 16.2656 123.032 26.8247 124.433C33.0048 125.256 39.2541 125.041 45.3033 123.879C49.213 125.657 53.4767 126.88 57.7019 127.696C68.2303 130.213 79.459 130.482 90.2183 130.836C99.1151 131.129 107.896 130.236 116.562 128.343C122.812 129.766 129.731 129.451 135.172 127.989C145.685 125.164 156.575 116.006 157.776 104.223C158.499 98.8508 158.153 95.9339 156.829 91.1238L156.798 91.1007ZM137.765 104.007C126.837 116.906 100.223 116.144 92.2116 100.759C92.1578 106.216 93.2199 111.449 96.4523 116.298C97.6913 118.191 86.8782 121.331 69.3847 119.338C59.0872 118.168 31.1346 116.367 30.2111 105.208C29.226 106.901 29.0797 108.871 29.226 110.28C6.64531 117.137 -7.16167 91.778 25.7011 88.0222C26.8324 90.4619 27.6713 94.1253 30.4881 97.1345C29.5492 87.9299 31.0884 77.4784 33.1664 73.2378C43.31 52.5274 60.7958 57.8377 60.7727 58.4457C60.6341 64.2179 61.7578 67.458 64.7208 71.2676C63.02 61.2625 67.0143 55.7367 73.0866 50.8881C79.6976 45.6008 88.2866 42.707 96.8217 43.4843C104.256 44.1539 112.045 47.6249 113.646 55.7136C115.639 65.8033 111.229 74.1537 104.987 81.4035C114.292 76.1239 124.897 71.891 134.448 79.11C141.621 84.5282 143.699 97.0114 137.75 104.015L137.765 104.007Z" fill="url(#paint1_radial_142_17312)"/>
</g>
<g style="mix-blend-mode:multiply" opacity="0.4">
<path opacity="0.4" d="M156.798 91.1007C152.711 76.2163 136.411 68.7586 122.812 71.1291C126.306 64.8028 124.69 56.2061 122.158 49.7875C119.064 41.922 109.205 35.7727 99.9848 35.3033C97.9838 35.1955 95.8904 35.2956 93.7817 35.5188C92.3579 35.5649 90.1337 35.9575 88.91 36.2653C82.6222 37.6198 76.4883 40.275 71.9937 44.0154C69.3001 46.2396 66.3601 49.9337 64.4207 53.9819C58.6408 51.827 51.8682 51.6269 46.3654 53.2123C34.0823 56.7526 24.7237 70.3441 26.4861 82.9427C26.4861 83.1736 26.4861 83.3968 26.5015 83.6277C23.0998 83.2968 19.3133 83.8047 15.9731 84.7359C15.1188 84.9361 14.7263 85.0823 13.6642 85.4671C11.9711 86.0751 10.4549 86.7677 9.28511 87.5143C2.11225 92.0935 -3.22891 101.498 0.0727621 110.08C4.34415 121.17 16.2656 123.032 26.8247 124.433C33.0048 125.256 39.2541 125.041 45.3033 123.879C49.213 125.657 53.4767 126.88 57.7019 127.696C68.2303 130.213 79.459 130.482 90.2183 130.836C99.1151 131.129 107.896 130.236 116.562 128.343C122.812 129.766 129.731 129.451 135.172 127.989C145.685 125.164 156.575 116.006 157.776 104.223C158.499 98.8508 158.153 95.9339 156.829 91.1238L156.798 91.1007ZM150.541 111.303C147.609 118.276 140.982 123.394 132.701 124.995C125.536 126.38 117.509 126.988 110.552 124.256C107.812 123.186 105.457 121.624 103.363 119.569C102.932 119.153 102.417 118.692 101.947 118.184C103.841 122.009 107.088 124.718 110.99 126.488C103.641 127.65 96.1136 127.973 88.7561 127.788C81.0291 127.588 62.8045 127.18 52.4531 123.625C48.3972 122.447 44.5106 120.723 41.0088 118.43C37.1376 115.906 32.874 112.45 30.2726 108.263C32.0351 114.166 36.014 118.491 41.055 121.608C40.2315 121.708 39.4003 121.816 38.5614 121.878C29.6646 122.547 19.3825 120.916 11.2861 117.145C1.48117 112.581 0.880863 100.221 7.67661 92.8939C11.7864 88.4763 19.8443 86.3829 26.7786 86.8678C27.2326 89.8154 28.187 92.6553 29.6031 95.272C28.4794 89.7693 28.1947 83.9048 29.3645 78.4789C30.5651 70.9059 34.5209 64.0255 41.0858 58.9845C43.5486 57.4144 46.3269 56.2677 49.3823 55.7213C54.2232 54.8516 58.941 55.298 63.1893 56.8834C62.0656 60.2236 61.7886 63.6176 63.0123 66.496C62.4735 61.9167 64.3822 57.0527 67.2067 53.4432C70.2467 48.9025 74.7028 45.039 78.5663 42.961C85.2466 39.3592 92.9351 37.8661 100.423 39.1591C111.337 41.0446 114.838 45.139 118.34 50.4571C122.258 56.4062 122.242 65.4801 119.564 71.9141C115.693 73.1609 112.106 75.4466 109.128 78.9407C112.63 76.6472 117.355 75.3004 121.257 74.854C125.944 74.323 130.893 74.5385 135.418 76.0008C140.99 77.8017 147.147 81.9961 150.033 87.522C151.465 90.0617 155.297 102.075 150.51 111.296L150.541 111.303Z" fill="#6F8AA4"/>
</g>
<path style="mix-blend-mode:screen" d="M74.1948 49.3874C63.4124 59.5541 65.8829 71.3062 65.8829 71.3062C69.2692 92.3014 114.569 84.8284 114.261 60.7932C113.961 36.758 84.9925 39.2284 74.2025 49.3951L74.1948 49.3874Z" fill="url(#paint2_radial_142_17312)"/>
<path style="mix-blend-mode:screen" d="M62.8043 71.4908C60.8648 67.9351 59.5795 62.7402 60.5108 58.3764C48.6356 54.867 38.1225 62.6478 34.2975 73.0608C28.8178 87.9991 35.7367 100.998 35.7367 100.998C45.7033 116.752 75.2413 101.829 79.5666 84.505C72.717 82.0807 66.3676 78.0094 62.8043 71.4831V71.4908Z" fill="url(#paint3_radial_142_17312)"/>
<path style="mix-blend-mode:screen" d="M32.3272 97.1117L30.1415 96.0573C30.1415 96.0573 27.4478 92.417 25.7085 88.0225C25.7085 88.0225 7.73015 88.8152 7.49157 100.513C7.26068 111.835 29.0178 110.349 29.0178 110.349C29.0178 110.349 38.0993 99.2204 32.3195 97.1117H32.3272Z" fill="url(#paint4_radial_142_17312)"/>
<path style="mix-blend-mode:screen" d="M94.5358 101.075C91.1571 93.5638 100.924 80.7958 116.316 77.4171C131.724 74.0385 142.237 80.7958 145.246 92.063C148.248 103.33 133.971 111.596 119.702 111.219C105.426 110.842 98.1222 109.041 94.5358 101.075Z" fill="url(#paint5_radial_142_17312)"/>
<path d="M198.819 128.52C195.171 115.259 180.656 108.609 168.535 110.726C171.651 105.092 170.205 97.4346 167.957 91.7086C165.202 84.6974 156.413 79.2254 148.201 78.7944C146.416 78.702 144.561 78.7944 142.675 78.9868C141.405 79.033 139.427 79.3793 138.335 79.6487C132.732 80.857 127.275 83.2274 123.265 86.5522C120.864 88.5301 118.248 91.824 116.508 95.4259C111.367 93.5018 105.326 93.3248 100.423 94.7409C89.4792 97.8964 81.1442 110.01 82.7065 121.231C82.7065 121.431 82.7065 121.639 82.7219 121.839C79.6896 121.547 76.3187 122.001 73.3402 122.824C72.5783 123.001 72.232 123.132 71.2776 123.471C69.7769 124.01 68.4147 124.633 67.3757 125.295C60.9878 129.374 56.2239 137.755 59.1715 145.397C62.9811 155.279 73.6019 156.942 82.999 158.188C88.5094 158.919 94.0738 158.735 99.4688 157.696C102.948 159.281 106.749 160.374 110.513 161.098C119.895 163.337 129.892 163.583 139.489 163.891C147.408 164.153 155.235 163.36 162.955 161.675C168.527 162.945 174.691 162.66 179.532 161.351C188.906 158.827 198.604 150.677 199.673 140.179C200.312 135.385 200.004 132.791 198.827 128.512L198.819 128.52Z" fill="url(#paint6_radial_142_17312)"/>
<g style="mix-blend-mode:multiply" opacity="0.3">
<path d="M198.819 128.52C195.171 115.259 180.656 108.609 168.535 110.726C171.651 105.092 170.205 97.4346 167.957 91.7086C165.202 84.6974 156.413 79.2254 148.201 78.7944C146.416 78.702 144.561 78.7944 142.675 78.9868C141.405 79.033 139.427 79.3793 138.335 79.6487C132.732 80.857 127.275 83.2274 123.265 86.5522C120.864 88.5301 118.248 91.824 116.508 95.4259C111.367 93.5018 105.326 93.3248 100.423 94.7409C89.4792 97.8964 81.1442 110.01 82.7065 121.231C82.7065 121.431 82.7065 121.639 82.7219 121.839C79.6896 121.547 76.3187 122.001 73.3402 122.824C72.5783 123.001 72.232 123.132 71.2776 123.471C69.7769 124.01 68.4147 124.633 67.3757 125.295C60.9878 129.374 56.2239 137.755 59.1715 145.397C62.9811 155.279 73.6019 156.942 82.999 158.188C88.5094 158.919 94.0738 158.735 99.4688 157.696C102.948 159.281 106.749 160.374 110.513 161.098C119.895 163.337 129.892 163.583 139.489 163.891C147.408 164.153 155.235 163.36 162.955 161.675C168.527 162.945 174.691 162.66 179.532 161.351C188.906 158.827 198.604 150.677 199.673 140.179C200.312 135.385 200.004 132.791 198.827 128.512L198.819 128.52ZM181.864 140.018C172.121 151.508 148.409 150.831 141.275 137.124C141.228 141.988 142.175 146.644 145.053 150.962C146.162 152.655 136.518 155.449 120.934 153.678C111.76 152.639 86.8471 151.031 86.0313 141.087C85.1539 142.596 85.0231 144.351 85.1539 145.605C65.0283 151.708 52.7298 129.12 82.0138 125.78C83.022 127.95 83.7763 131.213 86.2775 133.891C85.4464 125.695 86.8163 116.375 88.6634 112.596C97.6987 94.1483 113.284 98.8738 113.26 99.4202C113.137 104.569 114.138 107.455 116.778 110.841C115.269 101.937 118.825 97.0113 124.235 92.686C130.13 87.976 137.788 85.39 145.384 86.0827C152.003 86.6907 158.945 89.7692 160.377 96.9805C162.154 105.97 158.222 113.412 152.665 119.869C160.954 115.159 170.405 111.395 178.917 117.822C185.312 122.647 187.159 133.776 181.864 140.018Z" fill="url(#paint7_radial_142_17312)"/>
</g>
<g style="mix-blend-mode:multiply" opacity="0.4">
<path opacity="0.4" d="M198.819 128.52C195.171 115.259 180.656 108.609 168.535 110.726C171.651 105.092 170.205 97.4346 167.957 91.7086C165.202 84.6974 156.413 79.2254 148.201 78.7944C146.416 78.702 144.561 78.7944 142.675 78.9868C141.405 79.033 139.427 79.3793 138.335 79.6487C132.732 80.857 127.275 83.2274 123.265 86.5522C120.864 88.5301 118.248 91.824 116.508 95.4259C111.367 93.5018 105.326 93.3248 100.423 94.7409C89.4792 97.8964 81.1442 110.01 82.7065 121.231C82.7065 121.431 82.7065 121.639 82.7219 121.839C79.6896 121.547 76.3187 122.001 73.3402 122.824C72.5783 123.001 72.232 123.132 71.2776 123.471C69.7769 124.01 68.4147 124.633 67.3757 125.295C60.9878 129.374 56.2239 137.755 59.1715 145.397C62.9811 155.279 73.6019 156.942 82.999 158.188C88.5094 158.919 94.0738 158.735 99.4688 157.696C102.948 159.281 106.749 160.374 110.513 161.098C119.895 163.337 129.892 163.583 139.489 163.891C147.408 164.153 155.235 163.36 162.955 161.675C168.527 162.945 174.691 162.66 179.532 161.351C188.906 158.827 198.604 150.677 199.673 140.179C200.312 135.385 200.004 132.791 198.827 128.512L198.819 128.52ZM193.247 146.521C190.63 152.739 184.727 157.296 177.354 158.719C170.967 159.958 163.817 160.497 157.614 158.065C155.182 157.119 153.081 155.718 151.203 153.894C150.818 153.524 150.364 153.109 149.94 152.662C151.626 156.072 154.527 158.481 158.006 160.066C151.457 161.105 144.753 161.39 138.188 161.228C131.3 161.051 115.069 160.69 105.849 157.519C102.239 156.472 98.7762 154.925 95.6592 152.886C92.2113 150.638 88.4094 147.56 86.1005 143.827C87.6629 149.091 91.2185 152.94 95.7054 155.718C94.9666 155.81 94.2277 155.903 93.4812 155.956C85.5541 156.557 76.3956 155.102 69.1766 151.739C60.4414 147.675 59.9104 136.662 65.9596 130.128C69.6153 126.188 76.8035 124.325 82.9836 124.764C83.3838 127.388 84.2304 129.92 85.5002 132.244C84.4997 127.342 84.2457 122.124 85.2924 117.283C86.3545 110.534 89.8871 104.407 95.7362 99.9128C97.9373 98.5197 100.408 97.4961 103.132 96.9959C107.442 96.2263 111.644 96.6188 115.431 98.0426C114.43 101.013 114.184 104.038 115.269 106.608C114.792 102.529 116.485 98.1965 119.017 94.9795C121.726 90.939 125.697 87.4911 129.13 85.6363C135.087 82.427 141.936 81.1032 148.609 82.25C158.337 83.9278 161.454 87.5834 164.571 92.3166C168.057 97.6116 168.05 105.7 165.664 111.434C162.216 112.55 159.022 114.582 156.359 117.699C159.484 115.651 163.686 114.451 167.165 114.058C171.351 113.581 175.754 113.774 179.786 115.074C184.75 116.683 190.238 120.423 192.816 125.349C194.086 127.611 197.503 138.317 193.247 146.529V146.521Z" fill="#39556E"/>
</g>
<path style="mix-blend-mode:screen" d="M125.22 91.3546C115.616 100.413 117.809 110.88 117.809 110.88C120.826 129.582 161.192 122.932 160.915 101.506C160.646 80.0951 134.833 82.2885 125.22 91.3469V91.3546Z" fill="url(#paint8_radial_142_17312)"/>
<path style="mix-blend-mode:screen" d="M115.069 111.042C113.338 107.871 112.191 103.253 113.022 99.3587C102.44 96.2263 93.0736 103.161 89.6719 112.45C84.7925 125.764 90.9495 137.347 90.9495 137.347C99.8309 151.385 126.144 138.086 130.008 122.647C123.905 120.485 118.248 116.86 115.077 111.049L115.069 111.042Z" fill="url(#paint9_radial_142_17312)"/>
<path style="mix-blend-mode:screen" d="M87.9171 133.868L85.9699 132.929C85.9699 132.929 83.5687 129.689 82.0141 125.772C82.0141 125.772 65.9983 126.48 65.7828 136.893C65.575 146.983 84.9617 145.659 84.9617 145.659C84.9617 145.659 93.0504 135.746 87.9094 133.861L87.9171 133.868Z" fill="url(#paint10_radial_142_17312)"/>
<path style="mix-blend-mode:screen" d="M143.345 137.401C140.328 130.705 149.04 119.338 162.755 116.321C176.477 113.304 185.851 119.33 188.522 129.366C191.192 139.402 178.478 146.767 165.764 146.436C153.042 146.098 146.531 144.497 143.345 137.393V137.401Z" fill="url(#paint11_radial_142_17312)"/>
<path d="M140.413 86.4828L137.827 91.2006L136.203 94.1636H151.603L128.23 131.198L119.648 144.789L131.293 133.714L181.826 85.6439L185.451 82.196H170.628L180.848 70.6518L187.436 63.2172L190.738 59.5154C191.854 58.2917 192.985 57.0834 194.017 55.7827L196.857 52.2271L192.524 52.4656C181.78 53.0659 171.036 53.6355 160.292 54.4589C156.375 60.4928 152.573 66.5805 148.755 72.6682L143.029 81.7958C142.06 83.312 141.252 84.9051 140.413 86.4905V86.4828Z" fill="url(#paint12_radial_142_17312)"/>
<path d="M140.413 86.4828L137.827 91.2006L136.203 94.1636H151.603L128.23 131.198L119.648 144.789L131.293 133.714L181.826 85.6439L185.451 82.196H170.628L180.848 70.6518L187.436 63.2172L190.738 59.5154C191.854 58.2917 192.985 57.0834 194.017 55.7827L196.857 52.2271L192.524 52.4656C181.78 53.0659 171.036 53.6355 160.292 54.4589C156.375 60.4928 152.573 66.5805 148.755 72.6682L143.029 81.7958C142.06 83.312 141.252 84.9051 140.413 86.4905V86.4828ZM146.477 83.6737L149.132 78.094L161.646 56.2599C161.646 56.2599 185.012 56.0136 188.26 56.1906C188.083 56.3984 187.898 56.6062 187.721 56.814L184.443 60.5466L177.855 67.9812L164.694 82.8502L161.754 86.175H175.446L124.166 139.117L156.913 93.217L158.845 90.1539H142.952L143.914 88.4069C144.799 86.8445 145.715 85.3053 146.477 83.6737Z" fill="#FF8A00"/>
<path d="M161.647 56.2675L139.112 92.5474L154.72 92.4242L123.004 140.372L159.969 89.6767L144.977 89.3381L165.964 57.3296L190.938 54.582L161.647 56.2675Z" fill="white"/>
</g>
<defs>
<radialGradient id="paint0_radial_142_17312" cx="0" cy="0" r="1" gradientUnits="userSpaceOnUse" gradientTransform="translate(84.9541 -73.0053) scale(204.326 204.326)">
<stop offset="0.16" stop-color="#BCBCBC"/>
<stop offset="0.69" stop-color="#92BAC0"/>
<stop offset="1" stop-color="#549CC6"/>
</radialGradient>
<radialGradient id="paint1_radial_142_17312" cx="0" cy="0" r="1" gradientUnits="userSpaceOnUse" gradientTransform="translate(84.9541 -73.0053) scale(204.326 204.326)">
<stop offset="0.39" stop-color="#92BAC0"/>
<stop offset="1" stop-color="#549CC6"/>
</radialGradient>
<radialGradient id="paint2_radial_142_17312" cx="0" cy="0" r="1" gradientUnits="userSpaceOnUse" gradientTransform="translate(90.1567 14.3389) scale(63.1473 63.1473)">
<stop offset="0.52" stop-color="#BCBCBC"/>
<stop offset="0.7" stop-color="#92BAC0"/>
<stop offset="0.99" stop-color="#549CC6"/>
</radialGradient>
<radialGradient id="paint3_radial_142_17312" cx="0" cy="0" r="1" gradientUnits="userSpaceOnUse" gradientTransform="translate(33.8281 60.3544) scale(45.2767 45.2767)">
<stop offset="0.15" stop-color="#BCBCBC"/>
<stop offset="0.46" stop-color="#92BAC0"/>
<stop offset="0.99" stop-color="#549CC6"/>
</radialGradient>
<radialGradient id="paint4_radial_142_17312" cx="0" cy="0" r="1" gradientUnits="userSpaceOnUse" gradientTransform="translate(-0.373943 82.0502) scale(33.2399 33.2399)">
<stop offset="0.15" stop-color="#BCBCBC"/>
<stop offset="0.46" stop-color="#92BAC0"/>
<stop offset="0.99" stop-color="#549CC6"/>
</radialGradient>
<radialGradient id="paint5_radial_142_17312" cx="0" cy="0" r="1" gradientUnits="userSpaceOnUse" gradientTransform="translate(126.96 30.4934) scale(72.8445 72.8445)">
<stop offset="0.55" stop-color="#BCBCBC"/>
<stop offset="0.74" stop-color="#92BAC0"/>
<stop offset="0.99" stop-color="#549CC6"/>
</radialGradient>
<radialGradient id="paint6_radial_142_17312" cx="0" cy="0" r="1" gradientUnits="userSpaceOnUse" gradientTransform="translate(134.81 -17.7083) scale(182.054 182.054)">
<stop offset="0.16" stop-color="#757575"/>
<stop offset="0.69" stop-color="#51797F"/>
<stop offset="1" stop-color="#17658C"/>
</radialGradient>
<radialGradient id="paint7_radial_142_17312" cx="0" cy="0" r="1" gradientUnits="userSpaceOnUse" gradientTransform="translate(134.81 -17.7083) scale(182.054 182.054)">
<stop offset="0.39" stop-color="#51797F"/>
<stop offset="1" stop-color="#17658C"/>
</radialGradient>
<radialGradient id="paint8_radial_142_17312" cx="0" cy="0" r="1" gradientUnits="userSpaceOnUse" gradientTransform="translate(139.443 60.1235) scale(56.2669 56.2669)">
<stop offset="0.52" stop-color="#757575"/>
<stop offset="0.7" stop-color="#51797F"/>
<stop offset="0.99" stop-color="#17658C"/>
</radialGradient>
<radialGradient id="paint9_radial_142_17312" cx="0" cy="0" r="1" gradientUnits="userSpaceOnUse" gradientTransform="translate(89.2563 101.121) scale(40.3358 40.3358)">
<stop offset="0.15" stop-color="#757575"/>
<stop offset="0.46" stop-color="#51797F"/>
<stop offset="0.99" stop-color="#17658C"/>
</radialGradient>
<radialGradient id="paint10_radial_142_17312" cx="0" cy="0" r="1" gradientUnits="userSpaceOnUse" gradientTransform="translate(58.7792 120.454) scale(29.615 29.615)">
<stop offset="0.15" stop-color="#757575"/>
<stop offset="0.46" stop-color="#51797F"/>
<stop offset="0.99" stop-color="#17658C"/>
</radialGradient>
<radialGradient id="paint11_radial_142_17312" cx="0" cy="0" r="1" gradientUnits="userSpaceOnUse" gradientTransform="translate(172.229 74.523) scale(64.902 64.902)">
<stop offset="0.55" stop-color="#757575"/>
<stop offset="0.74" stop-color="#51797F"/>
<stop offset="0.99" stop-color="#17658C"/>
</radialGradient>
<radialGradient id="paint12_radial_142_17312" cx="0" cy="0" r="1" gradientUnits="userSpaceOnUse" gradientTransform="translate(148.478 143.119) scale(91.6156 91.6155)">
<stop offset="0.14" stop-color="#FFF75D"/>
<stop offset="0.53" stop-color="#FFDE00"/>
<stop offset="0.92" stop-color="#FF7D00"/>
</radialGradient>
<clipPath id="clip0_142_17312">
<rect width="200" height="200" fill="white"/>
</clipPath>
</defs>
</svg>
