<svg width="16" height="16" viewBox="0 0 16 16" fill="none" xmlns="http://www.w3.org/2000/svg">
<rect width="16" height="16" rx="8" fill="white"/>
<rect width="16" height="16" rx="8" fill="url(#paint0_radial_1502_1961)"/>
<rect width="16" height="16" rx="8" fill="url(#paint1_radial_1502_1961)"/>
<path d="M12.2156 12.3914C12.0645 12.1366 11.942 11.7358 11.8477 11.1885L10.5799 3.18827C10.5479 2.98666 10.2843 2.93071 10.173 3.10183L9.70144 3.82813C9.62785 3.94156 9.59889 4.07807 9.62001 4.21153L10.3317 8.69475L10.4467 9.36314L10.4891 9.66032L10.6102 10.3862L10.7439 11.1887C10.8098 11.5192 10.8429 11.7643 10.8429 11.9246C10.8429 12.0378 10.8288 12.1464 10.8005 12.2501C10.7626 12.4295 10.6753 12.5755 10.5386 12.689C10.4018 12.8022 10.1965 12.8823 9.92307 12.9293L9.90892 13.0001H12.994L13.0081 12.9293C12.6306 12.8257 12.3665 12.6463 12.2156 12.3916V12.3914Z" fill="white"/>
<path d="M9.32589 10.8903C9.24621 10.769 9.18111 10.5777 9.13125 10.3173L8.41213 6.46021H7.39366L7.38625 6.49373C7.50077 6.51659 7.58568 6.54577 7.64076 6.58169C7.69585 6.61761 7.72306 6.66508 7.72306 6.72342C7.72306 6.7502 7.72067 6.77263 7.71566 6.7907C7.71043 6.82227 7.68561 6.88323 7.64055 6.97271L6.6728 8.45819C6.6728 8.45819 6.42983 9.10938 7.32181 9.14247C8.27367 9.17752 8.39145 9.49191 8.40234 9.5311L8.40299 9.53327V9.53501L8.4117 9.58879L8.43369 9.70766H8.4339L8.54668 10.3173C8.5813 10.4745 8.59893 10.5916 8.59893 10.6678C8.59893 10.7216 8.59131 10.7736 8.57651 10.8228C8.55648 10.9082 8.51032 10.9778 8.43782 11.032C8.36554 11.0858 8.2569 11.1241 8.11212 11.1466L8.1045 11.1803H9.73716L9.74478 11.1466C9.54513 11.0969 9.40514 11.0116 9.32524 10.8903H9.32589ZM6.79907 8.54005L7.89571 6.85776L8.31373 9.04929C6.39347 9.30598 6.79907 8.54005 6.79907 8.54005Z" fill="white"/>
<path d="M6.07875 9.95972V9.9582C6.07832 9.9484 6.07766 9.93882 6.07679 9.92924C6.07658 9.92663 6.07636 9.9238 6.07614 9.92118C6.07614 9.91988 6.07592 9.91835 6.07571 9.91705C6.07505 9.91052 6.0744 9.90398 6.07353 9.89745C6.07222 9.88722 6.07048 9.87699 6.06874 9.86697C6.06721 9.85848 6.06569 9.84999 6.06395 9.84172C6.06308 9.83758 6.06199 9.83344 6.0609 9.82931C6.0609 9.82865 6.06068 9.82778 6.06047 9.82713C6.05894 9.82038 6.0572 9.81363 6.05524 9.80688C6.05524 9.80601 6.0548 9.80514 6.05459 9.80427C6.05241 9.79665 6.05023 9.78903 6.04784 9.78163C6.04762 9.78076 6.0474 9.77967 6.04697 9.7788C6.04675 9.77836 6.04653 9.77771 6.04653 9.77727C6.04435 9.77096 6.04239 9.76486 6.04 9.75877C6.03891 9.75528 6.03761 9.75202 6.0363 9.74854C6.03303 9.74854 6.02998 9.74897 6.02672 9.74919C6.01779 9.74984 6.00887 9.75049 5.99994 9.75158C5.99363 9.75224 5.98731 9.75311 5.98078 9.75398C5.98013 9.75398 5.97926 9.75398 5.9786 9.75398C5.97251 9.75485 5.96641 9.75594 5.9601 9.75703C5.95074 9.75855 5.94159 9.76051 5.93223 9.76247C5.92505 9.76399 5.91786 9.76573 5.91089 9.76748C5.90327 9.76944 5.89565 9.7714 5.88825 9.77357C5.88782 9.77357 5.8876 9.77379 5.88738 9.77379C5.87998 9.77597 5.87258 9.77814 5.86539 9.78054C5.85777 9.78315 5.85037 9.78555 5.84297 9.78838C5.82794 9.79382 5.81336 9.7997 5.79877 9.80601C5.78418 9.81233 5.76981 9.81908 5.75566 9.8267C5.74173 9.83388 5.72779 9.84172 5.71408 9.84999C5.70668 9.85456 5.69927 9.85913 5.69209 9.86392C5.68599 9.86763 5.6799 9.87176 5.67402 9.8759C5.66096 9.88504 5.64811 9.89441 5.63548 9.90442C5.62307 9.91422 5.61088 9.92445 5.59891 9.93512C5.58715 9.94579 5.57561 9.95689 5.56451 9.96821C5.55906 9.97387 5.5534 9.97953 5.54818 9.98541C5.54274 9.99129 5.53751 9.99717 5.53229 10.0033C5.50659 10.0331 5.4833 10.0653 5.46305 10.0988C5.45717 10.1086 5.45151 10.1187 5.44629 10.1289C5.44063 10.1396 5.43518 10.1504 5.43018 10.1613C5.44084 10.1221 5.45129 10.0797 5.46218 10.0407C5.44302 10.0597 5.42495 10.0795 5.40753 10.1001C5.39904 10.1106 5.39055 10.121 5.38228 10.1319C5.37814 10.1374 5.37422 10.1426 5.37009 10.1483C5.36225 10.1591 5.35441 10.1703 5.34701 10.1816C5.30477 10.2458 5.27081 10.3155 5.24729 10.3882C5.24425 10.3969 5.24163 10.4058 5.23902 10.4147C5.23793 10.4184 5.23706 10.4221 5.23597 10.4256C5.23336 10.4354 5.23075 10.4452 5.22857 10.455C5.21333 10.5214 5.2068 10.5894 5.2105 10.6571C5.20549 10.6207 5.18677 10.5852 5.16413 10.5563C5.16522 10.5615 5.1663 10.5667 5.16717 10.5719C5.16892 10.582 5.16979 10.5922 5.17044 10.6022C5.17654 10.7104 5.12254 10.8177 5.0729 10.9172C5.06136 10.9405 5.0483 10.9632 5.03502 10.9858C5.02849 10.9971 5.02196 11.0085 5.01543 11.0196C5.01216 11.0252 5.00911 11.0311 5.00585 11.0368C4.99975 11.0479 4.99387 11.059 4.98821 11.0703C4.9856 11.076 4.98299 11.0816 4.98037 11.0875C4.97275 11.1045 4.96666 11.1212 4.9623 11.1384C4.95686 11.16 4.95425 11.1815 4.95599 11.2035C4.95621 11.2068 4.95643 11.2101 4.95708 11.2133C4.95708 11.2142 4.95708 11.2153 4.95708 11.2162C4.95882 11.2288 4.96209 11.2414 4.96688 11.254L4.97167 11.2571L4.93531 11.3128C4.92682 11.3089 4.91767 11.3059 4.90831 11.3035C4.86977 11.2937 4.82906 11.3096 4.80772 11.3433C4.71324 11.492 4.45633 11.8937 4.34268 12.0459C4.21336 12.2194 4.09122 12.3579 3.97583 12.4617C3.73525 12.679 3.41194 12.8347 3.00656 12.9287L2.99219 12.9995H5.34157L5.35572 12.9287C5.13844 12.8817 4.9758 12.8205 4.86738 12.7447C4.75874 12.6694 4.70475 12.5608 4.70475 12.4193C4.70475 12.3476 4.72216 12.2586 4.757 12.1521C4.80816 11.9956 4.89699 11.8016 5.02348 11.5697C5.03894 11.5414 5.04612 11.5109 5.04612 11.4813C5.04612 11.4539 5.04003 11.4271 5.02849 11.403L5.07835 11.3268L5.08379 11.3302C5.10425 11.3292 5.1232 11.3248 5.14083 11.3181C5.14519 11.3163 5.14954 11.3146 5.15389 11.3126C5.15629 11.3115 5.15847 11.3102 5.16086 11.3091C5.165 11.3069 5.16935 11.3046 5.17349 11.3022C5.1785 11.2991 5.18372 11.2956 5.18851 11.2921C5.19678 11.2863 5.20484 11.28 5.21246 11.2732C5.22139 11.2654 5.23009 11.2569 5.23859 11.2479C5.24272 11.2434 5.24708 11.2386 5.25143 11.2338C5.25796 11.2262 5.26449 11.2186 5.27103 11.2105C5.27843 11.2014 5.28583 11.1918 5.29345 11.182C5.30913 11.1615 5.32458 11.1404 5.34069 11.1201C5.3457 11.1138 5.35071 11.1077 5.35572 11.1016C5.37096 11.0834 5.38642 11.0646 5.40209 11.0463C5.41798 11.0281 5.43431 11.01 5.45129 10.9928C5.5079 10.9353 5.57147 10.8878 5.64898 10.8726C5.61719 10.8645 5.58192 10.8613 5.54992 10.8678C5.54622 10.8685 5.54274 10.8693 5.53925 10.8704C5.53903 10.8704 5.5386 10.8706 5.53838 10.8706H5.53795C5.55123 10.8656 5.56429 10.8602 5.57735 10.8545C5.59673 10.8458 5.61567 10.8362 5.63439 10.8258C5.80116 10.732 5.93179 10.5708 6.00059 10.3919C5.97686 10.411 5.95161 10.4311 5.92722 10.4505C5.91917 10.457 5.91111 10.4633 5.90327 10.4696C5.90981 10.4622 5.91612 10.4548 5.92222 10.4472C5.92374 10.4452 5.92526 10.4433 5.92679 10.4413C5.93158 10.4354 5.93593 10.4296 5.94029 10.4235C5.94203 10.4215 5.94333 10.4195 5.94486 10.4176C5.9503 10.41 5.95553 10.4021 5.96097 10.3941C5.96119 10.3936 5.96162 10.393 5.96184 10.3925C5.96728 10.384 5.97273 10.3753 5.97773 10.3664C5.98165 10.3601 5.98535 10.3538 5.98862 10.3473C5.99167 10.3422 5.99428 10.337 5.99689 10.332C6.00059 10.3248 6.00408 10.3176 6.00756 10.3105L6.00821 10.3092C6.00821 10.3092 6.00887 10.3078 6.00908 10.3072C6.01235 10.3002 6.01562 10.293 6.01866 10.2856C6.01997 10.2828 6.02106 10.2802 6.02215 10.2774C6.02585 10.2687 6.02933 10.26 6.03238 10.2512C6.03325 10.2488 6.03412 10.2467 6.03499 10.2443C6.03586 10.2421 6.03652 10.2401 6.03717 10.238C6.03978 10.2306 6.04218 10.2232 6.04457 10.2158C6.0474 10.2073 6.0498 10.1986 6.05219 10.1898C6.0535 10.1851 6.0548 10.1805 6.05589 10.1759C6.05676 10.1724 6.05763 10.1687 6.05851 10.1652C6.05959 10.1611 6.06047 10.157 6.06155 10.1526C6.06395 10.1417 6.06613 10.1311 6.06787 10.1202L6.06852 10.1163C6.07135 10.1001 6.07353 10.0838 6.07527 10.0673C6.07571 10.0634 6.07614 10.0592 6.07658 10.0551C6.07701 10.0509 6.07723 10.0468 6.07745 10.0427C6.07788 10.0361 6.07832 10.0296 6.07875 10.0229V10.0222C6.07919 10.0128 6.07941 10.0033 6.07941 9.99368V9.98759C6.07941 9.97823 6.07919 9.96886 6.07875 9.9595V9.95972ZM5.71364 9.90856C5.63505 9.9767 5.56451 10.0538 5.50355 10.1385C5.55536 10.0477 5.6283 9.96865 5.71364 9.90856ZM5.3309 10.3022C5.30477 10.3688 5.27973 10.4422 5.25927 10.5108C5.25883 10.5116 5.25862 10.5125 5.2584 10.5134C5.26907 10.4393 5.29389 10.3671 5.3309 10.3022ZM5.15106 10.8746C5.15106 10.8746 5.15063 10.8759 5.15019 10.8765C5.13626 10.9144 5.11318 10.9482 5.08618 10.9775C5.10491 10.941 5.12733 10.9081 5.15106 10.8746ZM5.47285 10.7019C5.55602 10.5687 5.68251 10.3662 5.76394 10.2343C5.67685 10.3958 5.57931 10.5521 5.47285 10.7019ZM5.34461 10.8504C5.28779 10.941 5.22857 11.0307 5.16739 11.1191C5.14475 11.1517 5.12211 11.1839 5.09925 11.2157C5.09468 11.2225 5.08967 11.2292 5.08488 11.236C5.06942 11.2575 5.05374 11.2791 5.03785 11.3004L5.01434 11.2852C5.02762 11.2621 5.04112 11.239 5.05462 11.2162C5.13212 11.0847 5.21638 10.9486 5.30238 10.8227C5.3862 10.7006 5.60805 10.3721 5.69361 10.2454C5.78114 10.1176 5.868 9.98911 5.95596 9.86153L5.96032 9.86436C5.77308 10.1689 5.53424 10.5449 5.34461 10.8504Z" fill="white"/>
<defs>
<radialGradient id="paint0_radial_1502_1961" cx="0" cy="0" r="1" gradientUnits="userSpaceOnUse" gradientTransform="translate(7.27279 0.828058) rotate(117.442) scale(16.8562 87.0752)">
<stop stop-color="#A47CF3"/>
<stop offset="1" stop-color="#F051A3"/>
</radialGradient>
<radialGradient id="paint1_radial_1502_1961" cx="0" cy="0" r="1" gradientUnits="userSpaceOnUse" gradientTransform="translate(8.02477 15.5833) rotate(178.879) scale(8.52175 8.51878)">
<stop stop-color="#A47CF3"/>
<stop offset="1" stop-color="#683FEA"/>
</radialGradient>
</defs>
</svg>
