<svg width="32" height="32" viewBox="0 0 32 32" fill="none" xmlns="http://www.w3.org/2000/svg">
<rect width="32" height="32" rx="16" fill="white"/>
<rect width="32" height="32" rx="16" fill="url(#paint0_radial_563_1709)"/>
<rect width="32" height="32" rx="16" fill="url(#paint1_radial_563_1709)"/>
<path d="M24.4312 24.7824C24.1291 24.273 23.8839 23.4714 23.6954 22.3767L21.1598 6.37629C21.0958 5.97308 20.5685 5.86117 20.346 6.20342L19.4029 7.65602C19.2557 7.88288 19.1978 8.1559 19.24 8.42282L20.6635 17.3892L20.8934 18.726L20.9783 19.3204L21.2204 20.7721L21.4877 22.3771C21.6197 23.0381 21.6858 23.5284 21.6858 23.8489C21.6858 24.0753 21.6575 24.2926 21.6009 24.4998C21.5252 24.8586 21.3506 25.1508 21.0771 25.3777C20.8037 25.6041 20.393 25.7643 19.8461 25.8584L19.8178 25.9999H25.9879L26.0162 25.8584C25.2612 25.6511 24.733 25.2923 24.4312 24.7829V24.7824Z" fill="white"/>
<path d="M18.6513 21.7803C18.4919 21.5378 18.3617 21.1551 18.262 20.6343L16.8238 12.9202H14.7868L14.772 12.9872C15.0011 13.0329 15.1709 13.0913 15.281 13.1631C15.3912 13.235 15.4456 13.3299 15.4456 13.4466C15.4456 13.5002 15.4408 13.545 15.4308 13.5812C15.4204 13.6443 15.3707 13.7662 15.2806 13.9452L13.3451 16.9161C13.3451 16.9161 12.8592 18.2185 14.6431 18.2847C16.5468 18.3548 16.7824 18.9836 16.8042 19.0619L16.8055 19.0663V19.0698L16.8229 19.1773L16.8669 19.4151H16.8673L17.0929 20.6343C17.1621 20.9487 17.1974 21.1829 17.1974 21.3353C17.1974 21.4429 17.1821 21.5469 17.1525 21.6454C17.1125 21.816 17.0202 21.9554 16.8752 22.0638C16.7306 22.1714 16.5133 22.248 16.2237 22.2928L16.2085 22.3603H19.4738L19.4891 22.2928C19.0898 22.1936 18.8098 22.0229 18.65 21.7803H18.6513ZM13.5977 17.0798L15.7909 13.7153L16.627 18.0983C12.7864 18.6117 13.5977 17.0798 13.5977 17.0798Z" fill="white"/>
<path d="M12.157 19.9194V19.9164C12.1561 19.8968 12.1548 19.8776 12.1531 19.8585C12.1527 19.8533 12.1522 19.8476 12.1518 19.8424C12.1518 19.8398 12.1513 19.8367 12.1509 19.8341C12.1496 19.821 12.1483 19.808 12.1466 19.7949C12.1439 19.7744 12.1405 19.754 12.137 19.7339C12.1339 19.717 12.1309 19.7 12.1274 19.6834C12.1257 19.6752 12.1235 19.6669 12.1213 19.6586C12.1213 19.6573 12.1209 19.6556 12.1204 19.6543C12.1174 19.6408 12.1139 19.6273 12.11 19.6138C12.11 19.612 12.1091 19.6103 12.1087 19.6085C12.1043 19.5933 12.1 19.5781 12.0952 19.5633C12.0947 19.5615 12.0943 19.5593 12.0934 19.5576C12.093 19.5567 12.0926 19.5554 12.0926 19.5545C12.0882 19.5419 12.0843 19.5297 12.0795 19.5175C12.0773 19.5106 12.0747 19.504 12.0721 19.4971C12.0656 19.4971 12.0595 19.4979 12.0529 19.4984C12.0351 19.4997 12.0172 19.501 11.9994 19.5032C11.9868 19.5045 11.9741 19.5062 11.9611 19.508C11.9598 19.508 11.958 19.508 11.9567 19.508C11.9445 19.5097 11.9323 19.5119 11.9197 19.5141C11.901 19.5171 11.8827 19.521 11.864 19.5249C11.8496 19.528 11.8352 19.5315 11.8213 19.535C11.8061 19.5389 11.7908 19.5428 11.776 19.5471C11.7751 19.5471 11.7747 19.5476 11.7743 19.5476C11.7595 19.5519 11.7447 19.5563 11.7303 19.5611C11.715 19.5663 11.7002 19.5711 11.6854 19.5768C11.6554 19.5876 11.6262 19.5994 11.597 19.612C11.5679 19.6247 11.5391 19.6382 11.5108 19.6534C11.483 19.6678 11.4551 19.6834 11.4277 19.7C11.4129 19.7091 11.3981 19.7183 11.3837 19.7278C11.3715 19.7353 11.3593 19.7435 11.3475 19.7518C11.3214 19.7701 11.2957 19.7888 11.2705 19.8088C11.2456 19.8284 11.2213 19.8489 11.1973 19.8702C11.1738 19.8916 11.1507 19.9138 11.1285 19.9364C11.1176 19.9477 11.1063 19.9591 11.0959 19.9708C11.085 19.9826 11.0745 19.9943 11.0641 20.0065C11.0127 20.0662 10.9661 20.1306 10.9256 20.1977C10.9138 20.2173 10.9025 20.2373 10.8921 20.2578C10.8808 20.2791 10.8699 20.3009 10.8599 20.3226C10.8812 20.2443 10.9021 20.1594 10.9239 20.0814C10.8855 20.1193 10.8494 20.1589 10.8146 20.2003C10.7976 20.2212 10.7806 20.2421 10.7641 20.2639C10.7558 20.2748 10.748 20.2852 10.7397 20.2965C10.724 20.3183 10.7083 20.3405 10.6935 20.3631C10.609 20.4916 10.5411 20.6309 10.4941 20.7764C10.488 20.7938 10.4828 20.8116 10.4775 20.8295C10.4754 20.8369 10.4736 20.8443 10.4715 20.8513C10.4662 20.8709 10.461 20.8905 10.4566 20.91C10.4262 21.0429 10.4131 21.1787 10.4205 21.3141C10.4105 21.2414 10.373 21.1704 10.3278 21.1125C10.3299 21.123 10.3321 21.1334 10.3339 21.1439C10.3373 21.1639 10.3391 21.1844 10.3404 21.2044C10.3526 21.4208 10.2446 21.6355 10.1453 21.8345C10.1222 21.8811 10.0961 21.9263 10.0695 21.9716C10.0565 21.9943 10.0434 22.0169 10.0304 22.0391C10.0238 22.0504 10.0177 22.0622 10.0112 22.0735C9.99901 22.0957 9.98725 22.1179 9.97593 22.1406C9.9707 22.1519 9.96548 22.1632 9.96025 22.175C9.94501 22.2089 9.93282 22.2425 9.92411 22.2769C9.91323 22.32 9.908 22.3631 9.91148 22.4071C9.91192 22.4136 9.91236 22.4201 9.91366 22.4267C9.91366 22.4284 9.91366 22.4306 9.91366 22.4323C9.91715 22.4576 9.92368 22.4828 9.93326 22.5081L9.94284 22.5142L9.87012 22.6257C9.85314 22.6178 9.83485 22.6117 9.81613 22.6069C9.73905 22.5873 9.65763 22.6191 9.61496 22.6866C9.42598 22.984 8.91217 23.7874 8.68487 24.0918C8.42623 24.4388 8.18195 24.7157 7.95117 24.9234C7.47002 25.358 6.8234 25.6693 6.01263 25.8574L5.98389 25.9989H10.6826L10.7109 25.8574C10.2764 25.7634 9.95111 25.641 9.73426 25.4895C9.51698 25.3388 9.409 25.1215 9.409 24.8385C9.409 24.6953 9.44383 24.5172 9.5135 24.3042C9.61583 23.9912 9.79348 23.6032 10.0465 23.1395C10.0774 23.0829 10.0918 23.0219 10.0918 22.9627C10.0918 22.9078 10.0796 22.8543 10.0565 22.8059L10.1562 22.6535L10.1671 22.6605C10.208 22.6583 10.2459 22.6496 10.2812 22.6361C10.2899 22.6326 10.2986 22.6291 10.3073 22.6252C10.3121 22.623 10.3164 22.6204 10.3212 22.6182C10.3295 22.6139 10.3382 22.6091 10.3465 22.6043C10.3565 22.5982 10.3669 22.5913 10.3765 22.5843C10.3931 22.5725 10.4092 22.5599 10.4244 22.5464C10.4423 22.5307 10.4597 22.5137 10.4767 22.4959C10.4849 22.4867 10.4937 22.4772 10.5024 22.4676C10.5154 22.4523 10.5285 22.4371 10.5416 22.421C10.5564 22.4027 10.5712 22.3836 10.5864 22.364C10.6178 22.323 10.6487 22.2808 10.6809 22.2403C10.6909 22.2277 10.7009 22.2155 10.7109 22.2033C10.7414 22.1667 10.7723 22.1293 10.8037 22.0927C10.8355 22.0561 10.8681 22.02 10.9021 21.9856C11.0153 21.8706 11.1425 21.7757 11.2975 21.7452C11.2339 21.7291 11.1634 21.7226 11.0993 21.7356C11.0919 21.7369 11.085 21.7387 11.078 21.7409C11.0776 21.7409 11.0767 21.7413 11.0763 21.7413H11.0754C11.102 21.7313 11.1281 21.7204 11.1542 21.7091C11.193 21.6916 11.2308 21.6725 11.2683 21.6516C11.6018 21.4639 11.8631 21.1417 12.0007 20.7838C11.9532 20.8221 11.9027 20.8621 11.8539 20.9009C11.8378 20.914 11.8217 20.9266 11.8061 20.9392C11.8191 20.9244 11.8317 20.9096 11.8439 20.8944C11.847 20.8905 11.85 20.8865 11.8531 20.8826C11.8627 20.8709 11.8714 20.8591 11.8801 20.8469C11.8836 20.843 11.8862 20.8391 11.8892 20.8352C11.9001 20.8199 11.9106 20.8042 11.9214 20.7881C11.9219 20.7873 11.9227 20.7859 11.9232 20.7851C11.9341 20.7681 11.945 20.7507 11.955 20.7328C11.9628 20.7202 11.9702 20.7076 11.9767 20.6945C11.9828 20.6845 11.9881 20.674 11.9933 20.664C12.0007 20.6497 12.0077 20.6353 12.0146 20.6209L12.0159 20.6183C12.0159 20.6183 12.0172 20.6157 12.0177 20.6144C12.0242 20.6005 12.0307 20.5861 12.0368 20.5713C12.0394 20.5656 12.0416 20.5604 12.0438 20.5547C12.0512 20.5373 12.0582 20.5199 12.0643 20.5025C12.066 20.4977 12.0677 20.4933 12.0695 20.4885C12.0712 20.4842 12.0725 20.4803 12.0738 20.4759C12.0791 20.4611 12.0839 20.4463 12.0886 20.4315C12.0943 20.4145 12.0991 20.3971 12.1039 20.3797C12.1065 20.3701 12.1091 20.361 12.1113 20.3518C12.113 20.3449 12.1148 20.3375 12.1165 20.3305C12.1187 20.3222 12.1204 20.3139 12.1226 20.3052C12.1274 20.2835 12.1318 20.2621 12.1352 20.2404L12.1365 20.2325C12.1422 20.2003 12.1466 20.1676 12.15 20.1345C12.1509 20.1267 12.1518 20.1184 12.1527 20.1102C12.1535 20.1019 12.154 20.0936 12.1544 20.0853C12.1553 20.0723 12.1561 20.0592 12.157 20.0457V20.0444C12.1579 20.0257 12.1583 20.0065 12.1583 19.9874V19.9752C12.1583 19.9565 12.1579 19.9377 12.157 19.919V19.9194ZM11.4268 19.8171C11.2696 19.9534 11.1285 20.1075 11.0066 20.2769C11.1102 20.0954 11.2561 19.9373 11.4268 19.8171ZM10.6613 20.6044C10.609 20.7376 10.559 20.8844 10.518 21.0215C10.5172 21.0233 10.5167 21.025 10.5163 21.0267C10.5376 20.8787 10.5873 20.7341 10.6613 20.6044ZM10.3016 21.7491C10.3016 21.7491 10.3008 21.7517 10.2999 21.753C10.272 21.8288 10.2259 21.8963 10.1719 21.9551C10.2093 21.8819 10.2542 21.8162 10.3016 21.7491ZM10.9452 21.4038C11.1115 21.1373 11.3645 20.7324 11.5274 20.4685C11.3532 20.7916 11.1581 21.1043 10.9452 21.4038ZM10.6887 21.7008C10.5751 21.8819 10.4566 22.0613 10.3343 22.2381C10.289 22.3034 10.2437 22.3679 10.198 22.4314C10.1889 22.4449 10.1788 22.4584 10.1693 22.4719C10.1383 22.5151 10.107 22.5582 10.0752 22.6008L10.0282 22.5704C10.0547 22.5242 10.0817 22.478 10.1087 22.4323C10.2637 22.1693 10.4323 21.8972 10.6043 21.6455C10.7719 21.4012 11.2156 20.7441 11.3867 20.4907C11.5618 20.2351 11.7355 19.9782 11.9114 19.7231L11.9201 19.7287C11.5457 20.3379 11.068 21.0899 10.6887 21.7008Z" fill="white"/>
<defs>
<radialGradient id="paint0_radial_563_1709" cx="0" cy="0" r="1" gradientUnits="userSpaceOnUse" gradientTransform="translate(14.5456 1.65612) rotate(117.442) scale(33.7124 174.15)">
<stop stop-color="#A47CF3"/>
<stop offset="1" stop-color="#F051A3"/>
</radialGradient>
<radialGradient id="paint1_radial_563_1709" cx="0" cy="0" r="1" gradientUnits="userSpaceOnUse" gradientTransform="translate(16.0495 31.1667) rotate(178.879) scale(17.0435 17.0376)">
<stop stop-color="#A47CF3"/>
<stop offset="1" stop-color="#683FEA"/>
</radialGradient>
</defs>
</svg>
