<svg width="163" height="56" viewBox="0 0 163 56" fill="none" xmlns="http://www.w3.org/2000/svg">
<g clip-path="url(#clip0_142_16682)">
<path d="M51.3421 52.5937C50.5011 51.1672 49.8188 48.9225 49.2941 45.8573L42.2374 1.0549C42.0592 -0.0741206 40.5916 -0.387467 39.9724 0.570861L37.3475 4.63827C36.9378 5.2735 36.7767 6.03796 36.8942 6.78536L40.8558 31.8921L41.4957 35.6352L41.732 37.2994L42.4058 41.3644L43.1499 45.8586C43.5171 47.7094 43.7013 49.0822 43.7013 49.9796C43.7013 50.6136 43.6225 51.222 43.465 51.8024C43.2541 52.807 42.7682 53.6252 42.0071 54.2604C41.246 54.8944 40.1032 55.3431 38.5811 55.6064L38.5024 56.0027H55.6746L55.7533 55.6064C53.6519 55.0261 52.1819 54.0214 51.3421 52.5949V52.5937Z" fill="url(#paint0_linear_142_16682)"/>
<path d="M35.2557 44.1872C34.8122 43.508 34.4498 42.4363 34.1723 40.9781L30.1695 19.3779H24.5004L24.4592 19.5657C25.0966 19.6937 25.5692 19.8571 25.8758 20.0583C26.1824 20.2594 26.3339 20.5252 26.3339 20.852C26.3339 21.002 26.3206 21.1275 26.2927 21.2287C26.2636 21.4055 26.1255 21.7469 25.8746 22.248L20.4879 30.567C20.4879 30.567 19.1354 34.2137 24.1005 34.399C29.3987 34.5953 30.0544 36.3559 30.115 36.5754L30.1186 36.5876V36.5973L30.1671 36.8985L30.2895 37.5642H30.2907L30.9184 40.9781C31.1111 41.8584 31.2093 42.5144 31.2093 42.9411C31.2093 43.2422 31.1669 43.5336 31.0845 43.8092C30.973 44.2871 30.7161 44.6773 30.3125 44.9809C29.9102 45.282 29.3054 45.4966 28.4995 45.6222L28.4571 45.8112H37.5449L37.5873 45.6222C36.4761 45.3442 35.6968 44.8663 35.2521 44.1872H35.2557ZM21.1908 31.0254L27.2949 21.6043L29.6217 33.8772C18.933 35.3147 21.1908 31.0254 21.1908 31.0254Z" fill="white"/>
<path d="M17.1807 38.9771V38.9686C17.1783 38.9137 17.1747 38.8601 17.1698 38.8064C17.1686 38.7918 17.1674 38.7759 17.1662 38.7613C17.1662 38.754 17.165 38.7454 17.1638 38.7381C17.1601 38.7016 17.1565 38.665 17.1516 38.6284C17.1444 38.5711 17.1347 38.5138 17.125 38.4577C17.1165 38.4102 17.108 38.3626 17.0983 38.3163C17.0935 38.2931 17.0874 38.2699 17.0814 38.2468C17.0814 38.2431 17.0801 38.2382 17.0789 38.2346C17.0704 38.1968 17.0607 38.159 17.0498 38.1212C17.0498 38.1163 17.0474 38.1114 17.0462 38.1066C17.0341 38.0639 17.022 38.0212 17.0086 37.9798C17.0074 37.9749 17.0062 37.9688 17.0038 37.9639C17.0026 37.9615 17.0014 37.9578 17.0014 37.9554C16.9892 37.92 16.9783 37.8859 16.965 37.8517C16.959 37.8322 16.9517 37.8139 16.9444 37.7944C16.9262 37.7944 16.9093 37.7969 16.8911 37.7981C16.8414 37.8017 16.7917 37.8054 16.742 37.8115C16.7069 37.8152 16.6717 37.82 16.6354 37.8249C16.6317 37.8249 16.6269 37.8249 16.6233 37.8249C16.5893 37.8298 16.5554 37.8359 16.5203 37.842C16.4681 37.8505 16.4172 37.8615 16.3651 37.8725C16.3251 37.881 16.2852 37.8908 16.2464 37.9005C16.204 37.9115 16.1615 37.9225 16.1203 37.9346C16.1179 37.9346 16.1167 37.9359 16.1155 37.9359C16.0743 37.9481 16.0331 37.9603 15.9931 37.9737C15.9507 37.9883 15.9095 38.0017 15.8683 38.0176C15.7847 38.048 15.7035 38.081 15.6223 38.1163C15.5411 38.1517 15.4611 38.1895 15.3823 38.2321C15.3048 38.2724 15.2272 38.3163 15.1508 38.3626C15.1096 38.3882 15.0684 38.4138 15.0284 38.4406C14.9945 38.4614 14.9606 38.4845 14.9279 38.5077C14.8551 38.5589 14.7836 38.6113 14.7134 38.6674C14.6443 38.7223 14.5764 38.7796 14.5098 38.8393C14.4443 38.8991 14.3801 38.9613 14.3183 39.0247C14.288 39.0564 14.2565 39.0881 14.2274 39.121C14.1971 39.1539 14.168 39.1868 14.1389 39.221C13.9959 39.388 13.8663 39.5684 13.7536 39.7562C13.7208 39.8111 13.6893 39.8672 13.6602 39.9245C13.6287 39.9842 13.5984 40.0452 13.5706 40.1061C13.6299 39.8867 13.6881 39.6489 13.7487 39.4307C13.6421 39.5367 13.5415 39.6477 13.4445 39.7635C13.3973 39.822 13.35 39.8806 13.304 39.9415C13.2809 39.972 13.2591 40.0013 13.2361 40.033C13.1925 40.0939 13.1488 40.1561 13.1076 40.2195C12.8725 40.5792 12.6835 40.9694 12.5526 41.3766C12.5356 41.4254 12.5211 41.4753 12.5065 41.5253C12.5005 41.5461 12.4956 41.5668 12.4896 41.5863C12.475 41.6412 12.4605 41.696 12.4484 41.7509C12.3635 42.1228 12.3272 42.5032 12.3478 42.8824C12.3199 42.6787 12.2157 42.48 12.0897 42.3178C12.0957 42.3471 12.1018 42.3764 12.1066 42.4056C12.1163 42.4617 12.1212 42.519 12.1248 42.5751C12.1587 43.1811 11.8582 43.7822 11.5819 44.3393C11.5177 44.4698 11.4449 44.5966 11.371 44.7234C11.3347 44.7868 11.2983 44.8502 11.262 44.9124C11.2438 44.9441 11.2268 44.977 11.2086 45.0087C11.1747 45.0709 11.142 45.1331 11.1105 45.1965C11.0959 45.2282 11.0814 45.2599 11.0668 45.2928C11.0244 45.3879 10.9905 45.4818 10.9663 45.5781C10.936 45.6988 10.9214 45.8195 10.9311 45.9427C10.9323 45.9609 10.9335 45.9792 10.9372 45.9975C10.9372 46.0024 10.9372 46.0085 10.9372 46.0134C10.9469 46.0841 10.965 46.1548 10.9917 46.2255L11.0184 46.2426L10.816 46.5547C10.7687 46.5328 10.7178 46.5157 10.6657 46.5023C10.4512 46.4474 10.2246 46.5364 10.1058 46.7254C9.57988 47.5582 8.14988 49.8077 7.51728 50.6599C6.79743 51.6317 6.11757 52.4071 5.47528 52.9887C4.13617 54.2055 2.33654 55.0773 0.0800444 55.604L6.10352e-05 56.0002H13.0773L13.1561 55.604C11.9467 55.3406 11.0414 54.998 10.4379 54.5737C9.83316 54.1518 9.53262 53.5434 9.53262 52.7509C9.53262 52.3498 9.62957 51.8511 9.82347 51.2549C10.1083 50.3783 10.6027 49.2919 11.3068 47.9934C11.3928 47.8349 11.4328 47.6642 11.4328 47.4984C11.4328 47.3448 11.3989 47.1948 11.3347 47.0595L11.6122 46.6328L11.6425 46.6523C11.7564 46.6462 11.8618 46.6218 11.96 46.584C11.9842 46.5742 12.0085 46.5645 12.0327 46.5535C12.046 46.5474 12.0582 46.5401 12.0715 46.534C12.0945 46.5218 12.1187 46.5084 12.1418 46.495C12.1696 46.4779 12.1987 46.4584 12.2254 46.4389C12.2714 46.406 12.3163 46.3706 12.3587 46.3328C12.4084 46.2889 12.4569 46.2414 12.5041 46.1914C12.5271 46.1658 12.5514 46.139 12.5756 46.1121C12.612 46.0695 12.6483 46.0268 12.6847 45.9817C12.7259 45.9305 12.7671 45.8768 12.8095 45.822C12.8968 45.7073 12.9828 45.5891 13.0725 45.4757C13.1004 45.4403 13.1282 45.4062 13.1561 45.3721C13.2409 45.2696 13.327 45.1648 13.4142 45.0624C13.5027 44.9599 13.5936 44.8587 13.6881 44.7624C14.0032 44.4405 14.3571 44.1748 14.7885 44.0894C14.6116 44.0443 14.4152 44.026 14.2371 44.0626C14.2165 44.0662 14.1971 44.0711 14.1777 44.0772C14.1765 44.0772 14.1741 44.0784 14.1729 44.0784H14.1704C14.2444 44.0504 14.3171 44.0199 14.3898 43.9882C14.4976 43.9394 14.6031 43.8858 14.7073 43.8273C15.6356 43.3018 16.3627 42.3995 16.7457 41.3973C16.6136 41.5046 16.473 41.6168 16.3373 41.7253C16.2924 41.7619 16.2476 41.7972 16.204 41.8326C16.2403 41.7911 16.2755 41.7497 16.3094 41.707C16.3179 41.696 16.3264 41.6851 16.3348 41.6741C16.3615 41.6412 16.3857 41.6082 16.41 41.5741C16.4197 41.5631 16.4269 41.5522 16.4354 41.5412C16.4657 41.4985 16.4948 41.4546 16.5251 41.4095C16.5263 41.4071 16.5287 41.4034 16.53 41.401C16.5602 41.3534 16.5905 41.3046 16.6184 41.2547C16.6402 41.2193 16.6608 41.1839 16.679 41.1474C16.696 41.1193 16.7105 41.0901 16.7251 41.062C16.7457 41.0218 16.7651 40.9815 16.7844 40.9413L16.7881 40.934C16.7881 40.934 16.7917 40.9267 16.7929 40.923C16.8111 40.884 16.8293 40.8438 16.8462 40.8023C16.8535 40.7865 16.8596 40.7718 16.8656 40.756C16.8862 40.7072 16.9056 40.6584 16.9226 40.6097C16.9274 40.5963 16.9323 40.5841 16.9371 40.5707C16.942 40.5585 16.9456 40.5475 16.9493 40.5353C16.9638 40.4938 16.9771 40.4524 16.9905 40.4109C17.0062 40.3634 17.0195 40.3146 17.0329 40.2658C17.0401 40.239 17.0474 40.2134 17.0535 40.1878C17.0583 40.1683 17.0632 40.1476 17.068 40.1281C17.0741 40.1049 17.0789 40.0817 17.085 40.0574C17.0983 39.9964 17.1104 39.9367 17.1201 39.8757L17.1238 39.8537C17.1395 39.7635 17.1516 39.6721 17.1613 39.5794C17.1638 39.5575 17.1662 39.5343 17.1686 39.5111C17.171 39.488 17.1722 39.4648 17.1735 39.4416C17.1759 39.4051 17.1783 39.3685 17.1807 39.3307V39.327C17.1831 39.2746 17.1844 39.221 17.1844 39.1673V39.1332C17.1844 39.0807 17.1831 39.0283 17.1807 38.9759V38.9771ZM15.1484 38.6906C14.7109 39.0722 14.3183 39.5038 13.979 39.9781C14.2674 39.4697 14.6734 39.0271 15.1484 38.6906ZM13.018 40.895C12.8725 41.2681 12.7332 41.679 12.6192 42.063C12.6168 42.0679 12.6156 42.0728 12.6144 42.0776C12.6738 41.6631 12.8119 41.2583 13.018 40.895ZM12.017 44.1004C12.017 44.1004 12.0145 44.1077 12.0121 44.1114C11.9345 44.3235 11.8061 44.5125 11.6558 44.6771C11.76 44.4722 11.8849 44.2881 12.017 44.1004ZM13.8081 43.1335C14.271 42.3873 14.9751 41.2534 15.4284 40.5146C14.9436 41.4193 14.4007 42.2947 13.8081 43.1335ZM13.0943 43.965C12.778 44.4722 12.4484 44.9746 12.1078 45.4696C11.9818 45.6525 11.8558 45.8329 11.7285 46.0109C11.7031 46.0487 11.6752 46.0865 11.6485 46.1243C11.5625 46.245 11.4752 46.3657 11.3868 46.4852L11.2559 46.3999C11.3298 46.2706 11.405 46.1414 11.4801 46.0134C11.9115 45.277 12.3805 44.5149 12.8592 43.8102C13.3258 43.1262 14.5607 41.2864 15.0369 40.5768C15.5241 39.8611 16.0076 39.1417 16.4972 38.4272L16.5215 38.4431C15.4793 40.1488 14.1498 42.2544 13.0943 43.965Z" fill="#F051A3"/>
<path d="M17.1807 38.9771V38.9686C17.1783 38.9137 17.1747 38.8601 17.1698 38.8064C17.1686 38.7918 17.1674 38.7759 17.1662 38.7613C17.1662 38.754 17.165 38.7454 17.1638 38.7381C17.1601 38.7016 17.1565 38.665 17.1516 38.6284C17.1444 38.5711 17.1347 38.5138 17.125 38.4577C17.1165 38.4102 17.108 38.3626 17.0983 38.3163C17.0935 38.2931 17.0874 38.2699 17.0814 38.2468C17.0814 38.2431 17.0801 38.2382 17.0789 38.2346C17.0704 38.1968 17.0607 38.159 17.0498 38.1212C17.0498 38.1163 17.0474 38.1114 17.0462 38.1066C17.0341 38.0639 17.022 38.0212 17.0086 37.9798C17.0074 37.9749 17.0062 37.9688 17.0038 37.9639C17.0026 37.9615 17.0014 37.9578 17.0014 37.9554C16.9892 37.92 16.9783 37.8859 16.965 37.8517C16.959 37.8322 16.9517 37.8139 16.9444 37.7944C16.9262 37.7944 16.9093 37.7969 16.8911 37.7981C16.8414 37.8017 16.7917 37.8054 16.742 37.8115C16.7069 37.8152 16.6717 37.82 16.6354 37.8249C16.6317 37.8249 16.6269 37.8249 16.6233 37.8249C16.5893 37.8298 16.5554 37.8359 16.5203 37.842C16.4681 37.8505 16.4172 37.8615 16.3651 37.8725C16.3251 37.881 16.2852 37.8908 16.2464 37.9005C16.204 37.9115 16.1615 37.9225 16.1203 37.9346C16.1179 37.9346 16.1167 37.9359 16.1155 37.9359C16.0743 37.9481 16.0331 37.9603 15.9931 37.9737C15.9507 37.9883 15.9095 38.0017 15.8683 38.0176C15.7847 38.048 15.7035 38.081 15.6223 38.1163C15.5411 38.1517 15.4611 38.1895 15.3823 38.2321C15.3048 38.2724 15.2272 38.3163 15.1508 38.3626C15.1096 38.3882 15.0684 38.4138 15.0284 38.4406C14.9945 38.4614 14.9606 38.4845 14.9279 38.5077C14.8551 38.5589 14.7836 38.6113 14.7134 38.6674C14.6443 38.7223 14.5764 38.7796 14.5098 38.8393C14.4443 38.8991 14.3801 38.9613 14.3183 39.0247C14.288 39.0564 14.2565 39.0881 14.2274 39.121C14.1971 39.1539 14.168 39.1868 14.1389 39.221C13.9959 39.388 13.8663 39.5684 13.7536 39.7562C13.7208 39.8111 13.6893 39.8672 13.6602 39.9245C13.6287 39.9842 13.5984 40.0452 13.5706 40.1061C13.6299 39.8867 13.6881 39.6489 13.7487 39.4307C13.6421 39.5367 13.5415 39.6477 13.4445 39.7635C13.3973 39.822 13.35 39.8806 13.304 39.9415C13.2809 39.972 13.2591 40.0013 13.2361 40.033C13.1925 40.0939 13.1488 40.1561 13.1076 40.2195C12.8725 40.5792 12.6835 40.9694 12.5526 41.3766C12.5356 41.4254 12.5211 41.4753 12.5065 41.5253C12.5005 41.5461 12.4956 41.5668 12.4896 41.5863C12.475 41.6412 12.4605 41.696 12.4484 41.7509C12.3635 42.1228 12.3272 42.5032 12.3478 42.8824C12.3199 42.6787 12.2157 42.48 12.0897 42.3178C12.0957 42.3471 12.1018 42.3764 12.1066 42.4056C12.1163 42.4617 12.1212 42.519 12.1248 42.5751C12.1587 43.1811 11.8582 43.7822 11.5819 44.3393C11.5177 44.4698 11.4449 44.5966 11.371 44.7234C11.3347 44.7868 11.2983 44.8502 11.262 44.9124C11.2438 44.9441 11.2268 44.977 11.2086 45.0087C11.1747 45.0709 11.142 45.1331 11.1105 45.1965C11.0959 45.2282 11.0814 45.2599 11.0668 45.2928C11.0244 45.3879 10.9905 45.4818 10.9663 45.5781C10.936 45.6988 10.9214 45.8195 10.9311 45.9427C10.9323 45.9609 10.9335 45.9792 10.9372 45.9975C10.9372 46.0024 10.9372 46.0085 10.9372 46.0134C10.9469 46.0841 10.965 46.1548 10.9917 46.2255L11.0184 46.2426L10.816 46.5547C10.7687 46.5328 10.7178 46.5157 10.6657 46.5023C10.4512 46.4474 10.2246 46.5364 10.1058 46.7254C9.57988 47.5582 8.14988 49.8077 7.51728 50.6599C6.79743 51.6317 6.11757 52.4071 5.47528 52.9887C4.13617 54.2055 2.33654 55.0773 0.0800444 55.604L6.10352e-05 56.0002H13.0773L13.1561 55.604C11.9467 55.3406 11.0414 54.998 10.4379 54.5737C9.83316 54.1518 9.53262 53.5434 9.53262 52.7509C9.53262 52.3498 9.62957 51.8511 9.82347 51.2549C10.1083 50.3783 10.6027 49.2919 11.3068 47.9934C11.3928 47.8349 11.4328 47.6642 11.4328 47.4984C11.4328 47.3448 11.3989 47.1948 11.3347 47.0595L11.6122 46.6328L11.6425 46.6523C11.7564 46.6462 11.8618 46.6218 11.96 46.584C11.9842 46.5742 12.0085 46.5645 12.0327 46.5535C12.046 46.5474 12.0582 46.5401 12.0715 46.534C12.0945 46.5218 12.1187 46.5084 12.1418 46.495C12.1696 46.4779 12.1987 46.4584 12.2254 46.4389C12.2714 46.406 12.3163 46.3706 12.3587 46.3328C12.4084 46.2889 12.4569 46.2414 12.5041 46.1914C12.5271 46.1658 12.5514 46.139 12.5756 46.1121C12.612 46.0695 12.6483 46.0268 12.6847 45.9817C12.7259 45.9305 12.7671 45.8768 12.8095 45.822C12.8968 45.7073 12.9828 45.5891 13.0725 45.4757C13.1004 45.4403 13.1282 45.4062 13.1561 45.3721C13.2409 45.2696 13.327 45.1648 13.4142 45.0624C13.5027 44.9599 13.5936 44.8587 13.6881 44.7624C14.0032 44.4405 14.3571 44.1748 14.7885 44.0894C14.6116 44.0443 14.4152 44.026 14.2371 44.0626C14.2165 44.0662 14.1971 44.0711 14.1777 44.0772C14.1765 44.0772 14.1741 44.0784 14.1729 44.0784H14.1704C14.2444 44.0504 14.3171 44.0199 14.3898 43.9882C14.4976 43.9394 14.6031 43.8858 14.7073 43.8273C15.6356 43.3018 16.3627 42.3995 16.7457 41.3973C16.6136 41.5046 16.473 41.6168 16.3373 41.7253C16.2924 41.7619 16.2476 41.7972 16.204 41.8326C16.2403 41.7911 16.2755 41.7497 16.3094 41.707C16.3179 41.696 16.3264 41.6851 16.3348 41.6741C16.3615 41.6412 16.3857 41.6082 16.41 41.5741C16.4197 41.5631 16.4269 41.5522 16.4354 41.5412C16.4657 41.4985 16.4948 41.4546 16.5251 41.4095C16.5263 41.4071 16.5287 41.4034 16.53 41.401C16.5602 41.3534 16.5905 41.3046 16.6184 41.2547C16.6402 41.2193 16.6608 41.1839 16.679 41.1474C16.696 41.1193 16.7105 41.0901 16.7251 41.062C16.7457 41.0218 16.7651 40.9815 16.7844 40.9413L16.7881 40.934C16.7881 40.934 16.7917 40.9267 16.7929 40.923C16.8111 40.884 16.8293 40.8438 16.8462 40.8023C16.8535 40.7865 16.8596 40.7718 16.8656 40.756C16.8862 40.7072 16.9056 40.6584 16.9226 40.6097C16.9274 40.5963 16.9323 40.5841 16.9371 40.5707C16.942 40.5585 16.9456 40.5475 16.9493 40.5353C16.9638 40.4938 16.9771 40.4524 16.9905 40.4109C17.0062 40.3634 17.0195 40.3146 17.0329 40.2658C17.0401 40.239 17.0474 40.2134 17.0535 40.1878C17.0583 40.1683 17.0632 40.1476 17.068 40.1281C17.0741 40.1049 17.0789 40.0817 17.085 40.0574C17.0983 39.9964 17.1104 39.9367 17.1201 39.8757L17.1238 39.8537C17.1395 39.7635 17.1516 39.6721 17.1613 39.5794C17.1638 39.5575 17.1662 39.5343 17.1686 39.5111C17.171 39.488 17.1722 39.4648 17.1735 39.4416C17.1759 39.4051 17.1783 39.3685 17.1807 39.3307V39.327C17.1831 39.2746 17.1844 39.221 17.1844 39.1673V39.1332C17.1844 39.0807 17.1831 39.0283 17.1807 38.9759V38.9771ZM15.1484 38.6906C14.7109 39.0722 14.3183 39.5038 13.979 39.9781C14.2674 39.4697 14.6734 39.0271 15.1484 38.6906ZM13.018 40.895C12.8725 41.2681 12.7332 41.679 12.6192 42.063C12.6168 42.0679 12.6156 42.0728 12.6144 42.0776C12.6738 41.6631 12.8119 41.2583 13.018 40.895ZM12.017 44.1004C12.017 44.1004 12.0145 44.1077 12.0121 44.1114C11.9345 44.3235 11.8061 44.5125 11.6558 44.6771C11.76 44.4722 11.8849 44.2881 12.017 44.1004ZM13.8081 43.1335C14.271 42.3873 14.9751 41.2534 15.4284 40.5146C14.9436 41.4193 14.4007 42.2947 13.8081 43.1335ZM13.0943 43.965C12.778 44.4722 12.4484 44.9746 12.1078 45.4696C11.9818 45.6525 11.8558 45.8329 11.7285 46.0109C11.7031 46.0487 11.6752 46.0865 11.6485 46.1243C11.5625 46.245 11.4752 46.3657 11.3868 46.4852L11.2559 46.3999C11.3298 46.2706 11.405 46.1414 11.4801 46.0134C11.9115 45.277 12.3805 44.5149 12.8592 43.8102C13.3258 43.1262 14.5607 41.2864 15.0369 40.5768C15.5241 39.8611 16.0076 39.1417 16.4972 38.4272L16.5215 38.4431C15.4793 40.1488 14.1498 42.2544 13.0943 43.965Z" fill="url(#paint1_linear_142_16682)"/>
<path d="M163 32.7143C161.925 31.2256 159.93 30.3965 158.121 30.666C158.4 30.577 158.697 30.4721 158.974 30.3843C157.376 30.0381 155.585 30.3209 154.266 31.2963C154.466 31.122 154.607 30.8684 154.691 30.6148C154.055 31.2731 153.063 31.3841 152.155 31.4902C151.248 31.595 150.246 31.4963 149.706 32.2351V32.2107H148.754V32.1827L147.138 31.8194C147.138 31.8194 146.902 32.0718 146.551 32.2839H49.4915V33.2471H146.634C146.938 33.4471 147.138 33.6604 147.138 33.6604L148.754 33.2983V33.2703H149.706V33.2471C150.246 33.9872 151.248 33.8323 152.155 33.9372C153.063 34.0421 154.055 34.1542 154.691 34.8126C154.607 34.5602 154.466 34.3054 154.266 34.1311C155.585 35.1065 157.376 35.3881 158.974 35.0443C158.697 34.9541 158.4 34.8504 158.121 34.7614C159.93 35.0296 161.925 34.2018 163 32.7143ZM151.844 33.6178C152.133 33.5678 152.434 33.5629 152.721 33.63C152.426 33.6434 152.137 33.647 151.844 33.6178ZM155.324 34.4091C155.823 34.5578 156.372 34.6968 156.882 34.8053C156.346 34.7724 155.812 34.637 155.324 34.4091ZM153.631 32.9179C152.532 32.9423 151.379 32.9143 150.281 32.8655C150.102 32.8569 149.923 32.8472 149.742 32.8374C149.73 32.8362 149.718 32.8362 149.706 32.835V32.6363C149.718 32.635 149.73 32.635 149.742 32.6338C151.036 32.5558 152.34 32.5302 153.631 32.5521C156.217 32.6094 159.426 32.6472 162.001 32.7167V32.7533C160.885 32.7826 159.769 32.8021 158.653 32.8265C157.551 32.8448 154.696 32.8911 153.631 32.9179ZM160.765 34.0384C160.065 34.3213 159.3 34.4493 158.548 34.4054C159.299 34.3713 160.042 34.2457 160.765 34.0384Z" fill="url(#paint2_linear_142_16682)"/>
<path d="M149.742 32.6343V32.8372C149.73 32.836 149.718 32.836 149.706 32.8347V32.6367C149.718 32.6355 149.73 32.6355 149.742 32.6343Z" fill="white"/>
<path d="M71.5295 29.7732C71.9406 29.6776 72.2704 29.5186 72.5143 29.2964C72.7582 29.0741 73.0344 28.6991 73.3411 28.1682L77.624 20.8221C77.7099 20.6291 77.7574 20.4995 77.7682 20.4316C77.7774 20.393 77.782 20.3452 77.782 20.2865C77.782 20.1615 77.7298 20.0597 77.624 19.9825C77.5181 19.9053 77.3555 19.8436 77.1346 19.7942L77.1485 19.7217H79.1027L80.4818 27.9923C80.5769 28.5509 80.7027 28.9615 80.8561 29.2207C81.0095 29.4816 81.2779 29.6637 81.6614 29.7702L81.6476 29.8427H78.5137L78.5275 29.7702C78.8051 29.7223 79.0138 29.6405 79.1534 29.5248C79.2914 29.409 79.3804 29.2593 79.4187 29.0772C79.4479 28.9707 79.4617 28.8596 79.4617 28.7439C79.4617 28.5803 79.4279 28.3303 79.3604 27.9923L79.1012 26.4304H74.7033L73.697 28.1651C73.3994 28.676 73.2522 29.0371 73.2522 29.2501C73.2522 29.3951 73.3074 29.5063 73.4178 29.5834C73.5283 29.6606 73.6924 29.7239 73.9133 29.7717L73.8995 29.8442H71.5142L71.528 29.7717L71.5295 29.7732ZM74.892 26.1295H79.0598L78.1118 20.5767L74.8644 26.1434L74.8935 26.1295H74.892Z" fill="white"/>
<path d="M85.2693 20.6637C85.3077 20.4322 85.3276 20.2871 85.3276 20.23C85.3276 20.0464 85.2678 19.9167 85.1481 19.8396C85.0285 19.7624 84.8245 19.7238 84.5376 19.7238L84.5668 19.5787L86.5931 19L85.6881 23.3089C86.4934 22.7502 87.3064 22.4709 88.1317 22.4709C88.957 22.4709 89.6258 22.7209 90.0584 23.2225C90.4894 23.7241 90.7057 24.3599 90.7057 25.1316C90.7057 25.4696 90.672 25.7875 90.6045 26.0853C90.4695 26.7505 90.2072 27.3817 89.8145 27.979C89.4218 28.5762 88.9309 29.0608 88.3419 29.4328C87.7528 29.8047 87.104 29.9899 86.3937 29.9899C85.5792 29.9899 84.9042 29.7152 84.3673 29.1658L83.3902 29.9899H83.3043L85.2739 20.6637H85.2693ZM88.3879 28.7105C88.9432 28.1086 89.3129 27.3725 89.4939 26.5051C89.5706 26.1193 89.6089 25.7628 89.6089 25.4356C89.6089 24.7025 89.4525 24.0914 89.1426 23.5991C88.8312 23.1067 88.3925 22.8614 87.828 22.8614C87.0809 22.8614 86.3339 23.1746 85.5853 23.8012L84.5499 28.7028C84.76 29.0114 85.027 29.2399 85.3476 29.3896C85.6682 29.5393 85.9872 29.6133 86.3032 29.6133C87.1362 29.6133 87.8311 29.3124 88.3879 28.709V28.7105Z" fill="white"/>
<path d="M92.5066 29.2598C92.0326 28.7736 91.7948 28.0961 91.7948 27.2288C91.7948 26.8723 91.8378 26.5003 91.9237 26.116C92.0863 25.3552 92.3793 24.6993 92.8011 24.1499C93.223 23.6004 93.7261 23.1838 94.3106 22.8998C94.895 22.6158 95.5086 22.4738 96.1498 22.4738C96.9551 22.4738 97.5825 22.7192 98.032 23.2115L98.5643 20.6666C98.6026 20.4351 98.6225 20.29 98.6225 20.2329C98.6225 20.0493 98.5627 19.9197 98.4431 19.8425C98.3234 19.7653 98.1194 19.7267 97.8326 19.7267L97.8617 19.5817L99.8881 19.0029L97.9906 27.9973C97.8847 28.5082 97.8326 28.8461 97.8326 29.0097C97.8326 29.2227 97.8847 29.3863 97.9906 29.5021C98.0964 29.6178 98.2835 29.7089 98.5505 29.7768L98.5366 29.8493H96.6253L96.8846 28.5915C96.587 29.0344 96.2234 29.3801 95.7924 29.6255C95.3613 29.8709 94.8766 29.9944 94.3412 29.9944C93.5942 29.9944 92.9837 29.7505 92.5081 29.2644L92.5066 29.2598ZM95.6681 29.34C95.9979 29.1564 96.2986 28.894 96.567 28.5514C96.8355 28.2088 97.0318 27.8121 97.1561 27.3584L97.9031 23.8011C97.7497 23.4538 97.5227 23.2038 97.2205 23.0495C96.9183 22.8952 96.567 22.818 96.1636 22.818C95.3675 22.818 94.671 23.122 94.0728 23.7285C93.4745 24.3366 93.0742 25.1067 92.8732 26.042C92.7873 26.4463 92.7444 26.8321 92.7444 27.1994C92.7444 27.9325 92.9116 28.5174 93.2475 28.9557C93.5835 29.394 94.0667 29.6132 94.6986 29.6132C95.0146 29.6132 95.3383 29.5221 95.6697 29.3385L95.6681 29.34Z" fill="white"/>
<path d="M100.986 29.6503C100.743 29.4234 100.62 29.0839 100.62 28.6301C100.62 28.2921 100.683 27.8446 100.807 27.2859L101.468 24.1329C101.506 23.9014 101.526 23.7564 101.526 23.6993C101.526 23.5156 101.467 23.386 101.347 23.3088C101.227 23.2316 101.023 23.193 100.736 23.193L100.766 23.048L102.792 22.4692L101.786 27.2411C101.68 27.752 101.628 28.1671 101.628 28.4851C101.628 28.8709 101.706 29.1548 101.865 29.3385C102.023 29.5222 102.28 29.6132 102.634 29.6132C103.017 29.6132 103.491 29.4805 104.057 29.215C104.622 28.9496 105.097 28.6147 105.481 28.2103L106.343 24.1329C106.381 23.9014 106.401 23.7564 106.401 23.6993C106.401 23.5156 106.342 23.386 106.222 23.3088C106.102 23.2316 105.898 23.193 105.611 23.193L105.64 23.048L107.667 22.4692L106.503 27.9927C106.397 28.5036 106.345 28.8416 106.345 29.0051C106.345 29.2181 106.397 29.3817 106.503 29.4975C106.608 29.6132 106.796 29.7043 107.062 29.7722L107.049 29.8447H105.137L105.381 28.7166C104.892 29.1024 104.366 29.411 103.8 29.6425C103.234 29.874 102.717 29.9898 102.247 29.9898C101.654 29.9898 101.233 29.8771 100.989 29.6503H100.986Z" fill="white"/>
<path d="M108.208 29.7738C108.524 29.7059 108.762 29.6056 108.92 29.4698C109.078 29.3355 109.193 29.1658 109.265 28.9636C109.337 28.7614 109.42 28.4389 109.517 27.9944L111.069 20.6637C111.108 20.4322 111.127 20.2871 111.127 20.23C111.127 20.0464 111.068 19.9167 110.948 19.8396C110.828 19.7624 110.624 19.7238 110.337 19.7238L110.367 19.5787L112.393 19L110.495 27.9944C110.39 28.5052 110.337 28.8432 110.337 29.0068C110.337 29.2198 110.39 29.3834 110.495 29.4991C110.601 29.6149 110.787 29.7059 111.055 29.7738L111.042 29.8464H108.196L108.21 29.7738H108.208Z" fill="white"/>
<path d="M115.939 29.7732C116.35 29.6776 116.68 29.5186 116.924 29.2964C117.168 29.0741 117.444 28.6991 117.751 28.1682L122.034 20.8221C122.12 20.6291 122.167 20.4995 122.178 20.4316C122.187 20.393 122.192 20.3452 122.192 20.2865C122.192 20.1615 122.14 20.0597 122.034 19.9825C121.928 19.9053 121.765 19.8436 121.545 19.7942L121.558 19.7217H123.513L124.892 27.9923C124.987 28.5509 125.113 28.9615 125.266 29.2207C125.419 29.4816 125.688 29.6637 126.071 29.7702L126.057 29.8427H122.924L122.937 29.7702C123.215 29.7223 123.424 29.6405 123.563 29.5248C123.701 29.409 123.79 29.2593 123.829 29.0772C123.858 28.9707 123.872 28.8596 123.872 28.7439C123.872 28.5803 123.838 28.3303 123.77 27.9923L123.511 26.4304H119.113L118.107 28.1651C117.809 28.676 117.662 29.0371 117.662 29.2501C117.662 29.3951 117.717 29.5063 117.828 29.5834C117.938 29.6606 118.102 29.7239 118.323 29.7717L118.309 29.8442H115.924L115.938 29.7717L115.939 29.7732ZM119.303 26.1295H123.471L122.523 20.5767L119.276 26.1434L119.305 26.1295H119.303Z" fill="white"/>
<path d="M132.62 29.875C132.595 29.8549 132.54 29.8457 132.454 29.8457H127.136L133.287 22.9332H130.988C130.345 22.9332 129.845 23.0628 129.486 23.3237C129.127 23.5845 128.779 24.0135 128.444 24.6108H128.316L129.279 22.4702H129.437C129.466 22.5273 129.492 22.5659 129.515 22.586C129.54 22.606 129.595 22.6153 129.681 22.6153H134.754L128.616 29.5278H131.159C131.801 29.5278 132.299 29.3997 132.654 29.145C133.008 28.8904 133.353 28.4583 133.689 27.8517H133.818L132.855 29.9923H132.697C132.667 29.9337 132.641 29.8966 132.617 29.8766L132.62 29.875Z" fill="white"/>
<path d="M134.566 29.7732C134.882 29.7053 135.12 29.6049 135.278 29.4691C135.436 29.3349 135.551 29.1651 135.623 28.9629C135.695 28.7608 135.778 28.4382 135.875 27.9937L136.694 24.1324C136.732 23.9009 136.752 23.7558 136.752 23.6987C136.752 23.5151 136.693 23.3854 136.573 23.3082C136.453 23.2311 136.249 23.1925 135.962 23.1925L135.992 23.0474L138.018 22.4687L136.854 27.9922C136.748 28.503 136.696 28.841 136.696 29.0046C136.696 29.2176 136.748 29.3812 136.854 29.4969C136.959 29.6127 137.145 29.7037 137.414 29.7716L137.4 29.8442H134.554L134.568 29.7716L134.566 29.7732ZM137.283 21.0967C137.168 20.9809 137.111 20.8359 137.111 20.663C137.111 20.4223 137.206 20.2047 137.398 20.0117C137.59 19.8188 137.809 19.7231 138.059 19.7231C138.242 19.7231 138.392 19.7818 138.512 19.896C138.631 20.0117 138.691 20.1568 138.691 20.3297C138.691 20.5797 138.59 20.8004 138.389 20.9871C138.188 21.1754 137.967 21.2695 137.728 21.2695C137.545 21.2695 137.398 21.2124 137.283 21.0967Z" fill="white"/>
<path d="M144.175 29.875C144.151 29.8549 144.095 29.8457 144.01 29.8457H138.691L144.843 22.9332H142.543C141.9 22.9332 141.4 23.0628 141.041 23.3237C140.682 23.5845 140.334 24.0135 140 24.6108H139.871L140.834 22.4702H140.992C141.021 22.5273 141.047 22.5659 141.071 22.586C141.095 22.606 141.15 22.6153 141.236 22.6153H146.309L140.172 29.5278H142.715C143.356 29.5278 143.855 29.3997 144.209 29.145C144.563 28.8904 144.908 28.4583 145.244 27.8517H145.373L144.41 29.9923H144.252C144.223 29.9337 144.197 29.8966 144.172 29.8766L144.175 29.875Z" fill="white"/>
<path d="M110.63 39.7283C110.578 40.0005 110.202 40.3091 109.913 40.2212C109.868 40.2212 109.45 40.027 109.143 40.1067C109.047 40.1498 108.95 40.1498 108.828 40.1946C108.618 40.2643 108.293 40.4684 108.092 40.5729C107.568 40.845 107.121 41.1802 106.954 41.3827C106.822 41.5585 106.552 41.8058 106.473 41.9103C106.306 42.121 106.438 42.0945 106.481 42.1045C106.727 42.1476 106.971 42.0348 107.383 41.902C107.934 41.6913 108.434 41.391 108.669 41.2499C109.405 40.8185 109.431 40.8633 110.324 40.1764C110.665 39.9042 110.734 39.8412 110.884 39.7001C111.094 39.4977 111.384 39.136 111.787 38.6166C112.215 37.9479 112.689 37.2958 113.134 36.6437C113.457 36.1675 113.861 35.4822 114.325 35.1122C114.518 35.0425 114.693 35.0939 114.788 35.2084C114.998 35.3146 114.947 35.746 114.754 36.0099C114.745 36.053 114.648 36.1509 114.632 36.1592L114.5 36.2554C114.115 36.5458 114.018 36.7051 113.738 36.9507L113.685 37.0204C112.897 38.0773 112.11 39.0016 111.506 40.1813C111.305 40.6045 110.675 41.3959 111.096 41.9949C111.244 42.1974 111.691 42.1891 111.91 42.1443C112.304 42.0912 113.154 41.9335 113.67 41.6681C113.924 41.5453 113.993 41.5453 114.335 41.3063C114.501 41.2366 114.536 41.3063 114.44 41.4291C114.282 41.6498 113.977 41.7991 113.574 42.0729C112.883 42.5226 111.666 43.0685 111.15 42.9275C110.66 42.7864 110.398 42.2853 110.459 41.5984C110.477 41.3163 110.555 41.0956 110.642 40.8235C110.711 40.5762 110.79 40.3921 110.888 40.2162C110.766 40.339 110.626 40.4634 110.467 40.5945C109.898 41.0525 110.03 40.8849 109.032 41.5187C108.699 41.6946 108.236 42.0729 107.86 42.2405C107.36 42.4429 106.573 42.8213 106.031 42.7682C105.575 42.7234 105.305 42.3451 105.514 41.9319C105.663 41.6498 106.118 41.1122 106.539 40.8401C106.915 40.5928 107.266 40.3821 107.597 40.2062C107.825 40.0917 108.648 39.7748 109.26 39.5807C109.68 39.4313 110.083 39.3085 110.345 39.3865C110.512 39.4479 110.66 39.5973 110.634 39.7217L110.63 39.7283Z" fill="white"/>
<path d="M115.329 41.5154C115.26 41.5071 115.215 41.4805 115.197 41.4357L115.075 41.5419C115.022 41.5851 114.927 41.7178 114.874 41.814C114.821 41.902 114.831 41.9816 114.831 42.0082C114.831 42.0878 114.927 42.131 115.014 42.1758C115.128 42.2289 115.347 42.3351 116.16 42.2554C116.433 42.2372 116.748 42.2554 117.439 42.0961C118.121 41.9468 118.489 41.7875 119.023 41.6199C119.269 41.5403 119.487 41.4789 119.751 41.3909C120.135 41.2764 120.338 41.1536 120.373 41.1271C120.46 41.0574 120.679 41.0475 120.618 41.215C120.574 41.3212 120.321 41.4092 120.084 41.5137C119.708 41.6896 119.279 41.8754 119.113 41.9269C118.666 42.0945 118.247 42.2256 117.747 42.3848C117.239 42.5076 116.898 42.6404 116.452 42.72C116.304 42.7466 116.024 42.808 115.84 42.8262C115.202 42.8876 114.914 42.8876 114.668 42.871C114.509 42.8627 114.44 42.8362 114.326 42.7914C114.204 42.7482 114.194 42.7034 114.107 42.6503C113.949 42.5541 113.871 42.3765 113.871 42.1741C113.871 42.0596 113.863 41.8837 113.959 41.7244C114.02 41.6448 114.133 41.4507 114.326 41.2665C114.493 41.1072 114.729 40.9147 114.948 40.7737C115.281 40.5629 115.385 40.4916 115.56 40.3953C115.718 40.3074 115.936 40.2361 116.357 40.0336C117.109 39.6719 117.46 39.584 117.897 39.506L118.238 39.4363C118.44 39.4097 119.193 39.3931 119.228 39.7449C119.236 39.8677 119.193 39.9656 119.009 40.1232C118.86 40.246 118.755 40.3439 118.519 40.4667C118.159 40.6608 117.486 40.9247 116.846 41.1619C116.751 41.1968 116.619 41.2416 116.452 41.2847C116.339 41.3378 116.216 41.3909 116.111 41.4258C115.918 41.5054 115.534 41.6465 115.332 41.5137L115.329 41.5154ZM115.68 41.0226H115.715C115.784 41.0226 115.916 41.0143 116.057 41.0043C116.162 40.996 116.17 41.0043 116.249 40.996L116.442 40.9612L116.644 40.8998C116.766 40.8649 116.871 40.8301 116.95 40.7936C117.335 40.626 117.948 40.3356 118.149 40.178C118.263 40.09 118.168 40.0369 118.158 40.0286C118.044 39.9855 117.965 39.9855 117.956 39.9855C117.798 40.0038 117.641 40.0038 117.256 40.1697C117.186 40.2045 117.046 40.2842 116.959 40.329L116.625 40.4883C116.355 40.621 116.091 40.7704 115.873 40.9114C115.812 40.9462 115.741 40.9811 115.68 41.0259V41.0226Z" fill="white"/>
<path d="M121.263 40.7761C121.491 40.7064 121.71 40.6434 121.859 40.6085C122.454 40.4592 122.891 40.4244 123.381 40.4144C123.389 40.353 123.407 40.2916 123.424 40.2468C123.493 40.0792 123.468 40.0178 123.572 39.8768C123.905 39.4719 124.57 38.9791 125.094 39.1633C125.19 39.1982 125.322 39.3043 125.383 39.374C125.409 39.4968 125.357 39.6993 125.287 39.8237C125.165 40.0344 124.7 40.1755 124.525 40.0344L124.438 39.973C124.369 39.9299 124.078 39.8768 124.07 40.0079C124.062 40.1406 124.044 40.2717 124.062 40.4128C124.115 40.4128 124.167 40.4045 124.22 40.4045C125.297 40.3862 125.437 40.3962 126.452 40.5107C126.592 40.5189 126.811 40.572 126.986 40.6434C127.1 40.6865 127.179 40.723 127.179 40.7662C127.232 40.8541 127.11 40.9338 127.039 40.9869C126.933 41.0566 126.803 41.0831 126.679 41.0051C126.539 40.9255 126.521 40.8558 126.32 40.8375C126.214 40.8027 125.96 40.723 125.655 40.6965C125.208 40.6616 124.675 40.6616 124.491 40.6616H124.097C124.149 40.8823 124.229 41.0931 124.306 41.2772C124.412 41.5062 124.446 41.7535 124.28 42.0173C124.184 42.1583 124.026 42.3077 123.869 42.4039C123.562 42.6329 123.054 42.827 122.371 42.8967C121.802 42.9664 121.225 42.9399 120.918 42.8884C120.646 42.8353 120.402 42.7291 120.191 42.598C119.964 42.4487 119.807 42.2811 119.797 42.0438C119.787 41.8066 119.964 41.5245 120.297 41.2607C120.498 41.1196 120.551 41.0748 120.831 40.9255C120.945 40.8724 120.918 40.8458 121.067 40.8193L121.26 40.7761H121.263ZM123.373 40.6716C123.005 40.6899 122.637 40.7247 122.279 40.8209C121.972 40.9006 121.623 40.9271 121.334 41.0234C121.229 41.0582 121.045 41.1727 120.958 41.2341C120.826 41.322 120.783 41.4631 120.712 41.6307C120.625 41.8414 120.755 42.0007 120.834 42.1152C120.956 42.2911 121.088 42.2911 121.202 42.3359C121.509 42.4504 121.867 42.618 122.244 42.5732C122.525 42.5284 122.604 42.4852 122.822 42.4504C122.988 42.4421 123.295 42.3276 123.399 42.1766C123.486 42.0621 123.679 41.9559 123.557 41.639C123.462 41.3917 123.382 40.9968 123.374 40.6699L123.373 40.6716Z" fill="white"/>
<path d="M126.585 41.0661C126.778 40.6696 126.945 40.2829 127.136 40.0274C127.355 39.6839 127.687 39.6308 127.941 39.596C128.081 39.5777 128.264 39.7188 128.291 39.8515C128.352 39.9926 128.238 40.1154 128.142 40.2133C127.984 40.3808 127.835 40.4505 127.74 40.5219C127.652 40.6181 127.547 40.6812 127.478 40.7426C127.319 40.8919 127.232 41.0064 127.128 41.2005C126.979 41.4826 126.953 41.6402 127.014 41.8875C127.102 42.2741 127.575 42.2227 127.863 42.1696C128.424 42.0468 128.983 41.9671 129.518 41.7829C129.885 41.6602 130.253 41.4843 130.576 41.2984C130.751 41.2636 130.926 41.3167 130.804 41.4312C129.946 41.9953 128.756 42.664 127.652 42.8134C127.144 42.8831 126.514 42.8134 126.34 42.2758C126.218 41.8974 126.374 41.5191 126.585 41.0694V41.0661ZM129.674 36.4964C129.78 36.5578 129.876 36.6192 129.719 36.8582C129.438 37.2365 129.351 37.3244 129.018 37.5003C129 37.5086 128.668 37.633 128.493 37.4655C128.432 37.4041 128.467 37.2813 128.432 37.2099C128.337 36.9196 128.792 36.752 129.133 36.6109C129.265 36.5495 129.229 36.5844 129.308 36.5495C129.501 36.4798 129.605 36.4699 129.676 36.4964H129.674Z" fill="white"/>
<path d="M136.929 42.141C136.632 42.2903 136.44 42.37 136.247 42.5193L135.407 43.198C134.409 44.8888 133.507 45.9806 132.072 47.5918C131.81 47.9087 131.521 48.2256 131.215 48.5425C131.172 48.5774 129.857 50.162 129.394 49.9861C129.28 49.9513 129.254 49.8368 129.272 49.6957C129.298 49.4402 129.341 49.193 129.412 49.0353C129.544 48.7367 129.605 48.5508 130.646 47.2566C131.188 46.5879 132.318 45.4695 132.991 44.8606C133.42 44.4739 133.857 44.1122 134.33 43.7422L134.777 43.3722C135.118 42.7997 135.389 42.2107 135.521 41.5934C135.556 41.4076 135.171 41.1885 135.1 41.2068C134.978 41.2416 134.855 41.2333 134.759 41.2499C134.488 41.2947 134.33 41.3644 134.042 41.4789C133.665 41.6465 132.999 41.8838 132.379 42.1393C131.924 42.3235 131.601 42.4828 131.18 42.579C130.796 42.667 130.436 42.7549 130.209 42.6321C129.999 42.5093 129.981 42.3235 129.981 42.1559C129.989 41.9535 130.156 41.7593 130.418 41.4773C130.918 40.9662 131.853 40.3406 132.851 39.9457C133.708 39.6106 134.103 39.4878 134.558 39.3384C134.751 39.277 135.328 39.3301 135.511 39.3467C135.633 39.3733 135.651 39.4081 135.694 39.5143L135.739 39.9192C135.739 40.1216 135.686 40.2096 135.537 40.2892C135.363 40.3689 135.143 40.412 135.003 40.2892C134.855 40.1482 134.434 39.8843 134.111 40.042C133.822 40.183 133.674 40.1299 133.105 40.4037C132.44 40.7123 131.924 41.0641 131.546 41.3644C131.388 41.4872 131.327 41.5752 131.223 41.6814C131.17 41.7427 131.127 41.8141 131.101 41.8755C131.083 41.9186 131.066 41.9634 131.206 41.9717C131.389 41.98 131.54 41.9535 131.696 41.9186C131.916 41.8755 131.968 41.8489 132.231 41.7776C132.73 41.6449 133.123 41.4872 133.509 41.3196C133.946 41.1354 134.332 40.9944 134.893 40.8086C135.33 40.641 136.171 40.4468 136.354 40.9579C136.468 41.2831 136.126 41.9618 135.838 42.4546L136.171 42.2605C136.372 42.1377 136.652 41.9618 137.256 41.688C137.441 41.5818 137.563 41.4939 137.799 41.4059C138.061 41.2997 138.209 41.1952 138.386 41.1504C138.438 41.1421 138.438 41.1321 138.534 41.1321C138.648 41.1321 138.831 41.2914 138.823 41.4225C138.814 41.5022 138.753 41.5901 138.648 41.6515C138.49 41.7394 138.386 41.6697 138.166 41.7477C138.052 41.7826 137.957 41.766 137.782 41.7925C137.676 41.8274 137.554 41.8539 137.449 41.8888C137.388 41.907 137.335 41.9336 137.239 41.9767C137.107 42.0381 137.073 42.0647 136.933 42.136L136.929 42.141ZM134.287 44.1222L134.173 44.2284C133.228 45.0381 132.046 46.4303 131.251 47.3545C130.726 47.98 130.656 48.3053 130.647 48.4032C131.348 47.7162 131.058 48.131 131.68 47.3993C132.747 46.1581 133.456 45.3915 134.289 44.1238L134.287 44.1222Z" fill="white"/>
<path d="M139.25 39.9313C139.355 39.7902 139.53 39.6409 139.713 39.5961C140.01 39.4816 140.264 39.6492 140.238 39.9661C140.106 40.371 139.433 41.0048 139.161 41.3566C139.073 41.4628 139.039 41.5508 139.073 41.5591C139.1 41.5591 139.143 41.6039 139.293 41.5325C139.443 41.4612 139.652 41.3483 139.713 41.3118C139.994 41.1442 140.729 40.6863 141.447 40.2631C142.138 39.8848 142.699 39.621 143.048 39.6641C143.625 39.7338 143.609 40.1487 143.512 40.6863C143.459 40.9849 143.424 41.3019 143.416 41.506C143.416 41.9639 143.827 42.1581 144.231 42.1581C144.739 42.1581 145.36 41.9025 145.753 41.7084V41.7001C145.771 41.6918 145.796 41.6918 145.814 41.6918C146.06 41.6735 146.068 41.8328 145.867 41.9473C145.166 42.3173 144.335 42.8102 143.713 42.7571C143.345 42.7305 142.924 42.3953 142.882 41.9025C142.855 41.6287 142.855 41.3998 142.89 41.1094C142.908 40.9335 142.89 40.8008 142.872 40.7045C142.854 40.6249 142.784 40.5369 142.723 40.4938C142.67 40.4589 142.557 40.3876 142.408 40.4141C142.12 40.4672 141.717 40.5734 141.254 40.819C140.799 41.0662 140.352 41.4097 139.984 41.6387C139.677 41.8328 139.179 42.2726 138.89 42.4219C138.724 42.5015 138.61 42.5978 138.427 42.6326C138.348 42.6592 138.287 42.6857 138.217 42.6675C137.982 42.6409 137.884 42.553 137.797 42.3422C137.779 42.1133 137.937 41.8843 138.13 41.6204C138.226 41.4877 138.34 41.3118 138.427 41.1973C138.594 40.9501 138.768 40.7211 138.909 40.5552C139.163 40.1769 139.102 40.1586 139.224 39.9827C139.242 39.9645 139.242 39.9479 139.25 39.9379V39.9296V39.9313Z" fill="white"/>
</g>
<defs>
<linearGradient id="paint0_linear_142_16682" x1="37.2039" y1="1.94233" x2="88.5986" y2="14.6418" gradientUnits="userSpaceOnUse">
<stop offset="0.161582" stop-color="#F051A3"/>
<stop offset="0.539604" stop-color="#2067F4"/>
<stop offset="1" stop-color="#4CBAFF" stop-opacity="0"/>
</linearGradient>
<linearGradient id="paint1_linear_142_16682" x1="11.7476" y1="38.043" x2="25.4844" y2="62.9643" gradientUnits="userSpaceOnUse">
<stop offset="0.161582" stop-color="#F051A3"/>
<stop offset="0.539604" stop-color="#2067F4"/>
<stop offset="1" stop-color="#4CBAFF" stop-opacity="0"/>
</linearGradient>
<linearGradient id="paint2_linear_142_16682" x1="51.5767" y1="30.4139" x2="52.7306" y2="49.8211" gradientUnits="userSpaceOnUse">
<stop offset="0.161582" stop-color="#F051A3"/>
<stop offset="0.539604" stop-color="#2067F4"/>
<stop offset="1" stop-color="#4CBAFF" stop-opacity="0"/>
</linearGradient>
<clipPath id="clip0_142_16682">
<rect width="163" height="56" fill="white"/>
</clipPath>
</defs>
</svg>
